<svg width="30" height="20" viewBox="0 0 30 20" fill="none" xmlns="http://www.w3.org/2000/svg">
<path d="M17.1325 0.253125C16.4463 0.0931248 15.735 0 15 0C14.265 0 13.5538 0.0931248 12.8675 0.253125C5.28187 1.80562 0 10 0 10C0 10 6.28875 19.7656 15 20C23.7113 19.7656 30 10 30 10C30 10 24.7181 1.80562 17.1325 0.253125ZM15 17.5C10.8581 17.5 7.5 14.1419 7.5 10C7.5 5.8575 10.8581 2.5 15 2.5C19.1419 2.5 22.5 5.85813 22.5 10C22.5 14.1419 19.1419 17.5 15 17.5Z" fill="#241F20"/>
<path d="M15 5V10L11.4644 6.46438C10.56 7.36938 10 8.61937 10 10C10 12.7613 12.2387 15 15 15C17.7606 15 20 12.7613 20 10C20 7.23875 17.7613 5 15 5Z" fill="#241F20"/>
</svg>
