<svg width="72" height="72" viewBox="0 0 72 72" fill="none" xmlns="http://www.w3.org/2000/svg">
<path d="M70.018 60.4779L45.54 36L70.018 11.5221C72.6607 8.87934 72.6607 4.62476 70.018 1.98204C67.3752 -0.660679 63.1207 -0.660679 60.4779 1.98204L36 26.46L11.5221 1.98204C8.87934 -0.660679 4.62476 -0.660679 1.98204 1.98204C-0.660679 4.62476 -0.660679 8.87934 1.98204 11.5221L26.46 36L1.98204 60.4779C-0.660679 63.1207 -0.660679 67.3752 1.98204 70.018C4.62476 72.6607 8.87934 72.6607 11.5221 70.018L36 45.54L60.4779 70.018C63.1207 72.6607 67.3752 72.6607 70.018 70.018C72.6419 67.3752 72.6419 63.1019 70.018 60.4779Z" fill="black"/>
</svg>
