<svg width="34" height="29" viewBox="0 0 34 29" fill="none" xmlns="http://www.w3.org/2000/svg">
<path fill-rule="evenodd" clip-rule="evenodd" d="M16.5716 5.17859C10.3956 5.17859 5.17871 8.49909 5.17871 12.4286C5.17871 12.7144 5.41071 12.9464 5.69657 12.9464C5.98243 12.9464 6.21443 12.7144 6.21443 12.4286C6.21443 9.11845 11.0543 6.2143 16.5716 6.2143C16.8564 6.2143 17.0894 5.9823 17.0894 5.69645C17.0894 5.41059 16.8574 5.17859 16.5716 5.17859Z" fill="#333333"/>
<path fill-rule="evenodd" clip-rule="evenodd" d="M16.5714 0C7.41882 0 0 5.56489 0 12.4286C0 16.703 2.87825 20.4719 7.25829 22.7091C7.25829 22.737 7.25 22.7557 7.25 22.7857C7.25 24.6427 5.86318 26.6417 5.25314 27.6909H5.25521C5.20654 27.8048 5.17857 27.9301 5.17857 28.0616C5.17857 28.5795 5.59804 29 6.11693 29C6.21429 29 6.38518 28.9741 6.38104 28.9855C9.61764 28.4552 12.6668 25.4817 13.3752 24.62C14.4099 24.7722 15.4767 24.8571 16.5714 24.8571C25.722 24.8571 33.1429 19.2922 33.1429 12.4286C33.1429 5.56489 25.723 0 16.5714 0ZM16.5714 22.7857C15.6217 22.7857 14.6471 22.7132 13.6756 22.5713C13.5751 22.5547 13.4746 22.5496 13.3752 22.5496C12.76 22.5496 12.1707 22.823 11.774 23.3056C11.3307 23.8453 10.0692 25.0498 8.57882 25.9353C8.98275 25.0084 9.29864 23.9695 9.32039 22.8986C9.32661 22.8323 9.32971 22.765 9.32971 22.708C9.32971 21.9292 8.89368 21.2176 8.20079 20.8634C4.36243 18.9039 2.07143 15.7501 2.07143 12.4286C2.07143 6.71764 8.57571 2.07143 16.5714 2.07143C24.5651 2.07143 31.0714 6.71764 31.0714 12.4286C31.0714 18.1395 24.5661 22.7857 16.5714 22.7857Z" fill="#333333"/>
</svg>
