<svg width="294" height="194" viewBox="0 0 294 194" fill="none" xmlns="http://www.w3.org/2000/svg">
<path d="M253.299 83.0866C245.845 87.8628 238.961 99.1305 234.17 110.324C234.743 109.59 237.28 111.157 236.703 110.426C233.355 106.196 239.927 109.883 235.854 106.347C234.913 105.533 212.844 83.7531 211.619 83.966C211.286 84.0246 210.94 84.1634 210.619 84.0524C210.092 83.8734 209.956 83.1607 209.487 82.8676C208.931 82.5189 208.216 82.8984 207.694 83.2995C206.064 84.5598 204.693 86.1241 203.659 87.906C203.35 88.449 203.072 89.1648 203.452 89.6615C203.689 89.9701 204.137 90.112 204.276 90.4761C204.458 90.9512 204.007 91.4017 203.745 91.8398C203.196 92.7438 203.436 93.907 203.773 94.9066C204.373 96.5742 205.094 98.1953 205.932 99.7568C207.861 103.521 217.379 118 220.159 121.188C224.148 125.76 230.18 128.947 236.299 129.132C242.682 129.324 247.742 125.023 251.63 120.413C255.678 115.616 259.96 110.037 262.913 104.493C263.351 103.666 259.633 98.0599 259.306 97.1836" fill="black"/>
<path d="M253.209 82.9262C249.893 85.0181 247.143 87.9368 244.759 91.0222C241.959 94.7077 239.495 98.6367 237.397 102.762C236.138 105.187 234.972 107.655 233.898 110.167C233.772 110.457 234.126 110.827 234.379 110.537C234.632 110.247 235.367 110.537 235.678 110.636C235.99 110.734 236.502 111.021 236.838 110.91C237.483 110.694 236.672 109.901 236.508 109.676C236.273 109.37 236.104 109.018 236.012 108.643C236.012 108.572 236.012 108.584 236.061 108.538C235.993 108.584 236.095 108.519 236.113 108.51C236.052 108.538 236.203 108.488 236.234 108.479C236.376 108.445 236.619 108.445 236.851 108.42C237.412 108.365 237.733 107.989 237.381 107.455C236.999 106.875 236.403 106.449 235.904 105.977C235.595 105.696 235.308 105.409 235.015 105.125C233.849 103.998 232.685 102.867 231.522 101.731C228.064 98.4054 224.624 95.0763 221.137 91.8058C219.514 90.2632 217.882 88.7483 216.222 87.2549C215.102 86.246 213.979 85.2279 212.779 84.3115C212.496 84.0577 212.175 83.8495 211.829 83.6944C211.449 83.5679 211.063 83.8981 210.687 83.7531C210.378 83.6327 210.218 83.2162 210.024 82.9694C209.91 82.81 209.762 82.6779 209.59 82.5829C209.419 82.4879 209.229 82.4323 209.033 82.4202C208.077 82.3863 207.216 83.2409 206.565 83.8333C205.798 84.526 205.097 85.2893 204.473 86.1134C203.908 86.8569 203.211 87.7301 203.001 88.6588C202.947 88.8536 202.935 89.0577 202.965 89.2577C202.995 89.4576 203.068 89.6489 203.177 89.8189C203.381 90.1058 203.967 90.3218 204.001 90.6951C204.023 90.9327 203.797 91.1919 203.671 91.377C203.531 91.5705 203.41 91.7772 203.31 91.994C203.141 92.4169 203.071 92.8729 203.106 93.3269C203.171 94.3667 203.578 95.3756 203.97 96.3259C204.585 97.8049 205.284 99.2472 206.065 100.645C207.188 102.663 208.432 104.616 209.672 106.56C212.6 111.157 215.574 115.776 218.885 120.111C223.035 125.566 229.708 129.447 236.672 129.478C244.845 129.503 250.476 122.573 255.094 116.735C257.905 113.184 260.571 109.491 262.78 105.533C263.089 105.005 263.416 104.585 263.289 103.99C263.18 103.547 263.019 103.12 262.808 102.716C262.268 101.549 261.611 100.439 260.957 99.3218C260.679 98.8435 260.392 98.3684 260.111 97.8932L259.821 97.3872L259.71 97.1774C259.695 97.1497 259.682 97.1219 259.667 97.0911C259.695 97.1651 259.627 97.0047 259.667 97.0911C259.491 96.6437 258.76 96.8381 258.939 97.2916C259.071 97.6103 259.224 97.9196 259.399 98.2172C259.664 98.6893 259.938 99.1428 260.213 99.6241C260.858 100.713 261.512 101.802 262.064 102.944C262.268 103.327 262.429 103.732 262.542 104.15C262.552 104.19 262.559 104.23 262.564 104.271C262.567 104.301 262.567 104.332 262.564 104.363C262.564 104.342 262.564 104.264 262.564 104.363C262.613 104.206 262.509 104.462 262.487 104.499L262.323 104.808C262.169 105.094 262.015 105.375 261.851 105.659C260.772 107.566 259.584 109.411 258.334 111.213C257.085 113.015 255.715 114.844 254.323 116.6C253.046 118.213 251.753 119.827 250.377 121.354C247.949 124.042 245.104 126.547 241.686 127.867C238.122 129.244 234.281 128.981 230.683 127.809C226.98 126.583 223.641 124.451 220.97 121.607C219.573 120.123 218.41 118.423 217.24 116.76C215.624 114.465 214.053 112.132 212.507 109.787C211.023 107.532 209.558 105.261 208.145 102.959C206.817 100.856 205.647 98.6571 204.643 96.3814C204.242 95.4404 203.785 94.3975 203.717 93.3609C203.671 92.897 203.766 92.4299 203.992 92.0218C204.217 91.6392 204.563 91.2906 204.609 90.8247C204.618 90.6406 204.581 90.4571 204.499 90.2918C204.418 90.1265 204.295 89.9849 204.143 89.8806C203.992 89.7794 203.851 89.6648 203.72 89.5381C203.637 89.424 203.583 89.2903 203.566 89.1499C203.549 89.0094 203.568 88.8669 203.622 88.7359C203.79 88.2651 204.026 87.8213 204.322 87.4185C204.606 86.9834 204.908 86.5607 205.247 86.1535C205.895 85.353 206.618 84.6173 207.407 83.9567C207.769 83.6019 208.195 83.3201 208.663 83.1267C209.215 82.954 209.481 83.2656 209.764 83.6852C209.924 83.9682 210.165 84.197 210.456 84.3424C210.624 84.413 210.807 84.4416 210.989 84.4257C211.102 84.4159 211.215 84.3984 211.326 84.3732L211.579 84.3177C211.727 84.2899 211.745 84.2838 211.634 84.3177C211.653 84.3177 211.56 84.2807 211.656 84.3177C211.751 84.3547 211.582 84.2807 211.656 84.3177C211.689 84.3333 211.721 84.3508 211.751 84.3701C212.677 84.8916 213.461 85.6536 214.275 86.3602C215.738 87.6314 217.163 88.9457 218.595 90.2632C222.069 93.4935 225.49 96.7794 228.906 100.075C231.09 102.185 233.241 104.332 235.453 106.418C235.944 106.816 236.4 107.255 236.817 107.729C236.87 107.8 236.914 107.878 236.946 107.961C236.906 107.961 237.03 107.794 237.02 107.794C236.961 107.81 236.9 107.822 236.838 107.831L236.508 107.856C236.018 107.896 235.441 108.041 235.422 108.64C235.447 109.02 235.577 109.385 235.799 109.695C235.96 109.957 236.136 110.209 236.326 110.451C236.37 110.522 236.42 110.59 236.477 110.651L236.499 110.682C236.573 110.821 236.635 110.713 236.687 110.358C236.663 110.299 236.823 110.417 236.721 110.358C236.683 110.343 236.644 110.333 236.604 110.327C235.894 110.127 234.589 109.432 233.969 110.148L234.45 110.519C236.305 106.151 238.452 101.913 240.877 97.8346C243.108 94.1168 245.622 90.5162 248.624 87.3753C250.064 85.836 251.672 84.4636 253.419 83.2841C253.617 83.1545 253.438 82.8367 253.234 82.9756L253.209 82.9262Z" fill="black"/>
<path d="M166.597 69.3445C164.584 67.2607 162.148 65.6319 159.453 64.5676C156.758 63.5032 153.867 63.028 150.973 63.1738C150.404 63.1671 149.843 63.3074 149.344 63.581C148.514 64.1241 148.286 65.2965 148.588 66.2375C148.89 67.1786 149.609 67.9252 150.365 68.5608C149.489 68.7829 148.566 68.5608 147.662 68.5762C146.758 68.5916 145.722 68.9897 145.503 69.8659C145.151 71.2389 146.922 72.1028 148.31 72.3928C145.595 71.6153 142.393 71.1186 140.18 72.8741C139.685 73.2394 139.31 73.7459 139.107 74.3273C138.724 75.58 139.554 76.9499 140.683 77.6163C141.813 78.2827 143.167 78.4154 144.475 78.5419C143.349 78.943 142.134 79.0171 140.992 79.3626C139.85 79.7082 138.706 80.4363 138.372 81.5841C137.913 83.173 139.298 84.8206 140.881 85.2865C142.464 85.7524 144.167 85.3359 145.768 84.9317C144.733 85.1513 143.755 85.5831 142.896 86.1998C142.491 86.4608 142.156 86.8166 141.921 87.2364C141.242 88.6094 143.059 90.3712 144.407 89.6492C143.155 89.3252 142.059 90.9697 142.532 92.173C143.004 93.3763 144.441 93.9563 145.734 93.8854C147.027 93.8144 148.23 93.2498 149.437 92.7932C152.229 91.7382 155.196 91.221 158.18 91.269" fill="#F36E39"/>
<path d="M166.755 69.1871C163.118 65.4055 158.175 63.1552 152.935 62.8961C152.081 62.8384 151.223 62.858 150.371 62.9547C149.582 63.0627 148.86 63.4052 148.477 64.1333C147.551 65.9043 148.841 67.6568 150.155 68.7768L150.285 68.2862C149.19 68.5299 148.07 68.135 146.968 68.3633C146.2 68.5207 145.426 68.9804 145.203 69.7918C144.75 71.5073 146.913 72.4113 148.218 72.6982C148.257 72.709 148.298 72.7119 148.339 72.7068C148.379 72.7016 148.418 72.6886 148.453 72.6684C148.489 72.6482 148.52 72.6212 148.545 72.589C148.57 72.5568 148.588 72.52 148.599 72.4807C148.61 72.4414 148.612 72.4004 148.607 72.36C148.602 72.3196 148.589 72.2805 148.569 72.2452C148.549 72.2098 148.522 72.1787 148.49 72.1538C148.457 72.1288 148.421 72.1104 148.381 72.0997C146.03 71.4271 143.312 70.9057 140.998 71.9886C139.924 72.4915 138.854 73.4171 138.696 74.6574C138.548 75.8299 139.224 76.9622 140.131 77.6564C141.365 78.582 142.979 78.7425 144.466 78.8906L144.373 78.221C142.282 78.9368 139.172 78.7579 138.144 81.186C137.219 83.3458 139.317 85.3976 141.328 85.74C142.852 85.9961 144.38 85.6321 145.854 85.2618C146.289 85.1507 146.104 84.4905 145.666 84.5861C144.604 84.8188 143.6 85.2638 142.714 85.8943C142.035 86.3818 141.378 87.0513 141.424 87.9491C141.498 89.427 143.201 90.618 144.571 89.9361C144.626 89.9013 144.671 89.8513 144.699 89.7921C144.727 89.7328 144.737 89.6668 144.729 89.6019C144.72 89.5369 144.693 89.4758 144.651 89.4256C144.609 89.3755 144.553 89.3385 144.491 89.319C143.365 89.0722 142.387 89.9577 142.14 91.0191C141.865 92.2039 142.602 93.2806 143.645 93.7959C144.944 94.4346 146.373 94.2525 147.699 93.7959C148.474 93.5367 149.224 93.2066 149.995 92.9351C150.787 92.6556 151.593 92.4197 152.411 92.2285C154.3 91.7922 156.235 91.585 158.174 91.6115C158.257 91.6035 158.335 91.5647 158.391 91.5028C158.447 91.4409 158.478 91.3603 158.478 91.2767C158.478 91.1931 158.447 91.1125 158.391 91.0506C158.335 90.9887 158.257 90.9499 158.174 90.9419C155.282 90.8851 152.403 91.3566 149.68 92.3334C148.381 92.7993 147.079 93.4843 145.669 93.5429C144.626 93.583 143.386 93.185 142.893 92.1853C142.451 91.2844 143.155 89.7171 144.306 89.967L144.225 89.3499C143.25 89.8312 141.958 88.7328 142.115 87.6961C142.226 86.9896 142.991 86.5052 143.553 86.1535C144.264 85.7286 145.041 85.4232 145.851 85.2495L145.663 84.5738C144.235 84.9317 142.707 85.3297 141.236 84.9996C140.079 84.7404 138.965 83.8857 138.678 82.6917C138.369 81.4576 139.313 80.4641 140.359 79.9612C141.668 79.3441 143.189 79.3441 144.552 78.8659C144.63 78.842 144.696 78.7914 144.74 78.7232C144.784 78.655 144.802 78.5735 144.791 78.4933C144.78 78.413 144.741 78.3391 144.681 78.2848C144.621 78.2304 144.544 78.1991 144.463 78.1964C143.272 78.0914 142.019 77.9835 140.955 77.3972C140.063 76.9036 139.283 75.941 139.332 74.8765C139.384 73.7565 140.437 72.9482 141.375 72.5224C142.37 72.1084 143.45 71.936 144.525 72.0195C145.781 72.1036 147.023 72.3313 148.227 72.6982L148.391 72.0997C147.44 71.8961 145.203 71.1371 145.867 69.7517C146.175 69.1347 146.987 68.9064 147.619 68.8817C148.573 68.8416 149.504 69.0637 150.449 68.8508C150.495 68.8338 150.538 68.8057 150.571 68.7689C150.605 68.7321 150.629 68.6877 150.642 68.6395C150.655 68.5912 150.655 68.5406 150.644 68.492C150.633 68.4434 150.611 68.3982 150.578 68.3602C149.483 67.4346 148.193 65.9475 148.983 64.4202C149.4 63.615 150.279 63.4946 151.103 63.4514C151.879 63.4036 152.658 63.4036 153.435 63.4514C156.547 63.6721 159.566 64.6121 162.253 66.1974C163.792 67.1008 165.2 68.2094 166.44 69.4926C166.637 69.6962 166.952 69.3846 166.748 69.184L166.755 69.1871Z" fill="#F36E39"/>
<path d="M191.919 95.536C191.367 94.5299 190.749 93.562 190.068 92.6389C189.496 91.816 188.842 91.054 188.115 90.365C186.828 89.1987 184.659 88.0325 183.055 89.2789C182.78 89.4949 183.141 89.967 183.431 89.7664C184.924 88.7421 186.973 90.1891 188.059 91.2042C189.43 92.5467 190.593 94.0857 191.512 95.7705C191.66 96.0328 192.055 95.7983 191.913 95.536H191.919Z" fill="black"/>
<path d="M183.962 90.1552C182.09 89.9884 180.204 90.146 178.386 90.6211C177.72 90.7969 177.023 91.0592 176.717 91.7287C176.412 92.3982 176.603 93.2251 176.881 93.8885C176.899 93.9556 176.944 94.0126 177.004 94.047C177.064 94.0814 177.136 94.0905 177.203 94.072C177.27 94.0536 177.327 94.0093 177.362 93.9489C177.396 93.8884 177.405 93.8167 177.387 93.7496C177.242 93.1696 176.98 92.4044 177.325 91.849C177.671 91.2937 178.575 91.161 179.176 91.016C180.743 90.6375 182.353 90.4653 183.965 90.5038C184.193 90.5038 184.187 90.1706 183.965 90.1521L183.962 90.1552Z" fill="black"/>
<path d="M179.667 93.4102C178.741 93.2621 177.664 93.5151 177.035 94.234C176.991 94.284 176.967 94.3491 176.969 94.4159C176.971 94.4828 176.998 94.5464 177.046 94.5937C177.093 94.641 177.156 94.6684 177.223 94.6704C177.29 94.6723 177.355 94.6487 177.405 94.6043C177.692 94.3202 178.03 94.093 178.402 93.9347C178.793 93.7777 179.217 93.7194 179.636 93.765C179.837 93.7836 179.883 93.4565 179.682 93.4102H179.667Z" fill="black"/>
<path d="M180.302 96.4339C179.854 96.3068 179.376 96.3317 178.943 96.5047C178.51 96.6777 178.146 96.9891 177.908 97.3903C177.732 97.6989 178.217 97.9673 178.371 97.6619C178.544 97.3391 178.815 97.0794 179.145 96.9198C179.474 96.7602 179.846 96.7089 180.207 96.7733C180.229 96.7795 180.252 96.7814 180.275 96.7787C180.298 96.7759 180.321 96.7687 180.341 96.7574C180.361 96.7461 180.379 96.7309 180.393 96.7127C180.407 96.6945 180.418 96.6737 180.424 96.6514C180.431 96.6291 180.432 96.6058 180.43 96.5828C180.427 96.5598 180.42 96.5376 180.408 96.5174C180.397 96.4972 180.382 96.4794 180.364 96.4651C180.346 96.4508 180.325 96.4402 180.302 96.4339Z" fill="black"/>
<path d="M178.886 99.8278C178.562 100.935 179.55 101.679 180.392 102.157C180.787 102.382 181.268 102.552 181.666 102.237C181.744 102.179 181.809 102.103 181.854 102.017C181.9 101.931 181.927 101.835 181.931 101.738C181.931 101.519 181.712 101.269 181.771 101.068L181.342 101.244C183.193 102.308 185.662 102.453 187.544 101.395C187.895 101.198 187.587 100.704 187.235 100.864C186.358 101.286 185.394 101.494 184.422 101.472C183.449 101.45 182.495 101.199 181.638 100.738C181.599 100.718 181.556 100.708 181.512 100.706C181.468 100.704 181.425 100.712 181.384 100.729C181.344 100.745 181.307 100.771 181.277 100.803C181.247 100.834 181.224 100.872 181.21 100.914C181.185 101.024 181.185 101.137 181.21 101.247C181.237 101.367 181.342 101.5 181.355 101.617C181.419 102.166 180.639 101.707 180.429 101.596C179.812 101.259 179.05 100.729 179.226 99.9234C179.232 99.8794 179.222 99.8344 179.198 99.797C179.174 99.7597 179.137 99.7325 179.094 99.7208C179.051 99.709 179.005 99.7134 178.965 99.7331C178.925 99.7528 178.894 99.7865 178.877 99.8278H178.886Z" fill="black"/>
<path d="M6.59395 0.528748H10.4074C8.79624 0.528748 7.25102 1.16879 6.11173 2.30809C4.97243 3.44738 4.33238 4.9926 4.33238 6.60381V94.6629C4.33076 95.4618 4.48668 96.2533 4.79121 96.992C5.09575 97.7306 5.54293 98.402 6.10717 98.9677C6.67142 99.5333 7.34165 99.9822 8.07953 100.289C8.81742 100.595 9.60847 100.753 10.4074 100.753H6.59395C5.79497 100.753 5.00392 100.595 4.26604 100.289C3.52815 99.9822 2.85792 99.5333 2.29368 98.9677C1.72943 98.402 1.28225 97.7306 0.977718 96.992C0.673182 96.2533 0.517265 95.4618 0.518888 94.6629V6.60381C0.518888 4.9926 1.15894 3.44738 2.29823 2.30809C3.43753 1.16879 4.98274 0.528748 6.59395 0.528748Z" fill="#F36E39"/>
<path d="M6.59396 1.04092H10.4075V0.0134968C8.80764 0.0292907 7.26695 0.620346 6.06706 1.67861C4.86717 2.73687 4.08824 4.19163 3.87268 5.77693C3.82337 6.2638 3.80482 6.75328 3.81714 7.24248V94.5364C3.80158 95.4121 3.96048 96.2821 4.28459 97.0958C4.60869 97.9095 5.09152 98.6505 5.70492 99.2757C6.31832 99.9008 7.05002 100.398 7.85738 100.737C8.66475 101.077 9.53161 101.252 10.4075 101.253V100.223H7.73245C6.62173 100.223 5.54185 100.244 4.48666 99.8154C3.45586 99.3821 2.5772 98.6521 1.96242 97.7181C1.34764 96.7841 1.02452 95.6884 1.03415 94.5703C1.03415 93.2467 1.03415 91.92 1.03415 90.5964V6.88457C0.986082 5.44929 1.47074 4.04697 2.39479 2.94767C2.92055 2.3511 3.5664 1.87231 4.29004 1.54266C5.01368 1.21301 5.79879 1.03993 6.59396 1.03475C7.25731 1.03475 7.25731 -0.00193126 6.59396 0.0073248C4.92402 0.0244549 3.32143 0.668225 2.10371 1.81109C0.885986 2.95396 0.141971 4.51253 0.0190692 6.17803C-0.00869894 6.56679 0.00364271 6.96171 0.00364271 7.35047V94.2926C-0.0359567 95.5378 0.247869 96.772 0.827432 97.8747C1.62593 99.2904 2.91405 100.366 4.44964 100.898C5.5326 101.275 6.64024 101.253 7.76639 101.253H10.3951C10.5318 101.253 10.6628 101.199 10.7595 101.102C10.8561 101.006 10.9104 100.875 10.9104 100.738C10.9104 100.601 10.8561 100.47 10.7595 100.374C10.6628 100.277 10.5318 100.223 10.3951 100.223C8.92742 100.206 7.52459 99.6153 6.48671 98.5774C5.44882 97.5396 4.85831 96.1367 4.84148 94.669C4.84148 94.3883 4.84148 94.1075 4.84148 93.8298V6.82904C4.80341 5.34951 5.33843 3.91249 6.33479 2.81808C6.85729 2.26281 7.48717 1.81951 8.18621 1.51507C8.88524 1.21064 9.63884 1.05142 10.4013 1.04709C10.5307 1.03705 10.6515 0.978581 10.7396 0.883347C10.8277 0.788114 10.8767 0.663135 10.8767 0.533378C10.8767 0.403621 10.8277 0.278642 10.7396 0.183409C10.6515 0.0881754 10.5307 0.0296975 10.4013 0.0196641H6.59396C6.47036 0.0363426 6.35701 0.0972853 6.27493 0.191186C6.19284 0.285087 6.14761 0.405571 6.14761 0.53029C6.14761 0.655008 6.19284 0.775497 6.27493 0.869398C6.35701 0.963299 6.47036 1.02424 6.59396 1.04092Z" fill="#F36E39"/>
<path d="M96.4549 101.253H163.716C166.094 101.253 168.304 100.17 169.578 98.1123C170.812 96.1315 170.553 93.7496 170.553 91.522V8.19277C170.553 7.67752 170.553 7.16227 170.553 6.6501C170.546 5.08322 169.987 3.56885 168.975 2.37275C167.963 1.17665 166.562 0.375237 165.018 0.109149C163.901 -0.0667159 162.71 0.0227597 161.584 0.0227597H13.0177C12.1476 0.0227597 11.2775 0.00733295 10.4075 0.0227597C8.66551 0.0451767 7.0013 0.747552 5.77003 1.97998C4.53875 3.21241 3.83793 4.87727 3.81715 6.61924V7.93977V91.1888C3.81715 93.0955 3.57032 95.3232 4.29229 97.1219C4.80322 98.3588 5.67292 99.4142 6.78926 100.152C7.9056 100.89 9.21741 101.277 10.5556 101.262H76.9338C77.0705 101.262 77.2016 101.208 77.2982 101.112C77.3948 101.015 77.4491 100.884 77.4491 100.747C77.4491 100.611 77.3948 100.479 77.2982 100.383C77.2016 100.286 77.0705 100.232 76.9338 100.232H13.0269C12.2186 100.232 11.4102 100.232 10.6018 100.232C7.76023 100.232 5.24875 98.2635 4.88468 95.3633C4.69339 93.8206 4.84766 92.1668 4.84766 90.6118V7.92435C4.84766 7.4924 4.84766 7.05736 4.84766 6.62541C4.86458 5.14993 5.45971 3.73998 6.50512 2.6986C7.55053 1.65723 8.96278 1.06757 10.4383 1.05635H13.5237H161.466C162.373 1.05635 163.287 1.0255 164.194 1.05635C167.236 1.17976 169.501 3.74678 169.519 6.73031V8.55376V91.522C169.519 93.7558 169.828 96.1932 168.35 98.0753C166.363 100.627 163.253 100.235 160.414 100.235H96.4549C96.3182 100.235 96.1872 100.289 96.0905 100.386C95.9939 100.483 95.9396 100.614 95.9396 100.75C95.9396 100.887 95.9939 101.018 96.0905 101.115C96.1872 101.211 96.3182 101.266 96.4549 101.266V101.253Z" fill="black"/>
<path d="M10.4075 0.528748H163.959C164.757 0.528343 165.547 0.685199 166.285 0.990355C167.022 1.29551 167.692 1.74298 168.256 2.30719C168.82 2.87139 169.268 3.54126 169.573 4.2785C169.878 5.01575 170.035 5.80591 170.034 6.60381V7.83795H4.3324V6.60381C4.3324 4.9926 4.97245 3.44738 6.11174 2.30809C7.25104 1.16879 8.79625 0.528748 10.4075 0.528748Z" fill="black"/>
<path d="M27.2288 5.16296C27.7741 5.16296 28.2161 4.72093 28.2161 4.17565C28.2161 3.63037 27.7741 3.18834 27.2288 3.18834C26.6835 3.18834 26.2415 3.63037 26.2415 4.17565C26.2415 4.72093 26.6835 5.16296 27.2288 5.16296Z" fill="#F36E39"/>
<path d="M20.1942 5.16296C20.7395 5.16296 21.1815 4.72093 21.1815 4.17565C21.1815 3.63037 20.7395 3.18834 20.1942 3.18834C19.6489 3.18834 19.2069 3.63037 19.2069 4.17565C19.2069 4.72093 19.6489 5.16296 20.1942 5.16296Z" fill="#F36E39"/>
<path d="M13.1565 5.16296C13.7018 5.16296 14.1438 4.72093 14.1438 4.17565C14.1438 3.63037 13.7018 3.18834 13.1565 3.18834C12.6112 3.18834 12.1692 3.63037 12.1692 4.17565C12.1692 4.72093 12.6112 5.16296 13.1565 5.16296Z" fill="#F36E39"/>
<path d="M83.6414 77.6965H28.3611C27.6206 77.6965 26.8586 77.6379 26.1212 77.6965H26.0224L26.5377 78.2118V25.3041C26.5377 24.5945 26.5963 23.854 26.5377 23.1444C26.5377 23.1135 26.5377 23.0827 26.5377 23.0518L26.0224 23.5671H81.3027C82.0432 23.5671 82.8053 23.6226 83.5427 23.5671H83.6414L83.1292 23.0518V75.9626C83.1292 76.6784 83.1076 77.4003 83.1292 78.1223V78.2149C83.1393 78.3442 83.1977 78.4651 83.293 78.5532C83.3882 78.6413 83.5132 78.6903 83.6429 78.6903C83.7727 78.6903 83.8977 78.6413 83.9929 78.5532C84.0881 78.4651 84.1466 78.3442 84.1566 78.2149V25.3041C84.1566 24.5853 84.1782 23.8633 84.1566 23.1444V23.0518C84.155 22.9157 84.1002 22.7855 84.004 22.6893C83.9077 22.593 83.7776 22.5382 83.6414 22.5366H28.3611C27.6145 22.5366 26.8647 22.5181 26.1212 22.5366H26.0224C25.8865 22.539 25.7568 22.594 25.6607 22.6901C25.5646 22.7862 25.5096 22.9159 25.5072 23.0518V75.9626C25.5072 76.6784 25.4856 77.4003 25.5072 78.1223V78.2149C25.5088 78.3507 25.5637 78.4805 25.6601 78.5763C25.7564 78.6721 25.8866 78.7262 26.0224 78.727H81.3027C82.0493 78.727 82.7991 78.7486 83.5427 78.727H83.6414C83.778 78.727 83.9091 78.6728 84.0057 78.5761C84.1024 78.4795 84.1566 78.3484 84.1566 78.2118C84.1566 78.0751 84.1024 77.9441 84.0057 77.8474C83.9091 77.7508 83.778 77.6965 83.6414 77.6965Z" fill="black"/>
<path d="M26.0224 23.0549H83.6445V31.2712H26.0224V23.0549Z" fill="black"/>
<path d="M83.6414 30.756H28.3611C27.6206 30.756 26.8586 30.7004 26.1212 30.756H26.0224L26.5377 31.2712V23.0549L26.0224 23.5702H81.3027C82.0432 23.5702 82.8053 23.6257 83.5427 23.5702H83.6414L83.1292 23.0549V31.2712C83.1393 31.4006 83.1977 31.5214 83.293 31.6095C83.3882 31.6977 83.5132 31.7466 83.6429 31.7466C83.7727 31.7466 83.8977 31.6977 83.9929 31.6095C84.0881 31.5214 84.1466 31.4006 84.1566 31.2712V23.0549C84.155 22.9188 84.1002 22.7886 84.004 22.6924C83.9077 22.5961 83.7775 22.5413 83.6414 22.5397H28.3611C27.6145 22.5397 26.8647 22.5212 26.1212 22.5397H26.0224C25.8865 22.5421 25.7568 22.5971 25.6607 22.6932C25.5646 22.7893 25.5095 22.919 25.5072 23.0549V31.2712C25.5088 31.4074 25.5636 31.5375 25.6598 31.6338C25.7561 31.7301 25.8863 31.7849 26.0224 31.7865H81.3027C82.0493 31.7865 82.7991 31.805 83.5427 31.7865H83.6414C83.778 31.7865 83.9091 31.7322 84.0057 31.6356C84.1024 31.5389 84.1566 31.4079 84.1566 31.2712C84.1566 31.1346 84.1024 31.0035 84.0057 30.9069C83.9091 30.8103 83.778 30.756 83.6414 30.756Z" fill="black"/>
<path d="M148.344 77.6965H93.0795C92.3421 77.6965 91.5769 77.6379 90.8395 77.6965H90.7408L91.2561 78.2118V25.3041C91.2561 24.5945 91.3147 23.854 91.2561 23.1444C91.2561 23.1135 91.2561 23.0827 91.2561 23.0518L90.7408 23.5671H146.009C146.746 23.5671 147.511 23.6226 148.246 23.5671H148.344L147.832 23.0518V75.9626C147.832 76.6784 147.811 77.4003 147.832 78.1223V78.2149C147.842 78.3442 147.901 78.4651 147.996 78.5532C148.091 78.6413 148.216 78.6903 148.346 78.6903C148.476 78.6903 148.601 78.6413 148.696 78.5532C148.791 78.4651 148.85 78.3442 148.86 78.2149V25.3041C148.86 24.5853 148.881 23.8633 148.86 23.1444V23.0518C148.858 22.9157 148.803 22.7855 148.707 22.6893C148.611 22.593 148.48 22.5382 148.344 22.5366H93.0795C92.3328 22.5366 91.5862 22.5181 90.8395 22.5366H90.7408C90.6049 22.539 90.4752 22.594 90.3791 22.6901C90.283 22.7862 90.2279 22.9159 90.2255 23.0518V75.9626C90.2255 76.6784 90.207 77.4003 90.2255 78.1223V78.2149C90.2279 78.3505 90.2831 78.4798 90.3793 78.5755C90.4755 78.6711 90.6052 78.7254 90.7408 78.727H146.009C146.752 78.727 147.502 78.7486 148.246 78.727H148.344C148.481 78.727 148.612 78.6728 148.709 78.5761C148.805 78.4795 148.86 78.3484 148.86 78.2118C148.86 78.0751 148.805 77.9441 148.709 77.8474C148.612 77.7508 148.481 77.6965 148.344 77.6965Z" fill="black"/>
<path d="M90.7254 23.0549H148.347V31.2712H90.7254V23.0549Z" fill="black"/>
<path d="M148.344 30.756H93.0795C92.3421 30.756 91.5769 30.7004 90.8395 30.756H90.7408L91.2283 31.2712V23.0549L90.713 23.5702H146.009C146.746 23.5702 147.511 23.6257 148.246 23.5702H148.344L147.832 23.0549V31.2712C147.842 31.4006 147.901 31.5214 147.996 31.6095C148.091 31.6977 148.216 31.7466 148.346 31.7466C148.476 31.7466 148.601 31.6977 148.696 31.6095C148.791 31.5214 148.85 31.4006 148.86 31.2712V23.0549C148.858 22.9188 148.803 22.7886 148.707 22.6924C148.611 22.5961 148.481 22.5413 148.344 22.5397H93.0795C92.3328 22.5397 91.5862 22.5212 90.8395 22.5397H90.7408C90.6049 22.5421 90.4752 22.5971 90.3791 22.6932C90.283 22.7893 90.2279 22.919 90.2255 23.0549V31.2712C90.2279 31.4071 90.283 31.5368 90.3791 31.6329C90.4752 31.7291 90.6049 31.7841 90.7408 31.7865H146.009C146.752 31.7865 147.502 31.805 148.246 31.7865H148.344C148.481 31.7865 148.612 31.7322 148.709 31.6356C148.805 31.5389 148.86 31.4079 148.86 31.2712C148.86 31.1346 148.805 31.0035 148.709 30.9069C148.612 30.8103 148.481 30.756 148.344 30.756Z" fill="black"/>
<path d="M202.221 109.195C207.518 103.257 210.832 95.8156 211.702 87.906C211.789 87.4508 211.756 86.9809 211.606 86.5423C211.408 86.1766 211.129 85.8602 210.792 85.6166C201.199 77.4871 191.02 70.0765 180.336 63.4453C179.411 62.8776 178.46 62.3006 177.39 62.2111C176.496 62.1934 175.608 62.3702 174.789 62.7295C168.927 64.9139 163.864 69.0545 160.229 74.1453C156.595 79.2361 154.367 85.2773 153.389 91.4634C153.099 93.3146 152.935 95.28 153.722 96.9769C155.058 99.8525 158.523 100.895 161.54 101.873C170.941 104.916 179.506 110.204 188.948 113.123C188.948 112.726 188.919 112.33 188.858 111.938L187.701 102.845C187.696 102.542 187.587 102.25 187.393 102.018C187.084 101.735 186.603 101.812 186.186 101.87C184.523 102.094 182.834 101.711 181.429 100.793L181.688 102.558C180.062 102.163 179.142 101.225 179.013 99.5594C178.744 99.8679 177.874 98.8436 177.865 98.4332C177.856 98.0229 178.035 97.5724 177.831 97.2145C177.658 96.906 177.266 96.7949 177.078 96.5018C176.739 95.9711 177.27 95.0393 177.22 94.413C177.171 93.7867 176.569 93.6015 176.381 93.0122C176.072 92.0434 176.921 91.0345 177.887 90.7167C178.852 90.3989 180.876 90.2292 181.898 90.2015C182.246 90.2015 182.237 90.0565 182.555 89.9145C182.996 89.7202 182.703 89.7541 183.092 89.4702C184.468 88.4583 186.485 88.8316 187.843 89.8868C189.201 90.942 190.003 92.5247 190.728 94.0674C192.1 96.9615 193.351 99.909 194.483 102.91" fill="black"/>
<path d="M202.36 109.337C207.253 103.924 210.495 97.2245 211.702 90.0287C211.801 89.4342 211.886 88.8357 211.958 88.233C212.023 87.6715 212.112 87.0729 211.912 86.5299C211.711 85.9869 211.224 85.6043 210.78 85.2124C210.267 84.7774 209.752 84.3424 209.237 83.9135C205.053 80.4291 200.761 77.0815 196.362 73.8707C191.962 70.6599 187.447 67.5807 182.817 64.6331C181.709 63.9297 180.608 63.1707 179.442 62.5567C178.353 61.9379 177.069 61.7601 175.853 62.06C174.689 62.3871 173.559 62.8252 172.478 63.3681C171.436 63.8591 170.423 64.4102 169.445 65.0188C165.477 67.5157 162.077 70.8185 159.467 74.713C156.659 78.9387 154.67 83.6549 153.605 88.6156C153.333 89.8497 153.102 91.0839 152.948 92.318C152.755 93.56 152.795 94.8269 153.065 96.0544C153.589 98.1061 155.154 99.5377 156.986 100.473C158.949 101.472 161.115 102.015 163.185 102.75C165.718 103.647 168.199 104.693 170.655 105.786C175.471 107.945 180.219 110.275 185.156 112.129C186.39 112.589 187.624 113.015 188.874 113.397C188.917 113.407 188.962 113.406 189.006 113.397C189.049 113.387 189.09 113.368 189.126 113.341C189.161 113.314 189.19 113.28 189.211 113.241C189.232 113.201 189.244 113.158 189.247 113.113C189.247 111.879 188.972 110.589 188.815 109.352L188.327 105.563L188.087 103.669C188.022 103.169 188.028 102.552 187.794 102.095C187.315 101.17 186.016 101.657 185.208 101.651C183.915 101.638 182.652 101.257 181.567 100.553C181.348 100.414 181.145 100.645 181.176 100.861L181.432 102.626L181.765 102.293C181.105 102.16 180.497 101.838 180.016 101.367C179.576 100.862 179.32 100.222 179.29 99.5532C179.289 99.4994 179.272 99.4472 179.242 99.4029C179.211 99.3586 179.169 99.3241 179.119 99.3035C179.07 99.2829 179.015 99.2772 178.962 99.287C178.909 99.2968 178.86 99.3218 178.821 99.3588C178.896 99.2878 178.852 99.3588 178.769 99.2724C178.686 99.186 178.63 99.1613 178.568 99.0965C178.41 98.9456 178.282 98.7654 178.192 98.5659C178.013 98.1092 178.337 97.5971 178.099 97.1219C177.862 96.6468 177.195 96.5419 177.257 95.8878C177.307 95.3879 177.541 94.9097 177.507 94.4006C177.473 93.8915 177.121 93.6139 176.835 93.2375C176.675 93.0055 176.6 92.726 176.621 92.4455C176.643 92.1649 176.759 91.9 176.952 91.6948C177.634 90.834 178.858 90.7383 179.874 90.6211C180.404 90.5594 180.938 90.5162 181.472 90.4884C181.678 90.4904 181.884 90.478 182.089 90.4514C182.308 90.3772 182.515 90.2734 182.706 90.1428C183.045 89.9731 183.23 89.6739 183.573 89.4857C184.075 89.2234 184.64 89.1059 185.205 89.1463C187.868 89.2789 189.324 91.7843 190.351 93.9193C191.771 96.8782 193.048 99.908 194.205 102.978C194.341 103.33 194.915 103.178 194.779 102.817C193.625 99.7599 192.345 96.7455 190.938 93.7959C189.821 91.4541 188.278 88.8902 185.433 88.6063C184.832 88.5387 184.223 88.6181 183.659 88.8377C183.401 88.94 183.156 89.0748 182.931 89.2388C182.802 89.3376 182.703 89.4887 182.601 89.5751C182.474 89.6557 182.341 89.7269 182.203 89.788C182.106 89.8615 181.989 89.9045 181.867 89.9114C181.611 89.9299 181.351 89.93 181.092 89.9485C180.475 89.9886 179.858 90.0472 179.241 90.1336C178.133 90.2909 176.998 90.5408 176.353 91.5528C176.194 91.7883 176.093 92.058 176.057 92.34C176.022 92.6219 176.054 92.9083 176.15 93.1757C176.344 93.6663 176.961 93.981 176.946 94.5395C176.927 95.172 176.532 95.8075 176.754 96.4431C176.877 96.709 177.075 96.9325 177.325 97.0849C177.726 97.3934 177.634 97.7174 177.606 98.1709C177.598 98.4185 177.645 98.6647 177.744 98.8916C177.843 99.1185 177.992 99.3203 178.18 99.4822C178.442 99.7506 178.871 100.056 179.213 99.7414L178.744 99.547C178.782 100.331 179.073 101.081 179.574 101.685C180.129 102.256 180.843 102.646 181.623 102.805C181.669 102.817 181.717 102.816 181.763 102.803C181.809 102.791 181.85 102.767 181.884 102.733C181.918 102.699 181.942 102.658 181.955 102.612C181.967 102.566 181.968 102.518 181.956 102.472L181.694 100.71L181.299 101.019C182.372 101.713 183.608 102.116 184.884 102.188C185.233 102.207 185.583 102.2 185.93 102.166C186.211 102.119 186.494 102.09 186.779 102.08C187.26 102.102 187.374 102.419 187.433 102.839C187.491 103.259 187.528 103.595 187.575 103.974L188.152 108.522C188.247 109.281 188.346 110.037 188.439 110.796C188.563 111.564 188.637 112.339 188.661 113.116L189.034 112.833C184.116 111.29 179.429 109.13 174.752 106.97C170.176 104.866 165.588 102.851 160.797 101.29C158.909 100.673 156.891 100.004 155.385 98.6522C154.618 97.9795 154.051 97.1084 153.747 96.1346C153.435 94.9255 153.375 93.6656 153.568 92.4322C154.166 87.5174 155.66 82.754 157.977 78.3784C160.141 74.2404 163.126 70.5878 166.752 67.6444C168.528 66.2298 170.458 65.0199 172.506 64.0377C173.566 63.498 174.671 63.054 175.81 62.711C176.443 62.5091 177.115 62.4626 177.769 62.5752C178.375 62.7208 178.954 62.9603 179.485 63.2848C181.762 64.5899 183.955 66.0771 186.143 67.521C188.331 68.965 190.503 70.446 192.647 71.9578C196.966 75.0061 201.197 78.1892 205.34 81.5069C206.369 82.3297 207.397 83.1669 208.425 84.0184L209.925 85.2526C210.385 85.6413 211.011 86.0331 211.304 86.5762C211.597 87.1192 211.434 87.7918 211.369 88.3502C211.295 88.9673 211.208 89.5844 211.104 90.186C210.909 91.3276 210.659 92.4599 210.363 93.5799C209.133 98.1468 207.08 102.451 204.303 106.279C203.61 107.24 202.871 108.165 202.085 109.056C201.918 109.247 202.193 109.528 202.366 109.337H202.36Z" fill="black"/>
<path d="M52.7354 101.46C57.0086 105.243 61.4978 106.467 67.1008 106.52C72.4169 106.572 77.881 106.764 83.0521 105.449C91.7374 103.246 98.8584 100.698 105.131 94.4191C108.216 91.3338 113.77 81.6797 108.401 78.1377C106.276 76.737 103.295 77.1566 101.24 75.6695C100.259 74.9567 99.6112 73.883 99.0188 72.8248C98.4264 71.7665 97.8803 70.665 97.9358 69.4926C98.0901 66.2221 102.604 64.6547 103.153 61.4275C103.668 58.4007 100.524 56.1422 97.8124 54.7045C99.099 55.1673 99.2101 57.0956 98.3863 58.1878C97.5625 59.2801 96.2019 59.7953 94.9924 60.4216C92.6938 61.6002 90.4785 63.9513 91.1295 66.4504C91.3671 67.3575 91.9533 68.1319 92.2464 69.0205C92.5395 69.9091 92.3976 71.0846 91.5584 71.4888C90.9413 71.7973 90.1916 71.5628 89.5869 71.2265C86.8995 69.7332 85.6561 66.0833 86.8748 63.2632C87.8005 61.1467 89.7782 59.6997 91 57.7466C92.2218 55.7936 92.2341 52.6157 90.0744 51.7703C89.4172 51.5111 88.6921 51.5358 87.9856 51.4895C86.0887 51.3415 84.268 50.6793 82.7193 49.5742C81.1705 48.469 79.9523 46.9626 79.1954 45.217C78.7001 44.0961 78.4963 42.8681 78.603 41.6473C78.8869 39.1913 80.7381 37.2383 82.5893 35.6524C84.4405 34.0665 86.5293 32.53 87.5937 30.3117C88.6582 28.0933 88.2386 24.9185 86.0109 23.8756C84.1597 23.0056 81.963 23.9312 79.9266 23.6843C78.9224 23.5611 77.9749 23.1516 77.1968 22.5049C76.4188 21.8581 75.8431 21.0013 75.5385 20.0365C75.2338 19.0718 75.2129 18.0397 75.4784 17.0634C75.7438 16.0871 76.2844 15.2078 77.0357 14.5301C74.5489 15.2058 72.1855 16.6374 70.831 18.828C69.4765 21.0186 69.313 24.0237 70.8063 26.1218C71.843 27.5842 73.6356 28.6733 73.8392 30.4413C74.0922 32.6473 71.8152 34.1684 70.0844 35.5599C66.3264 38.5743 64.108 44.1402 66.4714 48.3394C67.6654 50.4652 69.8098 51.9061 71.1241 53.9609C71.9468 55.2833 72.4052 56.7998 72.4529 58.3565C72.5006 59.9132 72.1358 61.4548 71.3956 62.8251C70.6644 64.1395 69.5444 65.2934 68.1036 65.7531C66.6627 66.2128 64.938 65.8827 63.9877 64.7195C63.0374 63.5564 63.1516 61.591 64.3857 60.7363C63.1418 60.6922 61.9112 61.0043 60.8386 61.6358C59.766 62.2673 58.8961 63.192 58.3312 64.3011C57.7663 65.4102 57.5298 66.6575 57.6497 67.8964C57.7696 69.1353 58.2408 70.3142 59.0079 71.2944C59.7885 72.291 60.8406 73.0407 61.6583 74.0064C63.0251 75.6108 63.6637 77.9218 62.9387 79.9026C62.2136 81.8834 59.9459 83.2964 57.9188 82.7071C55.8917 82.1178 54.7347 79.3688 55.9966 77.6811C54.5138 78.0656 53.1756 78.8749 52.1465 80.0096C51.1174 81.1443 50.4423 82.5549 50.204 84.0681C49.9657 85.5813 50.1747 87.1312 50.8053 88.5272C51.4359 89.9232 52.4607 91.1046 53.7536 91.9262C54.238 92.2347 54.7717 92.5031 55.1142 92.9629C55.4567 93.4226 55.5184 94.1631 55.0679 94.5055C54.6175 94.848 53.8554 94.703 53.4975 95.1565C53.0717 95.6996 53.6734 96.4586 54.2688 96.8165C55.1944 97.3842 56.2651 97.7698 57.1228 98.461C57.9805 99.1521 58.613 100.291 58.2736 101.337C58.1249 101.468 57.9358 101.544 57.7377 101.553C57.5397 101.562 57.3445 101.503 57.1845 101.386" fill="#F36E39"/>
<path d="M52.5966 101.602C55.381 104.151 58.8429 105.84 62.5654 106.467C64.5857 106.754 66.6246 106.89 68.6651 106.875C71.0532 106.915 73.4412 106.952 75.8293 106.835C78.1546 106.747 80.467 106.447 82.7374 105.937C84.7089 105.474 86.6712 104.928 88.5996 104.326C92.231 103.2 95.7854 101.772 99.0311 99.7753C101.916 98.0012 104.748 95.8045 106.812 93.0955C108.586 90.7692 110.071 88.0325 110.749 85.1723C111.366 82.5035 111.138 79.5076 108.694 77.8323C107.109 76.7462 105.125 76.6814 103.329 76.1693C102.396 75.9302 101.543 75.4455 100.861 74.7654C100.156 73.9633 99.5663 73.0672 99.1083 72.1028C98.6239 71.1772 98.1981 70.1312 98.4017 69.0668C98.5544 68.3723 98.8718 67.7246 99.3273 67.1786C100.253 65.9938 101.465 65.0682 102.394 63.8834C103.323 62.6986 103.878 61.1714 103.449 59.6318C102.99 57.9688 101.635 56.7099 100.278 55.7411C99.5515 55.2291 98.7918 54.7662 98.0037 54.3558L97.6952 55.0655C98.3554 55.3308 98.5591 56.096 98.5066 56.7439C98.4638 57.1109 98.3451 57.4649 98.1581 57.7836C97.9712 58.1023 97.72 58.3786 97.4206 58.5951C96.711 59.1721 95.844 59.5361 95.0325 59.9403C94.2765 60.3091 93.5679 60.7681 92.9221 61.3071C91.688 62.3469 90.6205 63.8248 90.605 65.5001C90.605 66.4257 90.9722 67.2433 91.3825 68.0548C91.7528 68.786 92.1477 69.5975 91.9009 70.4274C91.2838 72.4854 88.6335 70.1929 87.9856 69.2951C87.0701 68.0316 86.6517 66.4754 86.8101 64.9232C87.1957 61.4182 90.9845 59.749 91.941 56.5063C92.3112 55.2567 92.3359 53.748 91.6325 52.6033C91.3018 52.0652 90.8077 51.6468 90.2225 51.4093C89.3431 51.0545 88.3712 51.1594 87.4456 51.0422C85.7834 50.8131 84.2043 50.1739 82.8508 49.1823C81.4972 48.1907 80.4117 46.8778 79.6921 45.362C78.8406 43.5324 78.674 41.4899 79.615 39.6634C80.4511 38.0436 81.8272 36.7817 83.2033 35.6216C85.6901 33.5266 88.6736 31.1478 88.5379 27.5565C88.4854 26.1866 87.9763 24.7796 86.8656 23.9219C85.3538 22.7556 83.4285 23.1166 81.6729 23.2647C80.7811 23.3804 79.8749 23.3068 79.0134 23.0487C78.2088 22.7676 77.4882 22.2879 76.9184 21.6542C76.35 21.0193 75.9591 20.2457 75.7852 19.4114C75.6113 18.5772 75.6606 17.7118 75.928 16.9027C76.1877 16.0934 76.6496 15.3639 77.2701 14.7831C77.3248 14.7243 77.359 14.6496 77.3678 14.5698C77.3765 14.4901 77.3594 14.4097 77.3189 14.3404C77.2784 14.2712 77.2167 14.2168 77.1429 14.1854C77.0691 14.154 76.9871 14.1472 76.9092 14.166C74.6445 14.817 72.494 15.9864 71.0223 17.8684C70.2945 18.783 69.7878 19.8533 69.5416 20.9959C69.2954 22.1385 69.3164 23.3225 69.603 24.4557C69.9315 25.5336 70.5207 26.5138 71.3185 27.3096C72.0559 28.0995 72.9722 28.8739 73.3301 29.9291C74.1169 32.2431 71.5376 33.94 70.0011 35.1402C66.6226 37.7936 64.1636 42.434 65.373 46.7875C66.0302 49.1693 67.8413 50.7737 69.4488 52.5355C70.3368 53.4464 71.0352 54.5245 71.5036 55.7072C71.9301 56.8824 72.0954 58.1363 71.988 59.3819C71.7906 61.7483 70.4639 64.4388 68.1066 65.2965C67.5846 65.4922 67.0247 65.5662 66.4696 65.5127C65.9146 65.4593 65.3792 65.2798 64.904 64.9879C64.4769 64.706 64.1454 64.3012 63.9531 63.8269C63.7609 63.3526 63.717 62.8312 63.8273 62.3315C63.9231 61.8405 64.1952 61.4015 64.5924 61.0973C64.6695 61.048 64.7287 60.9754 64.7615 60.8901C64.7944 60.8048 64.7991 60.7112 64.775 60.623C64.7509 60.5348 64.6992 60.4566 64.6275 60.3998C64.5558 60.3431 64.4678 60.3107 64.3765 60.3075C63.1795 60.2894 61.997 60.5713 60.937 61.1275C59.8769 61.6837 58.9729 62.4964 58.3076 63.4916C57.6541 64.5323 57.2821 65.725 57.228 66.9527C57.1739 68.1804 57.4396 69.4011 57.999 70.4953C58.6161 71.7017 59.6281 72.5625 60.5846 73.4881C61.5817 74.3865 62.2993 75.5529 62.6517 76.848C62.8214 77.465 62.8637 78.11 62.7762 78.7439C62.6887 79.3777 62.4731 79.9871 62.1427 80.5351C61.8341 81.0147 61.4308 81.4263 60.9576 81.7446C60.4843 82.0629 59.9511 82.2813 59.3905 82.3863C58.815 82.4898 58.2216 82.4184 57.6871 82.1814C57.1525 81.9444 56.7012 81.5525 56.3916 81.0565C55.7745 80.0877 55.6418 78.8505 56.3299 77.8878C56.5458 77.5793 56.191 77.2029 55.8701 77.2893C51.6555 78.4247 48.9219 82.8275 49.9185 87.0976C50.4018 89.178 51.6538 90.9987 53.4234 92.1946C53.8924 92.5031 54.5126 92.7592 54.818 93.259C55.1235 93.7589 54.9754 94.2217 54.4169 94.3636C53.9726 94.4747 53.5191 94.524 53.2013 94.8881C53.0586 95.0636 52.9713 95.2776 52.9505 95.5028C52.9296 95.728 52.9761 95.9544 53.0841 96.1531C53.6487 97.3379 55.2253 97.7235 56.2651 98.3622C56.8821 98.7127 57.3919 99.2247 57.7399 99.8432C57.9044 100.143 57.9914 100.479 57.9929 100.821C57.9929 100.979 57.9929 101.105 57.8633 101.198C57.775 101.234 57.6787 101.245 57.5844 101.232C57.49 101.218 57.401 101.18 57.3264 101.121C56.9809 100.895 56.6569 101.451 57.0025 101.676C57.1812 101.8 57.3895 101.874 57.6063 101.891C57.823 101.909 58.0404 101.868 58.2366 101.775C58.7272 101.528 58.7457 100.914 58.6871 100.423C58.5513 99.2693 57.7368 98.3746 56.7957 97.7698C56.2681 97.4274 55.6943 97.1528 55.1389 96.872C54.6668 96.6252 53.9048 96.3074 53.7628 95.7335C53.6209 95.1596 54.5002 95.1874 54.8551 95.0609C55.081 94.9906 55.2834 94.8597 55.4401 94.6823C55.5968 94.505 55.7018 94.288 55.7436 94.0551C55.9565 92.8795 54.9198 92.2039 54.0621 91.6577C53.1285 91.0772 52.3367 90.295 51.745 89.3684C51.1376 88.4417 50.7432 87.3919 50.5901 86.2945C50.4369 85.1971 50.529 84.0794 50.8595 83.0218C51.2647 81.8335 51.9545 80.7624 52.8688 79.902C53.7831 79.0415 54.894 78.4178 56.1046 78.0853L55.6418 77.4867C54.3861 79.2454 55.3117 81.8772 57.1382 82.8429C59.2702 83.9691 61.9359 82.6825 63.0282 80.6832C64.324 78.3259 63.4632 75.3671 61.7385 73.4758C60.7604 72.4051 59.5355 71.5628 58.8228 70.2701C58.1709 69.0721 57.9231 67.6957 58.1163 66.3455C58.5513 63.3064 61.3466 61.0819 64.3826 61.159L64.1697 60.3723C62.3987 61.665 62.6085 64.3832 64.3147 65.6328C66.348 67.1199 69.0693 66.2931 70.6613 64.5776C72.3799 62.7264 73.1111 60.0576 72.8211 57.5708C72.6779 56.3144 72.2766 55.1012 71.6425 54.0072C70.9467 52.9313 70.1276 51.9404 69.2019 51.0545C68.2763 50.1073 67.3507 49.1478 66.7337 47.9691C66.2068 46.954 65.9236 45.83 65.9068 44.6863C65.8574 42.3415 66.7676 40.0583 68.1252 38.1639C68.8301 37.2095 69.6603 36.3543 70.5934 35.6216C71.5036 34.8934 72.4662 34.1869 73.2067 33.2767C73.8824 32.4436 74.3267 31.4471 74.1848 30.3579C74.0429 29.2688 73.324 28.3648 72.5804 27.5811C71.7443 26.6925 70.8711 25.8533 70.4546 24.6747C70.0441 23.468 70.0011 22.1665 70.3312 20.9353C70.9853 18.3991 73.0339 16.551 75.3634 15.5143C75.9366 15.2625 76.5288 15.0562 77.1344 14.8972L76.7734 14.2802C76.137 14.8772 75.6431 15.61 75.3285 16.424C75.0139 17.238 74.8867 18.1123 74.9561 18.9822C75.0367 19.8191 75.3028 20.6275 75.7351 21.3486C76.1674 22.0696 76.7551 22.6852 77.4553 23.1506C78.1523 23.6246 78.9476 23.9348 79.7816 24.0577C80.7967 24.1996 81.8087 24.0577 82.8207 23.962C83.8327 23.8664 84.9372 23.7831 85.8875 24.2397C86.5421 24.5698 87.0637 25.1143 87.3654 25.7824C87.6699 26.492 87.814 27.2601 87.7873 28.0319C87.7607 28.8036 87.5639 29.56 87.2112 30.2469C86.3349 31.987 84.8262 33.2798 83.3575 34.5139C81.8889 35.7481 80.4419 36.9514 79.396 38.5496C78.8553 39.3474 78.4888 40.2501 78.3203 41.1991C78.1518 42.148 78.185 43.1217 78.4179 44.0569C79.2633 47.4755 82.0679 50.2276 85.3569 51.3599C86.1701 51.6369 87.0149 51.8111 87.8714 51.8783C88.797 51.9492 89.8244 51.8629 90.5742 52.5139C91.6664 53.4703 91.5862 55.2321 91.1727 56.4847C90.6205 58.1662 89.1827 59.4065 88.0874 60.7302C86.9921 62.0538 86.1159 63.5409 86.0325 65.315C85.9653 66.928 86.4544 68.515 87.4179 69.8104C88.2818 70.9705 90.0651 72.5378 91.6294 71.893C91.9623 71.7359 92.245 71.4895 92.446 71.1811C92.6471 70.8728 92.7585 70.5146 92.7679 70.1467C92.845 69.255 92.4748 68.4621 92.0829 67.6784C91.6325 66.7929 91.2653 65.9136 91.4658 64.9016C91.6775 64.0146 92.1265 63.2019 92.7648 62.5505C93.4136 61.8619 94.1701 61.2836 95.0048 60.8382C95.8193 60.3969 96.6894 60.0545 97.473 59.5392C98.7442 58.6877 99.6976 57.2622 99.2008 55.6794C99.1093 55.3705 98.9479 55.0868 98.7291 54.8503C98.5102 54.6138 98.2399 54.4309 97.9389 54.3157C97.5286 54.1522 97.2571 54.8217 97.6304 55.0284C100.216 56.4107 104.227 59.1165 102.342 62.5474C100.997 64.991 97.7322 66.3733 97.5409 69.4247C97.4761 70.4398 97.8495 71.4147 98.2907 72.3033C98.7323 73.2221 99.2679 74.0927 99.8889 74.9012C101.123 76.4624 102.888 76.9684 104.767 77.351C106.38 77.6811 108.056 78.0421 109.173 79.3534C110.003 80.3283 110.277 81.6211 110.243 82.8737C110.169 85.7585 108.784 88.6002 107.269 90.9944C105.6 93.6262 103.348 95.7397 100.836 97.5693C97.8431 99.6982 94.5678 101.399 91.1049 102.623C89.2938 103.283 87.4487 103.857 85.5913 104.366C83.5555 104.968 81.4816 105.433 79.3836 105.758C77.0507 106.057 74.701 106.205 72.349 106.202C70.1615 106.227 67.9585 106.255 65.7741 106.159C63.8972 106.098 62.0336 105.821 60.2205 105.332C58.4767 104.826 56.8143 104.072 55.2839 103.095C54.449 102.564 53.6549 101.971 52.9082 101.321C52.7138 101.154 52.4361 101.429 52.6274 101.602H52.5966Z" fill="#F36E39"/>
<path d="M226.256 61.5509C226.271 63.8875 225.842 66.2058 224.991 68.3818C224.57 69.4581 224.046 70.4914 223.426 71.4672C222.939 72.2293 222.078 73.0778 222.485 74.0558C222.853 74.932 223.923 75.3146 224.775 75.5214L224.54 75.2128C224.497 77.7366 223.787 80.3746 224.744 82.8151C225.546 84.8638 227.388 85.9221 229.489 86.2275C230.687 86.392 231.899 86.4148 233.102 86.2954C233.177 86.2954 233.25 86.2655 233.303 86.2123C233.356 86.159 233.386 86.0868 233.386 86.0116C233.386 85.9363 233.356 85.8641 233.303 85.8108C233.25 85.7576 233.177 85.7277 233.102 85.7277C231.192 85.7277 229.137 85.8573 227.391 84.9255C225.429 83.8765 224.852 81.7013 224.883 79.6187C224.904 78.1439 225.154 76.6845 225.176 75.2128C225.175 75.1434 225.153 75.0759 225.111 75.0204C225.069 74.9648 225.011 74.9241 224.944 74.9043C224.019 74.679 222.516 74.1083 223.21 72.9019C223.534 72.3373 223.932 71.822 224.256 71.2574C225.939 68.3109 226.767 64.954 226.648 61.5632C226.642 61.5155 226.618 61.4716 226.582 61.4398C226.546 61.4079 226.5 61.3904 226.452 61.3904C226.404 61.3904 226.357 61.4079 226.321 61.4398C226.285 61.4716 226.262 61.5155 226.256 61.5632V61.5509Z" fill="black"/>
<path d="M228.054 69.0884L228.011 69.1192H228.036L227.983 69.1408C228.008 69.1308 228.034 69.1236 228.061 69.1192H227.999H228.045H227.98H228.033L227.974 69.0976L228.014 69.1192L227.965 69.0822L228.002 69.1192L227.962 69.0699C227.976 69.0893 227.988 69.11 227.999 69.1316L227.971 69.0699C227.989 69.1155 228.002 69.1632 228.008 69.2118V69.1439C228.014 69.19 228.014 69.2367 228.008 69.2828V69.2118C228.006 69.2386 227.998 69.2647 227.987 69.2889L228.014 69.2272C228.005 69.2444 227.995 69.2609 227.983 69.2766L228.027 69.2211C228.018 69.2328 228.008 69.2432 227.996 69.2519L228.051 69.2087L228.014 69.2303L228.079 69.2025C228.064 69.2053 228.048 69.2053 228.033 69.2025H228.107H228.054H228.129H228.082L228.147 69.2303L228.11 69.2087L228.169 69.2519L228.138 69.2211L228.181 69.2797L228.159 69.2427L228.19 69.3105C228.189 69.2972 228.189 69.2838 228.19 69.2704V69.3445V69.2828V69.3599C228.192 69.3426 228.197 69.3258 228.206 69.3105L228.175 69.3784C228.175 69.3476 228.203 69.3167 228.215 69.2859L228.187 69.3537L228.206 69.3167L228.162 69.3722C228.213 69.3185 228.242 69.2484 228.246 69.1748C228.244 69.113 228.222 69.0535 228.184 69.0051C228.143 68.952 228.084 68.9156 228.018 68.9026C227.953 68.8895 227.884 68.9007 227.826 68.9341C227.764 68.9691 227.712 69.019 227.675 69.0791C227.641 69.1432 227.621 69.2136 227.616 69.2859C227.614 69.3347 227.619 69.3836 227.632 69.4309C227.651 69.4988 227.686 69.5612 227.734 69.6129C227.806 69.6929 227.903 69.745 228.01 69.7602C228.117 69.7754 228.225 69.7528 228.317 69.6962C228.395 69.6394 228.457 69.5623 228.495 69.4732C228.533 69.384 228.546 69.2862 228.533 69.1902C228.524 69.0918 228.498 68.9957 228.456 68.9064C228.413 68.8203 228.347 68.7485 228.264 68.6996C228.17 68.6479 228.06 68.6326 227.956 68.6564C227.878 68.6732 227.809 68.7197 227.764 68.786C227.734 68.8363 227.717 68.8938 227.715 68.9526V69.0051L227.737 69.0545C227.759 69.0914 227.793 69.1205 227.832 69.1378C227.866 69.1484 227.903 69.1484 227.937 69.1378C227.981 69.1321 228.022 69.1127 228.054 69.0822V69.0884Z" fill="black"/>
<path d="M228.258 70.6588L228.949 70.3102C228.995 70.2832 229.028 70.2391 229.042 70.1876C229.055 70.1361 229.047 70.0814 229.02 70.0356C228.993 69.9898 228.949 69.9566 228.898 69.9432C228.846 69.9299 228.791 69.9376 228.746 69.9646L228.073 70.341C228.052 70.3532 228.033 70.3694 228.019 70.3887C228.004 70.408 227.993 70.43 227.987 70.4535C227.98 70.477 227.979 70.5015 227.982 70.5256C227.985 70.5497 227.993 70.573 228.005 70.594C228.031 70.6349 228.072 70.6643 228.119 70.6763C228.166 70.6884 228.216 70.6821 228.258 70.6588Z" fill="black"/>
<path d="M227.515 65.9845C227.521 66.0924 227.55 66.1976 227.601 66.2931C227.664 66.3861 227.733 66.4748 227.808 66.5584C227.87 66.6422 227.939 66.7206 228.014 66.7929L228.261 67.012C228.624 67.3307 229.042 67.5797 229.495 67.7463L229.609 66.8947H229.548C229.609 66.8947 229.616 66.8947 229.566 66.8947C229.535 66.8947 229.471 66.8947 229.443 66.8577L229.384 66.8299L229.27 66.7651C229.128 66.6787 228.992 66.5831 228.86 66.4874C228.826 66.4597 228.823 66.4566 228.86 66.4874L228.807 66.4473L228.705 66.3609L228.53 66.2098C228.4 66.0894 228.277 65.9629 228.156 65.8303C228.083 65.7567 227.986 65.7126 227.882 65.7063C227.778 65.7001 227.676 65.7321 227.595 65.7963C227.513 65.8608 227.458 65.952 227.437 66.0536C227.417 66.1553 227.433 66.2609 227.484 66.3517C227.69 66.7185 227.981 67.0306 228.332 67.2619C228.484 67.3681 228.643 67.4639 228.807 67.5488C229.005 67.6881 229.236 67.7722 229.477 67.7926C229.542 67.7916 229.606 67.7741 229.663 67.7418C229.719 67.7094 229.767 67.6632 229.801 67.6074C229.835 67.5499 229.853 67.4844 229.853 67.4177C229.853 67.3509 229.835 67.2854 229.801 67.2279C229.723 67.1162 229.616 67.0277 229.492 66.9718L229.258 66.8484C229.098 66.7648 228.944 66.6721 228.795 66.5707C228.762 66.5423 228.727 66.5165 228.69 66.4936C228.712 66.4936 228.749 66.5399 228.705 66.4936L228.653 66.4473C228.587 66.3927 228.524 66.334 228.465 66.2715L228.382 66.1758C228.344 66.1357 228.382 66.1758 228.382 66.1974C228.37 66.1767 228.357 66.1571 228.341 66.1388C228.289 66.0647 228.242 65.9862 228.203 65.9043L227.53 66.4257C227.793 66.73 228.09 67.0033 228.415 67.2403C228.738 67.5207 229.138 67.6962 229.563 67.7432C229.668 67.7433 229.77 67.7052 229.849 67.6359C229.928 67.5666 229.979 67.4709 229.992 67.3668C230.005 67.2639 229.981 67.1596 229.925 67.0726C229.868 66.9856 229.783 66.9215 229.684 66.8916L229.545 66.8392C229.613 66.87 229.486 66.8176 229.545 66.8392L229.446 66.796L229.409 66.7806L229.347 66.7528L229.215 66.6849C229.045 66.5985 228.881 66.4967 228.715 66.398C228.548 66.2992 228.406 66.1913 228.236 66.111L227.977 65.9845L227.928 65.9568H227.909C227.882 65.9383 227.857 65.9074 227.826 65.8981C227.826 65.8827 227.795 65.8889 227.826 65.8981C227.813 65.8541 227.785 65.8162 227.746 65.7913C227.708 65.7664 227.662 65.7561 227.616 65.7624C227.57 65.7677 227.527 65.7897 227.496 65.8244C227.465 65.859 227.447 65.9039 227.447 65.9506L227.515 65.9845Z" fill="black"/>
<path d="M227.459 78.653C227.502 78.6376 227.542 78.6146 227.576 78.5851L227.607 78.5543L227.669 78.4987L227.727 78.4432C227.746 78.4278 227.777 78.3877 227.798 78.3846L227.764 78.4092L227.789 78.3907L227.82 78.3691C227.841 78.353 227.864 78.3385 227.888 78.3259C227.939 78.2949 227.993 78.2681 228.048 78.2457L227.974 78.2766C228.093 78.2286 228.217 78.1955 228.344 78.1778L228.434 78.1593C228.502 78.1396 228.563 78.0995 228.608 78.0444C228.654 77.9893 228.681 77.9218 228.687 77.8508C228.685 77.7957 228.67 77.7419 228.642 77.694C228.615 77.6462 228.576 77.6057 228.53 77.5762C228.46 77.5373 228.381 77.5201 228.301 77.5268C228.125 77.5429 227.955 77.5966 227.801 77.6842C227.675 77.7554 227.558 77.8425 227.453 77.9434C227.387 78.0082 227.328 78.0784 227.274 78.1532C227.21 78.2363 227.172 78.3358 227.163 78.4401C227.163 78.4755 227.172 78.5102 227.188 78.5417C227.204 78.5732 227.227 78.6007 227.255 78.6221C227.283 78.6457 227.316 78.6619 227.352 78.6695C227.387 78.677 227.424 78.6756 227.459 78.6653V78.653Z" fill="black"/>
<path d="M234.157 68.314L233.963 64.2814C233.078 63.856 232.338 63.1807 231.833 62.339C231.328 61.4973 231.08 60.5261 231.121 59.5454C229.823 60.7386 228.169 61.4724 226.413 61.6342C226.722 62.0538 226.413 62.7017 225.926 62.9023C225.418 63.0551 224.872 63.0267 224.383 62.8221C223.778 62.6747 223.226 62.3629 222.788 61.9211C222.506 61.5599 222.34 61.1211 222.314 60.6634C222.289 60.2057 222.403 59.7511 222.643 59.3603C222.893 58.9773 223.228 58.6576 223.623 58.4264C224.017 58.1951 224.46 58.0585 224.917 58.0274C223.781 58.4316 222.408 57.324 222.566 56.1268C222.723 54.9297 224.33 54.2108 225.327 54.8927C224.512 53.9455 224.796 52.3133 225.833 51.6191C226.368 51.2958 227 51.1741 227.617 51.276C228.234 51.3778 228.794 51.6964 229.196 52.1745C228.721 51.0268 229.687 49.6229 230.915 49.4224C232.143 49.2218 233.383 50.0117 234 51.1039C234.475 50.061 235.583 49.2774 236.724 49.3884C237.866 49.4995 238.853 50.6627 238.597 51.7796C239.082 51.3415 239.606 50.8817 240.254 50.7923C241.093 50.675 241.911 51.2396 242.327 51.977C242.701 52.7448 242.884 53.5916 242.861 54.4453C244.796 55.4774 246.559 56.8034 248.088 58.3761C248.743 59.0004 249.281 59.7371 249.677 60.5512C250.485 62.3809 250.031 64.5005 249.491 66.4134C248.606 69.5674 247.514 72.6595 246.221 75.6695C246.088 76.0353 245.887 76.3725 245.629 76.663C245.204 77.0174 244.685 77.2394 244.135 77.3016C242.134 77.6888 240.077 77.6888 238.076 77.3016C237.499 77.2188 236.947 77.008 236.462 76.6845C236.221 76.522 236.03 76.2966 235.909 76.0327C235.787 75.7688 235.741 75.4767 235.774 75.1882C235.928 74.3644 236.471 73.8522 237.067 73.2629C237.739 72.5965 238.4 71.7418 238.551 70.7946C238.693 69.94 238.687 68.9434 238.042 68.3603C237.499 67.8728 236.641 67.8666 235.978 68.1751C235.33 68.5257 234.779 69.03 234.373 69.6438C234.277 69.202 234.207 68.7548 234.163 68.3047" fill="black"/>
<path d="M234.361 68.314C234.324 66.9688 234.288 65.6246 234.253 64.2814C234.253 64.2307 234.24 64.1808 234.214 64.1369C234.189 64.093 234.152 64.0566 234.108 64.0315C233.276 63.6215 232.58 62.9801 232.104 62.1844C231.628 61.3886 231.392 60.4722 231.424 59.5454C231.422 59.4862 231.403 59.4289 231.369 59.3802C231.336 59.3315 231.289 59.2935 231.234 59.2707C231.179 59.2479 231.119 59.2414 231.061 59.2518C231.003 59.2622 230.949 59.2891 230.905 59.3294C229.661 60.4615 228.086 61.1635 226.413 61.3318C226.36 61.3338 226.309 61.3491 226.264 61.3764C226.219 61.4037 226.182 61.4421 226.156 61.4879C226.13 61.5336 226.116 61.5853 226.116 61.6379C226.115 61.6905 226.129 61.7423 226.154 61.7885C226.19 61.8604 226.211 61.939 226.216 62.0194C226.221 62.0998 226.21 62.1804 226.183 62.2563C226.155 62.3321 226.113 62.4017 226.058 62.4607C226.004 62.5198 225.937 62.5672 225.864 62.5999C225.484 62.8066 224.985 62.6832 224.599 62.5721C223.874 62.3623 223.056 62.0384 222.748 61.2855C222.131 59.7861 223.51 58.4717 224.923 58.3267L224.846 57.7374C223.858 58.0459 222.624 57.0987 222.896 56.025C222.969 55.803 223.091 55.6001 223.253 55.4312C223.415 55.2622 223.612 55.1313 223.831 55.048C224.049 54.9647 224.284 54.9311 224.517 54.9496C224.75 54.9681 224.976 55.0382 225.179 55.1549C225.487 55.3524 225.75 54.9266 225.546 54.6767C225.237 54.2466 225.11 53.7115 225.194 53.1883C225.278 52.6651 225.565 52.1964 225.993 51.8845C226.938 51.2335 228.267 51.5759 228.98 52.3966C229.027 52.4525 229.092 52.49 229.164 52.5023C229.236 52.5147 229.31 52.5012 229.373 52.4642C229.436 52.4272 229.483 52.3691 229.508 52.3003C229.532 52.2314 229.531 52.1563 229.505 52.0881C229.134 51.1008 229.866 49.9901 230.859 49.7556C232.022 49.4779 233.155 50.2955 233.707 51.2612C233.736 51.3105 233.777 51.3514 233.826 51.3798C233.876 51.4082 233.932 51.4232 233.989 51.4232C234.046 51.4232 234.102 51.4082 234.152 51.3798C234.201 51.3514 234.243 51.3105 234.271 51.2612C234.697 50.385 235.583 49.6445 236.604 49.7186C237.56 49.7772 238.455 50.7151 238.261 51.6963C238.243 51.768 238.25 51.8435 238.278 51.9114C238.307 51.9794 238.358 52.0361 238.421 52.0733C238.485 52.1104 238.559 52.1259 238.633 52.1174C238.706 52.109 238.775 52.0771 238.828 52.0264C239.489 51.4309 240.26 50.8354 241.167 51.3075C242.022 51.7549 242.355 52.7329 242.454 53.6339C242.491 53.9702 242.38 54.5132 242.676 54.7384C243.055 55.0254 243.546 55.2197 243.953 55.4758C244.724 55.9574 245.462 56.4892 246.162 57.0679C247.532 58.2064 249.13 59.5886 249.593 61.3874C250.056 63.1861 249.495 65.1422 248.976 66.8978C248.409 68.8663 247.757 70.809 247.023 72.726C246.653 73.6948 246.273 74.6636 245.851 75.6108C245.709 76.0305 245.432 76.3916 245.064 76.6383C244.669 76.8306 244.244 76.9557 243.808 77.0085C241.772 77.3978 239.676 77.3505 237.659 76.8697C236.82 76.6506 235.823 76.0613 236.116 75.0462C236.363 74.2286 237.113 73.7041 237.659 73.087C238.31 72.4022 238.734 71.5341 238.875 70.6002C238.967 69.8227 238.921 68.9372 238.387 68.3171C238.108 68.0278 237.753 67.824 237.362 67.7295C236.971 67.635 236.562 67.6536 236.181 67.7833C235.277 68.0517 234.639 68.7829 234.083 69.5111L234.645 69.5851C234.533 69.1464 234.463 68.6981 234.435 68.2461C234.37 67.8574 233.781 68.0209 233.846 68.4065C233.872 68.8584 233.942 69.3067 234.052 69.7456C234.069 69.8035 234.102 69.8553 234.147 69.8947C234.193 69.9341 234.249 69.9592 234.309 69.9671C234.368 69.975 234.429 69.9652 234.483 69.939C234.538 69.9128 234.583 69.8713 234.614 69.8196C235.083 69.2026 235.663 68.5392 236.465 68.3479C237.267 68.1566 237.986 68.4806 238.211 69.2735C238.397 70.0165 238.322 70.8007 237.999 71.495C237.614 72.1922 237.113 72.8183 236.518 73.3462C235.99 73.8125 235.615 74.4278 235.444 75.111C235.395 75.4554 235.441 75.8066 235.577 76.1268C235.713 76.4471 235.934 76.7241 236.215 76.9283C236.832 77.4189 237.65 77.5762 238.412 77.7027C239.326 77.8532 240.25 77.9265 241.176 77.9218C242.076 77.9171 242.974 77.8397 243.861 77.6904C244.567 77.57 245.339 77.4219 245.872 76.8974C246.406 76.3729 246.705 75.4072 247.008 74.6729C247.364 73.8152 247.701 72.9513 248.02 72.0812C248.653 70.3637 249.221 68.6246 249.723 66.8639C250.18 65.2718 250.618 63.5965 250.405 61.9273C250.167 60.0761 248.976 58.7031 247.662 57.4628C246.271 56.1564 244.715 55.0381 243.034 54.1368L243.207 54.4453C243.157 53.1063 242.913 51.6469 241.719 50.8416C241.478 50.6749 241.205 50.5584 240.917 50.4991C240.629 50.4397 240.332 50.4387 240.044 50.4961C239.381 50.6411 238.847 51.1131 238.36 51.5513L238.924 51.8814C239.02 51.2482 238.863 50.6027 238.488 50.0835C238.113 49.5643 237.55 49.2129 236.919 49.1046C235.573 48.8763 234.281 49.7803 233.716 50.9558H234.281C233.571 49.7216 232.062 48.7467 230.6 49.1879C229.35 49.5643 228.425 51.0021 228.909 52.2732L229.434 51.9647C228.508 50.8786 226.715 50.5578 225.549 51.468C225.019 51.9002 224.679 52.5225 224.601 53.2021C224.523 53.8816 224.714 54.5647 225.133 55.1056L225.5 54.6304C224.352 53.8961 222.587 54.5965 222.309 55.954C222.001 57.4288 223.621 58.7586 225.018 58.3144C225.327 58.2187 225.29 57.6973 224.938 57.7281C224.43 57.7631 223.938 57.9153 223.499 58.1728C223.06 58.4303 222.687 58.7861 222.408 59.2122C222.152 59.6331 222.023 60.1193 222.036 60.612C222.05 61.1047 222.206 61.5829 222.485 61.989C222.811 62.4072 223.245 62.7275 223.741 62.9146C224.272 63.1689 224.85 63.3077 225.438 63.3219C226.314 63.291 227.255 62.3963 226.672 61.5015L226.41 61.9551C228.249 61.787 229.983 61.0221 231.347 59.7768L230.831 59.5639C230.79 60.597 231.052 61.6197 231.584 62.5058C232.117 63.3918 232.898 64.1024 233.83 64.5498L233.685 64.2999C233.784 65.6451 233.878 66.9893 233.966 68.3325C233.984 68.5917 234.382 68.5978 234.373 68.3325L234.361 68.314Z" fill="black"/>
<path d="M232.883 86.0671C232.94 86.2649 233.032 86.4509 233.155 86.6163L233.488 87.1716C233.713 87.5542 233.926 87.9461 234.142 88.3348C234.358 88.7236 234.558 89.0907 234.759 89.4764C234.858 89.6677 234.953 89.8621 235.049 90.0564C235.127 90.2714 235.256 90.4641 235.425 90.618C235.626 90.7692 235.888 90.5624 235.894 90.3496C235.874 90.1288 235.799 89.9167 235.675 89.7325C235.573 89.5289 235.469 89.3252 235.367 89.1154C235.154 88.7267 234.935 88.3379 234.703 87.9584C234.472 87.5789 234.237 87.2303 233.991 86.8754C233.858 86.6872 233.722 86.5021 233.586 86.317C233.477 86.1362 233.333 85.9798 233.161 85.8573C233.13 85.8412 233.095 85.8342 233.061 85.8371C233.026 85.8401 232.993 85.8528 232.966 85.8739C232.938 85.895 232.917 85.9235 232.905 85.9561C232.893 85.9887 232.891 86.024 232.898 86.0578L232.883 86.0671Z" fill="black"/>
<path d="M244.796 75.9533C243.956 77.6811 245.45 79.4058 246.378 80.7418C246.974 81.6026 247.579 82.4541 248.18 83.3088C248.782 84.1634 249.35 85.0613 250.013 85.8665C250.25 86.1566 250.723 85.7802 250.531 85.4654C250.041 84.6663 249.436 83.9228 248.89 83.1576C248.344 82.3924 247.764 81.581 247.19 80.7973C246.668 80.0846 246.116 79.3811 245.647 78.6376C245.178 77.894 244.848 77.0023 245.132 76.0952C245.19 75.9039 244.894 75.7713 244.802 75.9564L244.796 75.9533Z" fill="black"/>
<path d="M230.393 96.6252C230.979 94.1569 232.707 92.099 234.549 90.3341C238.461 86.5971 243.091 83.6927 248.159 81.797C250.901 80.7726 255.847 79.5231 258.569 80.606C261.29 81.689 261.296 85.7616 259.707 88.2207C267.522 93.8761 276.331 107.115 280.36 115.872C285.019 126.016 289.691 125.948 289.678 133.739C289.678 140.588 285.05 143.452 279.706 147.737C274.363 152.023 267.624 154.281 260.846 155.259C256.835 155.836 252.737 155.99 248.813 155.086C244.888 154.182 247.255 154.877 244.802 151.668C242.105 148.144 245.558 144.834 244.802 140.462C242.556 127.596 227.382 110.626 230.393 96.6252Z" fill="#F36E39"/>
<path d="M230.603 96.6838C231.387 93.6694 233.738 91.3646 236.018 89.3869C238.39 87.3439 240.992 85.5837 243.771 84.1418C246.293 82.7985 248.977 81.7824 251.756 81.1182C253.081 80.7945 254.437 80.6156 255.801 80.5844C256.896 80.5844 258.186 80.6646 259.087 81.3588C261.065 82.883 260.515 86.1874 259.346 88.0201C259.293 88.1165 259.28 88.2295 259.308 88.3357C259.336 88.4419 259.404 88.5332 259.497 88.5909C261.643 90.2089 263.619 92.0396 265.396 94.0551C267.433 96.3135 269.339 98.687 271.104 101.164C274.501 105.811 277.451 110.77 279.913 115.973C281.174 118.721 282.754 121.31 284.621 123.687C285.855 125.254 287.265 126.741 288.185 128.528C289.225 130.539 289.447 132.918 289.222 135.143C288.956 137.778 287.725 140.079 285.926 141.992C283.998 144.041 281.678 145.695 279.49 147.438C276.837 149.526 273.878 151.191 270.716 152.374C267.552 153.564 264.269 154.405 260.923 154.883C257.186 155.435 253.327 155.623 249.603 154.883C248.918 154.747 248.239 154.574 247.56 154.426C247.262 154.362 246.969 154.277 246.684 154.17C246.557 154.111 246.616 154.17 246.548 154.065C246.619 154.167 246.474 153.914 246.489 153.948C246.412 153.784 246.289 153.433 246.181 153.207C245.672 152.115 244.731 151.27 244.33 150.122C243.913 148.913 244.114 147.654 244.404 146.42C244.712 145.078 245.126 143.751 245.221 142.366C245.261 141.055 245.091 139.747 244.718 138.49C244.05 136.035 243.174 133.64 242.102 131.332C239.763 126.087 236.931 121.089 234.555 115.869C232.337 110.994 230.294 105.687 230.341 100.263C230.347 99.0652 230.474 97.8712 230.72 96.6992C230.816 96.2395 230.103 96.0451 230.017 96.5048C228.894 101.799 230.282 107.239 232.198 112.178C234.327 117.67 237.187 122.835 239.773 128.117C241.017 130.585 242.122 133.121 243.08 135.714C243.95 138.16 244.802 140.807 244.339 143.427C243.888 145.991 242.593 148.672 243.987 151.171C244.506 152.097 245.261 152.871 245.653 153.871C245.835 154.343 245.99 154.692 246.486 154.892C246.842 155.021 247.206 155.124 247.575 155.201C248.325 155.373 249.072 155.552 249.828 155.685C251.703 156.009 253.606 156.148 255.508 156.098C259.17 156.005 262.81 155.488 266.353 154.556C269.668 153.725 272.859 152.461 275.843 150.795C278.62 149.221 281.089 147.157 283.557 145.142C285.578 143.489 287.568 141.656 288.762 139.28C289.996 136.855 290.264 134.035 289.869 131.369C289.538 129.396 288.712 127.538 287.469 125.97C286.031 124.051 284.476 122.246 283.19 120.216C281.561 117.643 280.413 114.835 278.981 112.151C277.55 109.466 276.035 106.906 274.393 104.406C271.104 99.331 267.343 94.3574 262.836 90.2632C261.909 89.4126 260.934 88.6153 259.917 87.8751L260.065 88.4428C261.274 86.5299 261.731 83.6266 260.42 81.655C258.945 79.4305 255.742 79.6897 253.444 80.0445C250.539 80.538 247.72 81.4461 245.073 82.7411C242.034 84.1634 239.187 85.9652 236.601 88.1034C233.92 90.328 230.989 93.0246 230.183 96.5573C230.176 96.6102 230.188 96.6641 230.217 96.7088C230.246 96.7535 230.291 96.786 230.343 96.8C230.394 96.814 230.449 96.8087 230.497 96.785C230.545 96.7614 230.583 96.721 230.603 96.6714V96.6838Z" fill="#F36E39"/>
<path d="M239.541 192.848L248.797 156.691C249.146 155.33 249.51 153.936 250.34 152.8C250.899 152.089 251.548 151.454 252.271 150.912C256.949 147.153 262.044 143.944 267.454 141.347C270.153 140.039 272.916 138.869 275.732 137.839C278.509 136.824 281.305 135.547 284.27 135.278C286.966 135.038 288.234 136.957 289.061 139.289C291.884 147.24 292.819 155.975 293.337 164.355C293.896 173.392 293.646 182.463 293.029 191.491C292.983 192.172 292.649 193.089 291.98 192.953" fill="black"/>
<path d="M239.739 192.904C242.296 183.425 244.675 173.898 247.125 164.389L248.976 157.218C249.206 156.148 249.532 155.1 249.948 154.087C250.423 153.106 251.112 152.244 251.963 151.563C255.371 148.727 259.042 146.223 262.925 144.084C266.969 141.813 271.189 139.87 275.544 138.274C277.633 137.506 279.697 136.621 281.857 136.065C283.56 135.627 285.615 135.167 287.037 136.5C288.33 137.713 288.824 139.629 289.333 141.258C289.997 143.388 290.551 145.55 290.993 147.737C291.871 152.245 292.463 156.804 292.767 161.387C293.498 171.053 293.356 180.744 292.748 190.414C292.723 190.784 292.785 192.749 292.045 192.648C291.653 192.595 291.483 193.194 291.881 193.246C292.69 193.357 293.131 192.66 293.279 191.944C293.36 191.434 293.406 190.918 293.418 190.401C293.463 189.737 293.506 189.074 293.547 188.411C293.705 185.909 293.831 183.404 293.905 180.898C294.056 175.839 294.038 170.772 293.769 165.715C293.523 161.001 293.131 156.284 292.418 151.618C292.057 149.264 291.607 146.923 291.03 144.609C290.544 142.459 289.888 140.351 289.067 138.305C288.45 136.871 287.485 135.479 285.908 135.032C285.013 134.779 284.088 134.887 283.184 135.032C282.014 135.235 280.864 135.534 279.743 135.926C277.476 136.698 275.226 137.583 273.005 138.478C270.784 139.373 268.636 140.329 266.526 141.397C262.4 143.444 258.461 145.846 254.752 148.576C253.833 149.255 252.93 149.955 252.043 150.677C251.192 151.312 250.451 152.082 249.849 152.958C249.308 153.894 248.911 154.906 248.671 155.96C248.362 157.163 248.054 158.375 247.745 159.585C245.232 169.458 242.731 179.325 240.245 189.186C239.936 190.383 239.646 191.58 239.356 192.78C239.343 192.832 239.351 192.887 239.379 192.934C239.406 192.98 239.45 193.014 239.501 193.028C239.553 193.043 239.608 193.037 239.655 193.011C239.703 192.985 239.738 192.942 239.754 192.891L239.739 192.904Z" fill="black"/>
<path d="M235.839 89.1555C228.382 93.9347 221.686 111.679 216.885 122.866C217.459 122.129 219.996 123.699 219.415 122.968C216.068 118.735 222.64 122.425 218.567 118.886C217.641 118.071 195.556 96.292 194.332 96.5079C193.998 96.5665 193.653 96.7054 193.332 96.5943C192.807 96.4154 192.672 95.7026 192.2 95.4095C191.644 95.0609 190.928 95.4373 190.41 95.8384C188.779 97.0988 187.408 98.6631 186.371 100.445C186.063 100.988 185.785 101.704 186.168 102.2C186.405 102.509 186.853 102.648 186.991 103.015C187.174 103.49 186.723 103.941 186.458 104.379C185.912 105.283 186.149 106.446 186.485 107.446C187.091 109.114 187.819 110.735 188.664 112.296C190.589 116.06 200.11 130.539 202.89 133.723C206.88 138.299 212.908 141.486 219.03 141.671C225.413 141.863 230.473 137.562 234.361 132.952C238.406 128.154 242.691 122.576 245.641 117.029C246.082 116.202 242.364 110.599 242.034 109.722" fill="#F36E39"/>
<path d="M235.746 88.9951C234.055 90.0657 232.661 91.5498 231.427 93.1048C229.92 95.0431 228.564 97.0948 227.373 99.2415C224.596 104.157 222.3 109.337 220.091 114.526C218.934 117.251 217.802 119.991 216.636 122.712C216.509 123.002 216.867 123.372 217.117 123.085C217.367 122.798 218.107 123.085 218.419 123.181C218.731 123.276 219.24 123.566 219.579 123.455C220.227 123.243 219.412 122.446 219.249 122.206C219.014 121.901 218.844 121.55 218.752 121.175C218.752 121.104 218.752 121.117 218.798 121.07C218.734 121.12 218.835 121.055 218.854 121.046C218.792 121.074 218.943 121.021 218.974 121.015C219.179 120.983 219.385 120.964 219.591 120.956C220.156 120.898 220.477 120.521 220.125 119.987C219.743 119.404 219.147 118.982 218.644 118.51C218.336 118.229 218.052 117.942 217.756 117.658L214.263 114.264C210.813 110.938 207.348 107.628 203.865 104.332C202.239 102.79 200.607 101.278 198.95 99.7846C197.83 98.7726 196.707 97.7544 195.507 96.8411C195.226 96.5852 194.905 96.3768 194.557 96.2241C194.174 96.0976 193.792 96.4246 193.415 96.2827C193.107 96.1624 192.943 95.7428 192.752 95.499C192.638 95.3386 192.49 95.2058 192.318 95.1102C192.146 95.0147 191.955 94.9588 191.758 94.9467C190.802 94.9128 189.941 95.7674 189.29 96.3598C188.523 97.0517 187.824 97.8152 187.201 98.6399C186.637 99.3835 185.936 100.26 185.726 101.188C185.672 101.383 185.66 101.588 185.691 101.788C185.722 101.988 185.795 102.179 185.905 102.348C186.106 102.635 186.692 102.851 186.726 103.222C186.748 103.462 186.523 103.721 186.399 103.904C186.258 104.097 186.136 104.303 186.035 104.521C185.867 104.945 185.799 105.402 185.834 105.857C185.896 106.896 186.303 107.905 186.695 108.856C187.309 110.335 188.008 111.777 188.79 113.175C189.913 115.19 191.157 117.143 192.394 119.09C193.998 121.603 195.637 124.094 197.309 126.562C198.7 128.614 200.104 130.666 201.61 132.634C205.772 138.083 212.446 141.977 219.409 141.998C227.582 142.023 233.213 135.093 237.832 129.256C240.64 125.705 243.305 122.011 245.514 118.053C245.823 117.525 246.153 117.106 246.027 116.492C245.914 116.05 245.753 115.623 245.545 115.218C245.002 114.054 244.345 112.944 243.694 111.824L242.849 110.398C242.75 110.228 242.651 110.062 242.559 109.892C242.519 109.821 242.485 109.75 242.448 109.682C242.411 109.615 242.417 109.624 242.404 109.596C242.432 109.67 242.361 109.51 242.404 109.596C242.232 109.149 241.5 109.343 241.676 109.797C242.039 110.605 242.466 111.383 242.954 112.123C243.598 113.212 244.249 114.301 244.805 115.44C245.008 115.824 245.169 116.23 245.283 116.649C245.293 116.689 245.3 116.729 245.305 116.769C245.308 116.8 245.308 116.831 245.305 116.862C245.305 116.837 245.305 116.763 245.305 116.862C245.354 116.702 245.249 116.961 245.231 116.995C245.175 117.096 245.12 117.198 245.067 117.303C244.91 117.587 244.759 117.871 244.592 118.155C243.512 120.062 242.327 121.907 241.078 123.708C239.828 125.51 238.455 127.337 237.067 129.092C235.789 130.706 234.5 132.32 233.121 133.85C230.699 136.537 227.848 139.04 224.429 140.363C220.866 141.739 217.024 141.474 213.427 140.305C209.724 139.077 206.386 136.945 203.714 134.103C202.32 132.619 201.153 130.919 199.984 129.256C198.367 126.957 196.8 124.628 195.254 122.28C193.77 120.024 192.304 117.757 190.894 115.455C189.568 113.351 188.396 111.152 187.389 108.877C186.988 107.933 186.532 106.893 186.464 105.857C186.42 105.392 186.517 104.926 186.742 104.518C186.967 104.135 187.309 103.786 187.359 103.32C187.369 103.136 187.332 102.953 187.251 102.788C187.17 102.622 187.048 102.481 186.896 102.376C186.745 102.274 186.602 102.16 186.47 102.034C186.387 101.919 186.334 101.785 186.318 101.644C186.301 101.503 186.32 101.36 186.374 101.229C186.542 100.758 186.778 100.316 187.075 99.9142C187.356 99.4791 187.661 99.0564 187.985 98.6492C188.632 97.8488 189.355 97.1131 190.145 96.4524C190.506 96.0969 190.932 95.815 191.4 95.6224C191.95 95.4496 192.215 95.7613 192.502 96.1809C192.66 96.4638 192.9 96.6927 193.19 96.8381C193.36 96.9085 193.544 96.9371 193.727 96.9214C193.84 96.9114 193.952 96.8939 194.063 96.8689L194.316 96.8134C194.464 96.7856 194.483 96.7794 194.372 96.7979C194.372 96.7979 194.298 96.7609 194.393 96.7979L194.492 96.8504C195.418 97.3718 196.198 98.1339 197.013 98.8404C198.475 100.112 199.904 101.426 201.332 102.743C204.809 105.974 208.231 109.26 211.643 112.555C213.828 114.665 215.985 116.81 218.191 118.895C218.681 119.295 219.137 119.735 219.554 120.21C219.608 120.28 219.652 120.358 219.684 120.441C219.647 120.441 219.767 120.271 219.758 120.274C219.625 120.296 219.656 120.302 219.576 120.308C219.496 120.315 219.357 120.308 219.249 120.333C218.755 120.373 218.178 120.518 218.16 121.12C218.184 121.5 218.314 121.865 218.536 122.175C218.683 122.449 218.846 122.713 219.024 122.968C219.067 123.04 219.118 123.107 219.175 123.168L219.196 123.199C219.27 123.338 219.332 123.23 219.385 122.875C219.36 122.814 219.523 122.931 219.419 122.875C219.381 122.86 219.342 122.85 219.301 122.844C218.592 122.644 217.29 121.95 216.666 122.666L217.151 123.039C219.28 118.068 221.304 113.055 223.544 108.134C225.728 103.339 228.073 98.5196 231.168 94.2495C232.5 92.3982 234.022 90.6026 235.931 89.3437C236.129 89.2141 235.931 88.8964 235.746 89.0352V88.9951Z" fill="#F36E39"/>
<path d="M187.679 103.003C189.304 100.943 191.065 98.9937 192.949 97.1682C193.122 97.0016 192.857 96.7362 192.684 96.9028C190.792 98.7237 189.039 100.683 187.439 102.765C187.303 102.941 187.55 103.194 187.689 103.015L187.679 103.003Z" fill="white"/>
<path d="M218.585 118.087C217.759 119.619 217.093 121.233 216.599 122.903C216.583 122.961 216.59 123.022 216.62 123.075C216.649 123.127 216.698 123.165 216.756 123.181C216.814 123.197 216.875 123.189 216.927 123.16C216.979 123.13 217.018 123.081 217.034 123.023C217.501 121.384 218.121 119.793 218.885 118.269C218.987 118.065 218.684 117.883 218.576 118.087H218.585Z" fill="white"/>
<path d="M246.554 115.563C245.497 117.414 244.401 119.25 243.265 121.07C242.704 121.965 242.139 122.86 241.562 123.745C240.985 124.631 240.297 125.519 239.782 126.457C239.652 126.689 239.982 126.976 240.164 126.766C240.798 125.924 241.383 125.046 241.917 124.137C242.5 123.212 243.077 122.311 243.639 121.385C244.757 119.534 245.836 117.66 246.875 115.764C246.889 115.724 246.888 115.68 246.874 115.641C246.86 115.601 246.832 115.568 246.796 115.546C246.76 115.524 246.718 115.515 246.676 115.52C246.634 115.526 246.596 115.545 246.567 115.575L246.554 115.563Z" fill="white"/>
<path d="M256.705 91.9971C255.875 92.3057 255.471 93.148 255.505 93.9965C255.539 95.0979 256.313 95.9618 257.078 96.6745C258.023 97.5245 258.92 98.4258 259.766 99.3742C260.628 100.378 261.433 101.428 262.178 102.521C263.721 104.74 265.06 107.075 266.436 109.386C267.956 111.935 269.477 114.483 270.999 117.032L276.198 125.726C276.225 125.772 276.268 125.805 276.319 125.818C276.37 125.831 276.424 125.824 276.47 125.797C276.515 125.771 276.548 125.727 276.562 125.676C276.575 125.625 276.567 125.571 276.541 125.526C273.632 120.649 270.723 115.772 267.812 110.895C265.205 106.535 262.749 101.923 259.232 98.211C258.76 97.7112 258.269 97.2361 257.76 96.7794C257.251 96.3565 256.791 95.8785 256.387 95.354C255.77 94.487 255.548 92.8148 256.807 92.3581C257.032 92.2779 256.933 91.9169 256.705 91.9971Z" fill="white"/>
<path d="M276.837 128.481L277.985 127.618C278.03 127.59 278.063 127.546 278.076 127.495C278.089 127.443 278.082 127.389 278.056 127.343C278.042 127.32 278.025 127.3 278.004 127.285C277.983 127.269 277.959 127.257 277.933 127.251C277.908 127.244 277.881 127.242 277.855 127.246C277.829 127.25 277.804 127.259 277.781 127.272L276.63 128.13C276.584 128.157 276.55 128.202 276.536 128.254C276.523 128.307 276.53 128.362 276.558 128.409C276.585 128.456 276.63 128.489 276.682 128.503C276.735 128.517 276.79 128.509 276.837 128.481Z" fill="white"/>
<path d="M277.093 130.823L277.954 130.536C278.005 130.52 278.048 130.485 278.074 130.438C278.099 130.39 278.105 130.335 278.091 130.284C278.077 130.232 278.043 130.188 277.996 130.161C277.95 130.134 277.895 130.126 277.843 130.138L276.982 130.425C276.955 130.432 276.93 130.444 276.908 130.46C276.885 130.477 276.867 130.498 276.853 130.522C276.839 130.546 276.83 130.572 276.826 130.599C276.822 130.627 276.824 130.655 276.832 130.682C276.839 130.708 276.852 130.733 276.869 130.755C276.887 130.777 276.908 130.795 276.932 130.808C276.957 130.821 276.984 130.829 277.011 130.832C277.039 130.834 277.067 130.832 277.093 130.823Z" fill="white"/>
<path d="M252.549 154.028C253.446 156.182 254.707 158.165 256.276 159.89C256.673 160.326 257.085 160.743 257.51 161.14C257.729 161.34 257.951 161.532 258.177 161.723C258.325 161.846 258.553 162.121 258.751 162.143C259.084 162.183 259.324 161.806 259.368 161.526C259.404 161.362 259.386 161.191 259.316 161.039C259.245 160.887 259.127 160.762 258.979 160.683C258.947 160.666 258.912 160.655 258.876 160.653C258.84 160.651 258.804 160.657 258.77 160.67C258.737 160.684 258.707 160.705 258.683 160.732C258.658 160.759 258.64 160.79 258.63 160.825C256.307 168.369 254.178 175.971 252.191 183.611C251.63 185.766 251.086 187.926 250.559 190.09C250.548 190.14 250.558 190.193 250.585 190.237C250.612 190.282 250.654 190.314 250.704 190.328C250.754 190.341 250.807 190.336 250.853 190.311C250.899 190.287 250.934 190.247 250.951 190.198C252.901 182.549 254.962 174.928 257.183 167.366C257.813 165.231 258.447 163.097 259.087 160.964L258.738 161.106C258.794 161.135 258.84 161.178 258.871 161.232C258.902 161.286 258.917 161.348 258.915 161.41C258.912 161.472 258.892 161.532 258.856 161.583C258.821 161.635 258.771 161.674 258.714 161.698L258.942 161.76C256.285 159.691 254.191 156.987 252.854 153.895C252.774 153.71 252.447 153.846 252.527 154.034L252.549 154.028Z" fill="#F36E39"/>
<path d="M267.902 152.359C269.053 151.613 270.317 151.057 271.644 150.711C272.972 150.388 274.34 150.257 275.705 150.323C276.066 150.323 276.05 149.807 275.705 149.77C272.928 149.462 269.969 150.421 267.71 152.029C267.513 152.171 267.71 152.495 267.902 152.359Z" fill="#F36E39"/>
<path d="M287.423 149.561C288.046 149.419 288.679 149.326 289.317 149.283C289.953 149.246 290.579 149.298 291.215 149.323C291.48 149.323 291.545 148.903 291.28 148.854C290.618 148.753 289.945 148.739 289.28 148.814C288.615 148.868 287.958 148.995 287.321 149.193C287.276 149.21 287.24 149.243 287.218 149.286C287.196 149.328 287.191 149.377 287.204 149.423C287.217 149.469 287.247 149.509 287.287 149.534C287.327 149.56 287.376 149.569 287.423 149.561Z" fill="#F36E39"/>
<path d="M199.691 101.63C201.739 97.2268 204.223 92.8425 207.491 89.2203C208.337 88.2639 209.277 87.3956 210.298 86.6286C210.607 86.4003 210.314 85.8789 209.99 86.1041C208.061 87.474 206.479 89.3376 205.102 91.2412C203.607 93.3483 202.267 95.5612 201.092 97.8624C200.474 99.0348 199.894 100.22 199.342 101.423C199.234 101.66 199.589 101.873 199.7 101.63H199.691Z" fill="#F36E39"/>
<path d="M171.139 62.7048C163.127 56.4363 153.212 53.0962 143.041 53.2389C140.619 53.279 137.305 53.6308 136.191 56.1793C135.537 57.6757 136.012 59.4251 137.098 60.5882C138.332 61.8995 140.211 62.3376 141.945 62.1957C142.026 62.1929 142.103 62.1644 142.166 62.1144C142.229 62.0645 142.274 61.9956 142.295 61.918C142.316 61.8404 142.312 61.7581 142.283 61.6831C142.254 61.6082 142.201 61.5445 142.134 61.5015C140.195 60.2685 137.903 59.711 135.614 59.9156C134.618 60.0113 133.414 60.181 132.609 60.8258C132.247 61.1264 132.011 61.5512 131.947 62.017C131.882 62.4828 131.994 62.9559 132.26 63.3435C132.942 64.4573 134.275 64.7133 135.469 64.8861C135.83 64.9355 136.136 64.4357 135.744 64.2382C133.078 62.8992 130.073 62.9022 127.219 63.5625C125.709 63.9277 124.232 64.4189 122.804 65.0311C121.509 65.5388 120.256 66.1485 119.058 66.8546C118.049 67.4717 117.034 68.2893 116.491 69.3753C116.214 69.9247 116.084 70.5366 116.113 71.1513C116.142 71.766 116.33 72.3627 116.658 72.8834C117.377 74.0651 118.568 74.9197 119.743 75.6232C120.967 76.3491 122.269 76.9339 123.624 77.3664C126.762 78.3876 130.073 78.7363 133.34 79.0664L133.248 78.3815C131.189 78.7683 129.171 79.3457 127.219 80.1062C125.485 80.785 123.668 81.5409 122.196 82.701C120.962 83.6698 120.005 85.0859 120.345 86.7119C120.684 88.3379 122.122 89.4301 123.544 90.0194C125.63 90.8599 127.939 90.9687 130.094 90.3279C130.455 90.22 130.403 89.5875 130.002 89.6399C126.218 90.1155 122.68 91.7691 119.888 94.3667C118.51 95.6458 117.348 97.1387 116.445 98.788C115.794 99.9789 115.164 102.099 116.642 102.972C117.142 103.222 117.709 103.306 118.259 103.209C118.916 103.141 119.573 103.043 120.224 102.929C121.58 102.698 122.92 102.382 124.235 101.981L123.97 101.364C121.369 103.32 118.509 105.496 118.108 108.97C117.999 109.712 118.054 110.469 118.27 111.188C118.486 111.907 118.857 112.569 119.357 113.129C120.35 114.098 121.673 114.655 123.06 114.69C126.411 114.869 129.061 112.61 131.304 110.404C133.772 107.985 136.241 105.597 139.017 103.552C142.103 101.284 145.521 99.4359 149.261 98.5226C149.34 98.4923 149.406 98.4333 149.444 98.3572C149.483 98.2811 149.492 98.1934 149.469 98.1112C149.446 98.029 149.393 97.9583 149.321 97.9129C149.249 97.8674 149.163 97.8505 149.079 97.8655C142.741 99.4081 137.447 103.505 132.813 107.933C130.57 110.077 128.348 112.87 125.244 113.74C123.929 114.139 122.517 114.089 121.233 113.598C120.594 113.338 120.033 112.917 119.604 112.376C119.174 111.836 118.892 111.194 118.784 110.512C118.136 106.69 121.56 103.947 124.288 101.972C124.596 101.756 124.424 101.229 124.023 101.355C122.964 101.664 121.894 101.917 120.811 102.12C119.783 102.365 118.732 102.501 117.676 102.524C115.732 102.466 116.639 99.9851 117.192 99.004C118.887 96.0345 121.416 93.6282 124.467 92.0835C126.194 91.1983 128.061 90.621 129.986 90.3773L129.891 89.6893C128.101 90.2167 126.195 90.2016 124.414 89.6461C123.057 89.2172 121.542 88.3225 121.082 86.8693C120.598 85.3451 121.625 84.0092 122.791 83.1422C124.143 82.1363 125.772 81.4483 127.33 80.8343C129.302 80.0614 131.342 79.4757 133.424 79.0849C133.84 79.0078 133.695 78.437 133.331 78.4C130.625 78.1254 127.907 77.8323 125.269 77.1504C122.748 76.4963 120.079 75.4627 118.173 73.6455C117.281 72.8032 116.578 71.6554 116.883 70.3904C117.151 69.2828 118.049 68.4405 118.953 67.8141C120.005 67.1256 121.12 66.5388 122.282 66.0616C123.591 65.472 124.938 64.9731 126.315 64.5683C129.292 63.7168 132.553 63.4576 135.398 64.8769L135.67 64.2289C134.596 64.0747 133.177 63.8834 132.739 62.711C132.251 61.4028 133.818 60.977 134.775 60.7888C137.198 60.3288 139.705 60.8253 141.769 62.1741L141.958 61.4799C140.504 61.5725 138.916 61.2578 137.829 60.2211C136.858 59.2955 136.352 57.7836 136.904 56.5187C137.95 54.1614 141.31 54.0504 143.497 54.0133C149.785 53.9397 156.017 55.2016 161.781 57.7158C165.021 59.1288 168.086 60.9117 170.917 63.0287C171.09 63.1552 171.318 62.8621 171.148 62.7202L171.139 62.7048Z" fill="#F36E39"/>
<path d="M236.607 70.1405C236.575 70.0908 236.527 70.0533 236.471 70.0343C236.415 70.0153 236.354 70.0157 236.299 70.0356C236.221 70.0642 236.149 70.1037 236.083 70.1528C235.952 70.2382 235.829 70.3352 235.715 70.4429C235.605 70.5515 235.515 70.679 235.45 70.8193C235.367 71.0044 235.277 71.2913 235.487 71.4363C235.548 71.4717 235.619 71.4851 235.689 71.4745C235.758 71.4638 235.822 71.4297 235.87 71.3777C235.921 71.3162 235.951 71.24 235.956 71.1601C235.961 71.0802 235.941 71.0008 235.897 70.9334C235.872 70.8907 235.834 70.8574 235.788 70.8387C235.742 70.82 235.692 70.8169 235.644 70.8299C235.596 70.8429 235.554 70.8712 235.524 70.9106C235.494 70.9499 235.478 70.9981 235.478 71.0476C235.476 71.0805 235.476 71.1134 235.478 71.1463C235.48 71.1098 235.497 71.0755 235.524 71.0508C235.551 71.0261 235.586 71.0128 235.623 71.0136C235.652 71.0141 235.681 71.0224 235.707 71.0375C235.732 71.0527 235.753 71.0742 235.768 71.1L235.789 71.171C235.789 71.171 235.789 71.1278 235.789 71.1216C235.789 71.1155 235.789 71.1216 235.789 71.1432C235.789 71.1648 235.789 71.1247 235.789 71.1155V71.0723C235.796 71.0441 235.804 71.0163 235.814 70.989V70.9643C235.814 70.989 235.814 70.9951 235.814 70.9828C235.82 70.9668 235.827 70.9513 235.836 70.9365C235.864 70.8829 235.896 70.8314 235.931 70.7822V70.7668L235.965 70.7267L236.027 70.6588C236.073 70.6126 236.123 70.5694 236.175 70.5262L236.24 70.5169C236.277 70.4891 236.215 70.5354 236.24 70.5169C236.267 70.4946 236.296 70.474 236.326 70.4552L236.397 70.4058C236.397 70.4058 236.428 70.3812 236.434 70.3842C236.415 70.3902 236.395 70.3908 236.376 70.3859C236.357 70.381 236.34 70.3708 236.326 70.3565C236.358 70.3842 236.398 70.3996 236.44 70.3996C236.482 70.3996 236.523 70.3842 236.555 70.3565C236.588 70.3317 236.612 70.295 236.62 70.2539C236.628 70.2127 236.62 70.17 236.598 70.1343L236.607 70.1405Z" fill="black"/>
<path d="M67.1224 92.2563C66.0567 90.9159 65.4221 89.2841 65.3021 87.5758L64.9164 87.7332C65.3202 88.1961 65.8327 88.5513 66.408 88.7667C66.9832 88.9822 67.603 89.0511 68.2115 88.9673C68.7996 88.8758 69.3566 88.6423 69.834 88.2869C70.3114 87.9315 70.695 87.465 70.9513 86.9279C71.6085 85.5642 71.192 84.1974 70.8279 82.8182C70.4361 81.3156 70.3312 79.6249 71.0439 78.1902C71.7103 76.8573 73.145 75.9101 74.663 76.1107L74.4316 75.5553C73.9301 76.031 73.6057 76.6635 73.5121 77.3484C73.4184 78.0332 73.561 78.7296 73.9164 79.3225C74.2935 79.8828 74.8489 80.2992 75.4924 80.5041C76.1359 80.7091 76.8297 80.6907 77.4614 80.4517C78.8097 79.9087 79.6829 78.4709 80.0593 77.1226C80.4091 75.8059 80.3898 74.4183 80.0038 73.1117C79.575 71.5782 78.6971 70.2081 77.483 69.1779L77.264 69.7055C79.0062 69.8373 80.6745 70.464 82.0727 71.5118C83.4709 72.5596 84.5407 73.9849 85.1563 75.6201C85.779 77.3472 85.8946 79.2164 85.4895 81.0071C85.1563 82.5498 84.7768 84.5275 86.338 85.5611C86.6473 85.7612 87.0099 85.8632 87.3782 85.8539C87.7464 85.8445 88.1033 85.7242 88.4021 85.5086C89.0809 85.0366 89.4912 84.2591 89.8214 83.5248L89.3647 83.5834C89.8475 84.1276 90.1026 84.8365 90.0774 85.5635C90.0521 86.2906 89.7484 86.9801 89.229 87.4894C88.976 87.7301 89.3524 88.1065 89.6116 87.872C90.2525 87.2672 90.6293 86.4343 90.6605 85.5536C90.6917 84.673 90.3747 83.8155 89.7782 83.1669C89.7453 83.1378 89.7066 83.1162 89.6647 83.1033C89.6227 83.0904 89.5785 83.0866 89.535 83.0922C89.4915 83.0977 89.4497 83.1125 89.4124 83.1355C89.375 83.1585 89.343 83.1891 89.3184 83.2255C89.0253 83.8796 88.6767 84.617 88.0689 85.0335C87.4055 85.487 86.6342 85.2433 86.1868 84.6139C85.6407 83.8456 85.7117 82.8984 85.8783 82.0222C86.0926 81.1565 86.2472 80.2772 86.3411 79.3904C86.4299 77.7572 86.1075 76.1277 85.4036 74.6514C84.6996 73.175 83.6365 71.8987 82.3116 70.9396C80.8258 69.875 79.0747 69.2419 77.2516 69.11C77.191 69.1102 77.1318 69.1284 77.0813 69.1621C77.0309 69.1958 76.9916 69.2436 76.9682 69.2996C76.9448 69.3556 76.9385 69.4172 76.9499 69.4768C76.9614 69.5363 76.9901 69.5912 77.0326 69.6345C77.927 70.3861 78.6308 71.3387 79.0866 72.4144C79.5424 73.4901 79.7372 74.6583 79.6551 75.8237C79.5737 77.0148 79.1119 78.1483 78.3377 79.0572C77.4645 80.0383 76.1131 80.39 74.9901 79.5848C74.7202 79.3769 74.4998 79.1117 74.3446 78.8085C74.1895 78.5052 74.1035 78.1713 74.0929 77.8308C74.0823 77.4903 74.1473 77.1517 74.2832 76.8393C74.4191 76.5269 74.6226 76.2486 74.879 76.0243C74.9186 75.9839 74.9471 75.934 74.9616 75.8793C74.9761 75.8247 74.9763 75.7672 74.962 75.7125C74.9477 75.6578 74.9194 75.6078 74.88 75.5672C74.8406 75.5267 74.7913 75.4971 74.7371 75.4812C74.139 75.3878 73.5274 75.436 72.9513 75.6219C72.3753 75.8079 71.8509 76.1264 71.4203 76.5519C70.4644 77.4966 69.9115 78.7749 69.8776 80.1185C69.8471 80.8554 69.9145 81.5931 70.0782 82.3122C70.2479 83.0712 70.5317 83.7993 70.6953 84.5614C70.8723 85.2533 70.8107 85.9848 70.5203 86.6373C70.2299 87.2898 69.7278 87.8252 69.0953 88.1569C68.4627 88.4885 67.7367 88.5969 67.0349 88.4646C66.333 88.3323 65.6964 87.9669 65.228 87.4277C65.1963 87.3968 65.1563 87.3759 65.1128 87.3676C65.0693 87.3593 65.0244 87.364 64.9836 87.3812C64.9427 87.3983 64.9079 87.427 64.8833 87.4639C64.8587 87.5007 64.8456 87.5439 64.8454 87.5882C64.9968 89.3981 65.694 91.1195 66.8447 92.5247C67.0021 92.7191 67.2674 92.4445 67.1162 92.2532L67.1224 92.2563Z" fill="white"/>
<path d="M55.5647 87.9924H55.5955C55.6231 87.9971 55.6513 87.9971 55.6788 87.9924H55.7436C55.7715 87.9925 55.7989 87.9862 55.8239 87.9738C55.8496 87.9651 55.8729 87.9503 55.8917 87.9306C55.9119 87.9116 55.9277 87.8885 55.938 87.8628C55.9456 87.8355 55.9456 87.8067 55.938 87.7795V87.7239C55.9295 87.6881 55.9101 87.6558 55.8825 87.6314L55.8424 87.5974C55.8093 87.5793 55.7721 87.5697 55.7344 87.5697H55.6696C55.642 87.5649 55.6138 87.5649 55.5863 87.5697H55.5554L55.5091 87.5882C55.4872 87.6003 55.4682 87.6172 55.4536 87.6375C55.4436 87.6508 55.4353 87.6654 55.4289 87.6807C55.4176 87.7037 55.4123 87.7292 55.4135 87.7548V87.8072L55.4351 87.8535C55.4455 87.8759 55.4628 87.8943 55.4845 87.906C55.5025 87.9231 55.5249 87.9349 55.5493 87.9399L55.5647 87.9924Z" fill="white"/>
<path d="M58.8074 86.9001C58.8712 86.9001 58.9324 86.8748 58.9776 86.8297C59.0227 86.7845 59.048 86.7233 59.048 86.6595C59.048 86.5957 59.0227 86.5344 58.9776 86.4893C58.9324 86.4442 58.8712 86.4188 58.8074 86.4188C58.7436 86.4188 58.6824 86.4442 58.6372 86.4893C58.5921 86.5344 58.5667 86.5957 58.5667 86.6595C58.5667 86.7233 58.5921 86.7845 58.6372 86.8297C58.6824 86.8748 58.7436 86.9001 58.8074 86.9001Z" fill="white"/>
<path d="M59.0604 90.3465H59.8286C59.8925 90.3465 59.9537 90.3211 59.9988 90.276C60.0439 90.2309 60.0693 90.1696 60.0693 90.1058C60.0693 90.042 60.0439 89.9808 59.9988 89.9356C59.9537 89.8905 59.8925 89.8652 59.8286 89.8652H59.0604C58.9966 89.8652 58.9354 89.8905 58.8902 89.9356C58.8451 89.9808 58.8197 90.042 58.8197 90.1058C58.8213 90.1691 58.8472 90.2295 58.892 90.2743C58.9367 90.3191 58.9971 90.3449 59.0604 90.3465Z" fill="white"/>
<path d="M95.9427 76.5735L96.4333 76.9776C96.4603 77.0057 96.4944 77.026 96.532 77.0363H96.5937C96.6284 77.0361 96.6626 77.028 96.6937 77.0125C96.7247 76.997 96.7517 76.9745 96.7727 76.9468C96.7917 76.9233 96.8054 76.8959 96.8128 76.8667C96.8203 76.8374 96.8213 76.8068 96.8159 76.7771C96.8158 76.7475 96.8072 76.7186 96.7912 76.6938C96.7699 76.6602 96.7415 76.6317 96.7079 76.6105L96.2019 76.2279C96.1776 76.2131 96.1506 76.2035 96.1224 76.1998C96.0942 76.1961 96.0656 76.1983 96.0383 76.2063C95.9934 76.2182 95.9534 76.2442 95.9242 76.2803C95.893 76.3221 95.8777 76.3737 95.8811 76.4257C95.8845 76.4777 95.9063 76.5268 95.9427 76.5642V76.5735Z" fill="white"/>
<path d="M96.4086 79.8131L96.7912 80.1957C96.8367 80.2422 96.8988 80.2688 96.9639 80.2697C97.03 80.2689 97.0931 80.2424 97.1398 80.1957C97.1624 80.1729 97.1803 80.146 97.1925 80.1163C97.2047 80.0867 97.2109 80.0549 97.2108 80.0229C97.209 79.9576 97.1838 79.8952 97.1398 79.847L96.7572 79.4644C96.7094 79.4199 96.6467 79.3947 96.5814 79.3935C96.5159 79.3935 96.4531 79.4195 96.4068 79.4658C96.3605 79.5121 96.3345 79.5748 96.3345 79.6403C96.3355 79.7054 96.3621 79.7675 96.4086 79.8131Z" fill="white"/>
<path d="M85.8752 97.7513C85.2567 96.9578 84.8452 96.0229 84.6777 95.0309C84.5102 94.0388 84.592 93.0207 84.9156 92.0681L84.459 91.9416C84.2523 93.3393 85.6345 94.2371 86.8409 94.4809C88.1861 94.7524 89.9263 94.2618 90.1361 92.6913H89.6362C89.8077 93.0836 90.0979 93.4123 90.466 93.6309C90.8341 93.8495 91.2615 93.9472 91.688 93.9101C92.6846 93.8422 93.4929 93.0986 93.9218 92.2347C94.1595 91.7363 94.3108 91.2011 94.3692 90.6519C94.4088 90.3283 94.4314 90.0029 94.437 89.677C94.437 89.5381 94.437 89.3993 94.437 89.2604C94.437 89.1216 94.3969 88.9519 94.5851 89.029C94.7733 89.1062 95.0047 89.4733 95.1343 89.6708C95.3081 89.9304 95.452 90.2088 95.5632 90.5007C95.7749 91.0679 95.8795 91.6695 95.8717 92.2748C95.8717 92.3354 95.8958 92.3935 95.9386 92.4363C95.9814 92.4791 96.0395 92.5031 96.1001 92.5031C96.1606 92.5031 96.2187 92.4791 96.2615 92.4363C96.3043 92.3935 96.3284 92.3354 96.3284 92.2748C96.4165 91.1324 96.0755 89.9982 95.3719 89.0938C95.1405 88.7853 94.8196 88.3934 94.3908 88.4274C93.8755 88.4675 93.8909 89.0136 93.8878 89.3993C93.8878 90.5964 93.7613 91.9169 92.8543 92.7932C92.1138 93.5182 90.5989 93.6756 90.1237 92.5433C90.1071 92.4828 90.0692 92.4304 90.0169 92.3958C89.9647 92.3612 89.9017 92.3467 89.8396 92.355C89.7774 92.3633 89.7204 92.3938 89.6791 92.4409C89.6377 92.488 89.6148 92.5485 89.6146 92.6111C89.4419 93.9193 87.8961 94.197 86.8378 93.9502C85.9276 93.7404 84.7799 93.0801 84.9156 91.9971C84.9496 91.7195 84.5269 91.6886 84.4498 91.9324C84.1308 92.9604 84.0704 94.0513 84.2738 95.1083C84.4772 96.1653 84.9383 97.1558 85.616 97.992C85.7579 98.1709 86.0048 97.9179 85.8659 97.7421L85.8752 97.7513Z" fill="white"/>
<path d="M77.7946 58.5149C78.2019 55.917 77.4614 53.458 75.9434 51.3538C74.4779 49.336 72.5156 47.5835 71.8831 45.0843C71.5561 43.7885 71.6301 42.4093 72.4416 41.3048L71.9788 41.0333C71.7205 41.4143 71.5919 41.8684 71.612 42.3282C71.6321 42.7881 71.7998 43.2292 72.0904 43.5862C72.3809 43.9432 72.7787 44.1971 73.2249 44.3103C73.6711 44.4234 74.1418 44.3897 74.5674 44.2143L74.2588 43.8841C74.1391 44.2078 74.1351 44.5629 74.2476 44.8892C74.3601 45.2154 74.5821 45.4926 74.8759 45.6736C75.1628 45.8495 75.4035 45.4176 75.1351 45.2294C74.9453 45.1012 74.8053 44.9117 74.7385 44.6927C74.6716 44.4737 74.682 44.2384 74.7679 44.0261C74.8327 43.844 74.6198 43.6188 74.4378 43.6959C74.1154 43.8478 73.7518 43.8887 73.4037 43.8123C73.0556 43.7358 72.7426 43.5462 72.5136 43.2732C72.2846 43.0001 72.1524 42.6589 72.1377 42.3028C72.123 41.9467 72.2266 41.5958 72.4323 41.3048C72.6205 40.9963 72.167 40.7587 71.9695 41.0333C70.6027 42.9462 71.2167 45.5286 72.349 47.3922C73.7035 49.6291 75.8725 51.2982 76.8876 53.7511C77.4937 55.2277 77.6857 56.8416 77.4429 58.4192C77.409 58.6476 77.7515 58.7463 77.7946 58.5149Z" fill="white"/>
<path d="M78.5783 47.6205C78.6495 47.6205 78.7178 47.5922 78.7681 47.5419C78.8185 47.4915 78.8468 47.4233 78.8468 47.3521C78.8468 47.2809 78.8185 47.2126 78.7681 47.1623C78.7178 47.1119 78.6495 47.0836 78.5783 47.0836C78.5071 47.0836 78.4389 47.1119 78.3885 47.1623C78.3382 47.2126 78.3099 47.2809 78.3099 47.3521C78.3099 47.4233 78.3382 47.4915 78.3885 47.5419C78.4389 47.5922 78.5071 47.6205 78.5783 47.6205Z" fill="white"/>
<path d="M83.6414 77.6965H28.3611C27.6206 77.6965 26.8586 77.6379 26.1212 77.6965H26.0224L26.5377 78.2118V25.3041C26.5377 24.5945 26.5963 23.854 26.5377 23.1444C26.5377 23.1135 26.5377 23.0827 26.5377 23.0518L26.0224 23.5671H63.1701C64.8794 23.5671 66.5979 23.6257 68.3041 23.5671H68.3782C68.5148 23.5671 68.6459 23.5128 68.7425 23.4162C68.8391 23.3196 68.8934 23.1885 68.8934 23.0518C68.8934 22.9152 68.8391 22.7841 68.7425 22.6875C68.6459 22.5909 68.5148 22.5366 68.3782 22.5366H31.2274C29.5212 22.5366 27.8027 22.4749 26.0965 22.5366H26.0224C25.8865 22.539 25.7568 22.594 25.6607 22.6901C25.5646 22.7863 25.5096 22.9159 25.5072 23.0518V75.9626C25.5072 76.6784 25.4856 77.4003 25.5072 78.1223V78.2149C25.5088 78.3507 25.5637 78.4805 25.6601 78.5763C25.7564 78.6721 25.8866 78.7262 26.0224 78.727H81.3027C82.0493 78.727 82.7991 78.7486 83.5427 78.727H83.6414C83.7708 78.717 83.8916 78.6585 83.9797 78.5633C84.0678 78.4681 84.1168 78.3431 84.1168 78.2133C84.1168 78.0836 84.0678 77.9586 83.9797 77.8634C83.8916 77.7681 83.7708 77.7096 83.6414 77.6996V77.6965Z" fill="black"/>
<path d="M91.2283 78.2118V25.3041C91.2283 24.5945 91.2869 23.854 91.2283 23.1444C91.2283 23.1135 91.2283 23.0827 91.2283 23.0518L90.713 23.5671H146.009C146.746 23.5671 147.511 23.6226 148.246 23.5671H148.344L147.832 23.0518V75.9626C147.832 76.6784 147.811 77.4003 147.832 78.1223V78.2149C147.842 78.3442 147.901 78.4651 147.996 78.5532C148.091 78.6413 148.216 78.6903 148.346 78.6903C148.476 78.6903 148.601 78.6413 148.696 78.5532C148.791 78.4651 148.85 78.3442 148.86 78.2149V25.3041C148.86 24.5853 148.881 23.8633 148.86 23.1444V23.0518C148.858 22.9157 148.803 22.7855 148.707 22.6893C148.611 22.593 148.48 22.5382 148.344 22.5366H93.0795C92.3328 22.5366 91.5862 22.5181 90.8395 22.5366H90.7408C90.6049 22.539 90.4752 22.594 90.3791 22.6901C90.283 22.7862 90.2279 22.9159 90.2255 23.0518V75.9626C90.2255 76.6784 90.207 77.4003 90.2255 78.1223V78.2149C90.2255 78.3515 90.2798 78.4826 90.3765 78.5792C90.4731 78.6758 90.6041 78.7301 90.7408 78.7301C90.8775 78.7301 91.0085 78.6758 91.1051 78.5792C91.2018 78.4826 91.2561 78.3515 91.2561 78.2149L91.2283 78.2118Z" fill="black"/>
<path d="M90.7254 23.0549H148.347V31.2712H90.7254V23.0549Z" fill="black"/>
<path d="M148.344 30.756H93.0795C92.3421 30.756 91.5769 30.7004 90.8395 30.756H90.7408L91.2283 31.2712V23.0549L90.713 23.5702H146.009C146.746 23.5702 147.511 23.6257 148.246 23.5702H148.344L147.832 23.0549V31.2712C147.842 31.4006 147.901 31.5214 147.996 31.6095C148.091 31.6977 148.216 31.7466 148.346 31.7466C148.476 31.7466 148.601 31.6977 148.696 31.6095C148.791 31.5214 148.85 31.4006 148.86 31.2712V23.0549C148.858 22.9188 148.803 22.7886 148.707 22.6924C148.611 22.5961 148.481 22.5413 148.344 22.5397H93.0795C92.3328 22.5397 91.5862 22.5212 90.8395 22.5397H90.7408C90.6049 22.5421 90.4752 22.5971 90.3791 22.6932C90.283 22.7893 90.2279 22.919 90.2255 23.0549V31.2712C90.2279 31.4071 90.283 31.5368 90.3791 31.6329C90.4752 31.7291 90.6049 31.7841 90.7408 31.7865H146.009C146.752 31.7865 147.502 31.805 148.246 31.7865H148.344C148.481 31.7865 148.612 31.7322 148.709 31.6356C148.805 31.5389 148.86 31.4079 148.86 31.2712C148.86 31.1346 148.805 31.0035 148.709 30.9069C148.612 30.8103 148.481 30.756 148.344 30.756Z" fill="black"/>
<path d="M208.87 84.1943C209.487 84.8422 210.104 85.4932 210.69 86.1535C211.025 86.4534 211.317 86.7981 211.557 87.1778C211.758 87.5882 211.606 88.125 211.535 88.5508C211.268 90.1435 210.918 91.7212 210.486 93.2776C209.625 96.414 208.429 99.4489 206.92 102.33C206.058 103.956 205.107 105.532 204.072 107.054C203.853 107.381 204.381 107.671 204.593 107.362C208.496 101.753 211.069 95.3279 212.119 88.5755C212.23 88.1302 212.244 87.6659 212.159 87.2148C212.012 86.8367 211.768 86.5037 211.452 86.2491C210.675 85.4901 209.903 84.7239 209.138 83.9505C208.975 83.7839 208.725 84.0338 208.882 84.2035L208.87 84.1943Z" fill="#F36E39"/>
<path d="M284.519 170.791C282.406 175.993 280.783 181.38 279.672 186.884C279.364 188.427 279.055 189.997 278.852 191.571C278.815 191.879 279.345 191.956 279.404 191.648C279.925 188.914 280.394 186.181 281.045 183.475C281.696 180.769 282.465 178.048 283.329 175.379C283.819 173.876 284.331 172.374 284.871 170.887C284.951 170.664 284.612 170.578 284.526 170.791H284.519Z" fill="#F36E39"/>
<path d="M39.4221 45.4854C39.5751 46.0073 39.815 46.4996 40.1317 46.9417L40.9278 48.0401C41.5448 48.867 42.1311 49.7062 42.779 50.5084C43.8866 51.8937 45.0313 53.2482 46.1883 54.5934C48.4715 57.2448 50.8287 59.8272 53.2599 62.3407C53.9572 63.0627 54.6617 63.7826 55.3734 64.5005C55.7128 64.8368 56.0522 65.1762 56.3946 65.5094C56.5643 65.6791 56.7309 65.8488 56.9068 66.0123C57.4912 66.5863 58.2753 66.9114 59.0943 66.9194C59.7528 66.9184 60.384 66.6565 60.8499 66.1913C61.2602 65.7439 61.6613 65.0682 61.578 64.4357C61.4824 63.7199 61.4268 63.2262 60.961 62.6308C60.7702 62.3932 60.5585 62.1733 60.3285 61.9736C59.9911 61.6671 59.6569 61.3586 59.3257 61.048C58.6778 60.4473 58.034 59.8395 57.3943 59.2245C56.1314 58.0151 54.8869 56.7881 53.661 55.5437C51.2112 53.0569 48.8345 50.5002 46.5308 47.8735C45.8859 47.1361 45.2164 46.4265 44.5561 45.7138C43.8033 44.893 43.1245 43.9798 42.1527 43.4152C40.7828 42.6191 38.9439 43.9397 39.4221 45.5101V45.4854Z" fill="black"/>
<path d="M44.6981 65.0435C45.6823 63.5317 46.7251 62.06 47.7032 60.542C48.6813 59.024 49.7056 57.5399 50.7886 56.0836C51.31 55.374 51.8191 54.6582 52.3312 53.9517C52.5873 53.6092 52.8465 53.2667 53.1087 52.9273C53.371 52.5879 52.828 53.2852 53.0285 53.0322L53.2352 52.7669L53.6518 52.2362C54.7707 50.8293 55.9329 49.4553 57.1382 48.1142C58.4937 46.6085 59.8996 45.1502 61.3559 43.7391C62.3062 42.8135 62.3525 41.0734 61.3559 40.157C60.8754 39.6924 60.2332 39.4326 59.5648 39.4326C58.8965 39.4326 58.2542 39.6924 57.7738 40.157C52.5582 45.4343 48.0602 51.3753 44.3957 57.8269C43.8897 58.737 43.393 59.6441 42.9764 60.6037C42.5198 61.6527 42.0796 62.7079 41.6559 63.7693C41.3474 64.5375 41.9305 65.4415 42.6185 65.7315C42.9893 65.8861 43.4033 65.9022 43.785 65.7771C44.1667 65.6519 44.4908 65.3938 44.6981 65.0497V65.0435Z" fill="black"/>
<path d="M113.563 45.7785L113.724 45.8402C113.912 45.9081 113.538 45.7631 113.545 45.7662C113.644 45.8228 113.747 45.8723 113.853 45.9143C114.08 46.0376 114.3 46.1725 114.513 46.3185C114.794 46.5098 114.205 46.0686 114.473 46.2845C114.557 46.3555 114.643 46.4265 114.723 46.5005C114.905 46.6609 115.075 46.8306 115.239 47.0065C115.402 47.1824 115.547 47.3428 115.683 47.5187C115.72 47.565 115.754 47.6112 115.791 47.6544C115.828 47.6976 115.513 47.2811 115.64 47.4631C115.714 47.5711 115.794 47.676 115.871 47.7717C116.158 48.1851 116.448 48.5955 116.713 49.0212C117.978 51.0421 119.055 53.1926 120.203 55.2845L122.363 59.2029C122.689 59.7507 123.218 60.1483 123.835 60.3099C124.452 60.4715 125.108 60.3842 125.661 60.0668C126.744 59.3695 127.228 57.9225 126.528 56.7686L122.242 49.7216C121.067 47.7902 119.925 45.7107 118.176 44.2266C117.139 43.297 115.895 42.6294 114.547 42.2797C113.622 42.0638 112.545 42.5636 112.323 43.5417C112.207 44.0036 112.273 44.4926 112.508 44.9069C112.743 45.3212 113.129 45.629 113.585 45.7662L113.563 45.7785Z" fill="black"/>
<path d="M112.298 59.0641C114.355 56.8797 116.5 54.794 118.734 52.807C119.839 51.83 120.97 50.8766 122.128 49.9469L122.992 49.2557L123.375 48.9472L123.594 48.7775C123.8 48.6171 123.242 49.049 123.547 48.8145C124.15 48.3517 124.757 47.8972 125.368 47.4508C126.725 46.4573 128.074 45.4577 129.462 44.5105C130.388 43.8687 130.906 42.5729 130.239 41.5393C129.641 40.6137 128.274 40.0768 127.271 40.7618C122.186 44.2564 117.473 48.2637 113.205 52.7206C112.02 53.9547 110.871 55.2136 109.756 56.4971C109.139 57.2129 109 58.3483 109.756 59.0548C110.459 59.6997 111.622 59.7922 112.314 59.0548L112.298 59.0641Z" fill="black"/>
</svg>
