<svg width="545" height="72" viewBox="0 0 545 72" fill="none" xmlns="http://www.w3.org/2000/svg">
<g filter="url(#filter0_d_307_60)">
<path d="M9 1.5H536C537.933 1.5 539.5 3.067 539.5 5V59C539.5 60.933 537.933 62.5 536 62.5H8.99999C7.06699 62.5 5.5 60.933 5.5 59V5C5.5 3.067 7.067 1.5 9 1.5Z" fill="white" stroke="#F36E39" stroke-width="3"/>
<path d="M128.173 25.4545H130.787V35.6818C130.782 36.6193 130.583 37.4266 130.19 38.1037C129.797 38.776 129.248 39.2945 128.543 39.6591C127.842 40.0189 127.025 40.1989 126.092 40.1989C125.24 40.1989 124.473 40.0473 123.791 39.7443C123.114 39.4366 122.577 38.982 122.179 38.3807C121.781 37.7794 121.582 37.0312 121.582 36.1364H124.203C124.208 36.5294 124.293 36.8679 124.459 37.152C124.629 37.4361 124.864 37.6539 125.162 37.8054C125.46 37.9569 125.804 38.0327 126.192 38.0327C126.613 38.0327 126.971 37.9451 127.264 37.7699C127.558 37.59 127.78 37.3248 127.932 36.9744C128.088 36.6241 128.169 36.1932 128.173 35.6818V25.4545ZM138.29 40.2131C137.225 40.2131 136.302 39.9787 135.521 39.5099C134.739 39.0412 134.133 38.3854 133.702 37.5426C133.276 36.6998 133.063 35.715 133.063 34.5881C133.063 33.4612 133.276 32.474 133.702 31.6264C134.133 30.7789 134.739 30.1207 135.521 29.652C136.302 29.1832 137.225 28.9489 138.29 28.9489C139.356 28.9489 140.279 29.1832 141.06 29.652C141.842 30.1207 142.445 30.7789 142.871 31.6264C143.302 32.474 143.518 33.4612 143.518 34.5881C143.518 35.715 143.302 36.6998 142.871 37.5426C142.445 38.3854 141.842 39.0412 141.06 39.5099C140.279 39.9787 139.356 40.2131 138.29 40.2131ZM138.305 38.1534C138.882 38.1534 139.365 37.9948 139.754 37.6776C140.142 37.3556 140.431 36.9247 140.62 36.3849C140.814 35.8452 140.911 35.2438 140.911 34.581C140.911 33.9134 140.814 33.3097 140.62 32.7699C140.431 32.2254 140.142 31.7921 139.754 31.4702C139.365 31.1482 138.882 30.9872 138.305 30.9872C137.713 30.9872 137.22 31.1482 136.827 31.4702C136.439 31.7921 136.148 32.2254 135.954 32.7699C135.764 33.3097 135.67 33.9134 135.67 34.581C135.67 35.2438 135.764 35.8452 135.954 36.3849C136.148 36.9247 136.439 37.3556 136.827 37.6776C137.22 37.9948 137.713 38.1534 138.305 38.1534ZM145.7 40V29.0909H148.271V40H145.7ZM146.993 27.5426C146.585 27.5426 146.235 27.4077 145.941 27.1378C145.648 26.8632 145.501 26.5341 145.501 26.1506C145.501 25.7623 145.648 25.4332 145.941 25.1634C146.235 24.8887 146.585 24.7514 146.993 24.7514C147.404 24.7514 147.755 24.8887 148.044 25.1634C148.337 25.4332 148.484 25.7623 148.484 26.1506C148.484 26.5341 148.337 26.8632 148.044 27.1378C147.755 27.4077 147.404 27.5426 146.993 27.5426ZM153.486 33.608V40H150.915V29.0909H153.372V30.9446H153.5C153.751 30.3338 154.151 29.8485 154.7 29.4886C155.254 29.1288 155.938 28.9489 156.753 28.9489C157.506 28.9489 158.161 29.1098 158.72 29.4318C159.284 29.7538 159.719 30.2202 160.027 30.831C160.339 31.4418 160.493 32.1828 160.489 33.054V40H157.918V33.4517C157.918 32.7225 157.728 32.152 157.349 31.7401C156.975 31.3281 156.457 31.1222 155.794 31.1222C155.344 31.1222 154.944 31.2216 154.594 31.4205C154.248 31.6146 153.976 31.8963 153.777 32.2656C153.583 32.6349 153.486 33.0824 153.486 33.608ZM177.346 25.4545H179.981V34.9574C179.981 35.9991 179.735 36.9152 179.242 37.706C178.754 38.4967 178.068 39.1146 177.183 39.5597C176.297 40 175.263 40.2202 174.079 40.2202C172.89 40.2202 171.853 40 170.968 39.5597C170.083 39.1146 169.396 38.4967 168.908 37.706C168.421 36.9152 168.177 35.9991 168.177 34.9574V25.4545H170.812V34.7372C170.812 35.3433 170.944 35.883 171.21 36.3565C171.479 36.83 171.858 37.2017 172.346 37.4716C172.834 37.7367 173.411 37.8693 174.079 37.8693C174.746 37.8693 175.324 37.7367 175.812 37.4716C176.304 37.2017 176.683 36.83 176.948 36.3565C177.213 35.883 177.346 35.3433 177.346 34.7372V25.4545ZM190.75 29.4531C190.683 28.8329 190.404 28.3499 189.912 28.0043C189.424 27.6586 188.789 27.4858 188.008 27.4858C187.459 27.4858 186.988 27.5687 186.595 27.7344C186.202 27.9001 185.901 28.125 185.693 28.4091C185.484 28.6932 185.378 29.0175 185.373 29.3821C185.373 29.6851 185.442 29.9479 185.579 30.1705C185.721 30.393 185.913 30.5824 186.154 30.7386C186.396 30.8902 186.663 31.018 186.957 31.1222C187.251 31.2263 187.547 31.3139 187.845 31.3849L189.208 31.7259C189.758 31.8537 190.286 32.0265 190.792 32.2443C191.304 32.4621 191.761 32.7367 192.163 33.0682C192.57 33.3996 192.892 33.7997 193.129 34.2685C193.366 34.7372 193.484 35.2865 193.484 35.9162C193.484 36.7685 193.266 37.5189 192.831 38.1676C192.395 38.8116 191.765 39.3158 190.941 39.6804C190.122 40.0402 189.13 40.2202 187.966 40.2202C186.834 40.2202 185.851 40.045 185.018 39.6946C184.19 39.3442 183.541 38.8329 183.072 38.1605C182.608 37.4882 182.357 36.669 182.319 35.7031H184.912C184.949 36.2098 185.106 36.6312 185.38 36.9673C185.655 37.3035 186.012 37.5545 186.453 37.7202C186.898 37.8859 187.395 37.9688 187.944 37.9688C188.517 37.9688 189.019 37.8835 189.45 37.7131C189.886 37.5379 190.226 37.2964 190.473 36.9886C190.719 36.6761 190.844 36.3116 190.849 35.8949C190.844 35.5161 190.733 35.2036 190.515 34.9574C190.297 34.7064 189.992 34.4981 189.599 34.3324C189.211 34.1619 188.756 34.0104 188.235 33.8778L186.581 33.4517C185.383 33.1439 184.436 32.6776 183.74 32.0526C183.048 31.4228 182.703 30.5871 182.703 29.5455C182.703 28.6884 182.935 27.938 183.399 27.294C183.868 26.6501 184.504 26.1506 185.309 25.7955C186.114 25.4356 187.026 25.2557 188.044 25.2557C189.076 25.2557 189.98 25.4356 190.757 25.7955C191.538 26.1506 192.151 26.6454 192.596 27.2798C193.041 27.9096 193.271 28.634 193.285 29.4531H190.75ZM200.794 40V25.4545H203.365V30.8949H203.472C203.604 30.6297 203.791 30.348 204.033 30.0497C204.274 29.7467 204.601 29.4886 205.013 29.2756C205.425 29.0578 205.95 28.9489 206.589 28.9489C207.432 28.9489 208.192 29.1643 208.869 29.5952C209.551 30.0213 210.091 30.6534 210.489 31.4915C210.891 32.3248 211.092 33.3475 211.092 34.5597C211.092 35.7576 210.896 36.7756 210.503 37.6136C210.11 38.4517 209.575 39.0909 208.898 39.5312C208.221 39.9716 207.454 40.1918 206.597 40.1918C205.972 40.1918 205.453 40.0876 205.041 39.8793C204.629 39.6709 204.298 39.42 204.047 39.1264C203.801 38.8281 203.609 38.5464 203.472 38.2812H203.322V40H200.794ZM203.315 34.5455C203.315 35.2509 203.415 35.8688 203.614 36.3991C203.817 36.9295 204.108 37.3437 204.487 37.642C204.871 37.9356 205.335 38.0824 205.879 38.0824C206.447 38.0824 206.923 37.9309 207.307 37.6278C207.69 37.3201 207.979 36.901 208.173 36.3707C208.372 35.8357 208.472 35.2273 208.472 34.5455C208.472 33.8684 208.375 33.267 208.18 32.7415C207.986 32.2159 207.697 31.804 207.314 31.5057C206.93 31.2074 206.452 31.0582 205.879 31.0582C205.33 31.0582 204.864 31.2027 204.48 31.4915C204.097 31.7803 203.805 32.1851 203.607 32.706C203.412 33.2268 203.315 33.84 203.315 34.5455ZM214.505 44.0909C214.155 44.0909 213.83 44.0625 213.532 44.0057C213.238 43.9536 213.004 43.892 212.829 43.821L213.425 41.8182C213.799 41.9271 214.133 41.9792 214.427 41.9744C214.72 41.9697 214.978 41.8774 215.201 41.6974C215.428 41.5223 215.62 41.2287 215.776 40.8168L215.996 40.2273L212.04 29.0909H214.768L217.282 37.3295H217.396L219.917 29.0909H222.651L218.283 41.321C218.08 41.8987 217.81 42.3935 217.474 42.8054C217.138 43.2221 216.726 43.5393 216.238 43.7571C215.755 43.9796 215.177 44.0909 214.505 44.0909ZM237.41 29.4531C237.344 28.8329 237.064 28.3499 236.572 28.0043C236.084 27.6586 235.45 27.4858 234.668 27.4858C234.119 27.4858 233.648 27.5687 233.255 27.7344C232.862 27.9001 232.561 28.125 232.353 28.4091C232.145 28.6932 232.038 29.0175 232.033 29.3821C232.033 29.6851 232.102 29.9479 232.239 30.1705C232.381 30.393 232.573 30.5824 232.815 30.7386C233.056 30.8902 233.324 31.018 233.617 31.1222C233.911 31.2263 234.207 31.3139 234.505 31.3849L235.869 31.7259C236.418 31.8537 236.946 32.0265 237.452 32.2443C237.964 32.4621 238.421 32.7367 238.823 33.0682C239.23 33.3996 239.552 33.7997 239.789 34.2685C240.026 34.7372 240.144 35.2865 240.144 35.9162C240.144 36.7685 239.926 37.5189 239.491 38.1676C239.055 38.8116 238.425 39.3158 237.602 39.6804C236.782 40.0402 235.79 40.2202 234.626 40.2202C233.494 40.2202 232.512 40.045 231.678 39.6946C230.85 39.3442 230.201 38.8329 229.732 38.1605C229.268 37.4882 229.017 36.669 228.979 35.7031H231.572C231.61 36.2098 231.766 36.6312 232.04 36.9673C232.315 37.3035 232.673 37.5545 233.113 37.7202C233.558 37.8859 234.055 37.9688 234.604 37.9688C235.177 37.9688 235.679 37.8835 236.11 37.7131C236.546 37.5379 236.887 37.2964 237.133 36.9886C237.379 36.6761 237.504 36.3116 237.509 35.8949C237.504 35.5161 237.393 35.2036 237.175 34.9574C236.958 34.7064 236.652 34.4981 236.259 34.3324C235.871 34.1619 235.416 34.0104 234.896 33.8778L233.241 33.4517C232.043 33.1439 231.096 32.6776 230.4 32.0526C229.709 31.4228 229.363 30.5871 229.363 29.5455C229.363 28.6884 229.595 27.938 230.059 27.294C230.528 26.6501 231.165 26.1506 231.969 25.7955C232.774 25.4356 233.686 25.2557 234.704 25.2557C235.736 25.2557 236.64 25.4356 237.417 25.7955C238.198 26.1506 238.811 26.6454 239.256 27.2798C239.701 27.9096 239.931 28.634 239.945 29.4531H237.41ZM242.38 40V29.0909H244.951V40H242.38ZM243.672 27.5426C243.265 27.5426 242.915 27.4077 242.621 27.1378C242.328 26.8632 242.181 26.5341 242.181 26.1506C242.181 25.7623 242.328 25.4332 242.621 25.1634C242.915 24.8887 243.265 24.7514 243.672 24.7514C244.084 24.7514 244.435 24.8887 244.723 25.1634C245.017 25.4332 245.164 25.7623 245.164 26.1506C245.164 26.5341 245.017 26.8632 244.723 27.1378C244.435 27.4077 244.084 27.5426 243.672 27.5426ZM252.339 44.3182C251.415 44.3182 250.622 44.1927 249.96 43.9418C249.297 43.6955 248.764 43.3641 248.362 42.9474C247.959 42.5308 247.68 42.0691 247.523 41.5625L249.839 41.0014C249.943 41.2145 250.094 41.4252 250.293 41.6335C250.492 41.8466 250.76 42.0218 251.096 42.1591C251.437 42.3011 251.865 42.3722 252.381 42.3722C253.111 42.3722 253.714 42.1946 254.192 41.8395C254.671 41.4891 254.91 40.9115 254.91 40.1065V38.0398H254.782C254.649 38.3049 254.455 38.5772 254.2 38.8565C253.949 39.1359 253.615 39.3703 253.198 39.5597C252.786 39.7491 252.268 39.8438 251.643 39.8438C250.805 39.8438 250.045 39.6473 249.363 39.2543C248.686 38.8565 248.146 38.2647 247.744 37.4787C247.346 36.688 247.147 35.6984 247.147 34.5099C247.147 33.312 247.346 32.3011 247.744 31.4773C248.146 30.6487 248.688 30.0213 249.37 29.5952C250.052 29.1643 250.812 28.9489 251.65 28.9489C252.289 28.9489 252.815 29.0578 253.227 29.2756C253.643 29.4886 253.975 29.7467 254.221 30.0497C254.467 30.348 254.654 30.6297 254.782 30.8949H254.924V29.0909H257.46V40.1776C257.46 41.1103 257.237 41.8821 256.792 42.4929C256.347 43.1037 255.738 43.5606 254.967 43.8636C254.195 44.1667 253.319 44.3182 252.339 44.3182ZM252.36 37.8267C252.905 37.8267 253.369 37.6941 253.752 37.429C254.136 37.1638 254.427 36.7827 254.626 36.2855C254.825 35.7884 254.924 35.1918 254.924 34.4957C254.924 33.8092 254.825 33.2079 254.626 32.6918C254.432 32.1757 254.143 31.7756 253.759 31.4915C253.38 31.2027 252.914 31.0582 252.36 31.0582C251.787 31.0582 251.309 31.2074 250.925 31.5057C250.542 31.804 250.253 32.2135 250.059 32.7344C249.865 33.2505 249.768 33.8376 249.768 34.4957C249.768 35.1634 249.865 35.7481 250.059 36.25C250.258 36.7472 250.549 37.1354 250.933 37.4148C251.321 37.6894 251.797 37.8267 252.36 37.8267ZM262.665 33.608V40H260.094V29.0909H262.552V30.9446H262.68C262.931 30.3338 263.331 29.8485 263.88 29.4886C264.434 29.1288 265.118 28.9489 265.933 28.9489C266.685 28.9489 267.341 29.1098 267.9 29.4318C268.463 29.7538 268.899 30.2202 269.207 30.831C269.519 31.4418 269.673 32.1828 269.668 33.054V40H267.097V33.4517C267.097 32.7225 266.908 32.152 266.529 31.7401C266.155 31.3281 265.637 31.1222 264.974 31.1222C264.524 31.1222 264.124 31.2216 263.773 31.4205C263.428 31.6146 263.156 31.8963 262.957 32.2656C262.763 32.6349 262.665 33.0824 262.665 33.608ZM272.282 40V29.0909H274.853V40H272.282ZM273.575 27.5426C273.167 27.5426 272.817 27.4077 272.523 27.1378C272.23 26.8632 272.083 26.5341 272.083 26.1506C272.083 25.7623 272.23 25.4332 272.523 25.1634C272.817 24.8887 273.167 24.7514 273.575 24.7514C273.987 24.7514 274.337 24.8887 274.626 25.1634C274.919 25.4332 275.066 25.7623 275.066 26.1506C275.066 26.5341 274.919 26.8632 274.626 27.1378C274.337 27.4077 273.987 27.5426 273.575 27.5426ZM280.068 33.608V40H277.497V29.0909H279.954V30.9446H280.082C280.333 30.3338 280.733 29.8485 281.282 29.4886C281.836 29.1288 282.52 28.9489 283.335 28.9489C284.088 28.9489 284.743 29.1098 285.302 29.4318C285.866 29.7538 286.301 30.2202 286.609 30.831C286.922 31.4418 287.075 32.1828 287.071 33.054V40H284.5V33.4517C284.5 32.7225 284.31 32.152 283.931 31.7401C283.557 31.3281 283.039 31.1222 282.376 31.1222C281.926 31.1222 281.526 31.2216 281.176 31.4205C280.83 31.6146 280.558 31.8963 280.359 32.2656C280.165 32.6349 280.068 33.0824 280.068 33.608ZM294.429 44.3182C293.505 44.3182 292.712 44.1927 292.049 43.9418C291.386 43.6955 290.854 43.3641 290.451 42.9474C290.049 42.5308 289.77 42.0691 289.613 41.5625L291.929 41.0014C292.033 41.2145 292.184 41.4252 292.383 41.6335C292.582 41.8466 292.85 42.0218 293.186 42.1591C293.527 42.3011 293.955 42.3722 294.471 42.3722C295.2 42.3722 295.804 42.1946 296.282 41.8395C296.761 41.4891 297 40.9115 297 40.1065V38.0398H296.872C296.739 38.3049 296.545 38.5772 296.289 38.8565C296.038 39.1359 295.705 39.3703 295.288 39.5597C294.876 39.7491 294.358 39.8438 293.733 39.8438C292.895 39.8438 292.135 39.6473 291.453 39.2543C290.776 38.8565 290.236 38.2647 289.833 37.4787C289.436 36.688 289.237 35.6984 289.237 34.5099C289.237 33.312 289.436 32.3011 289.833 31.4773C290.236 30.6487 290.778 30.0213 291.46 29.5952C292.142 29.1643 292.902 28.9489 293.74 28.9489C294.379 28.9489 294.904 29.0578 295.316 29.2756C295.733 29.4886 296.065 29.7467 296.311 30.0497C296.557 30.348 296.744 30.6297 296.872 30.8949H297.014V29.0909H299.549V40.1776C299.549 41.1103 299.327 41.8821 298.882 42.4929C298.437 43.1037 297.828 43.5606 297.056 43.8636C296.285 44.1667 295.409 44.3182 294.429 44.3182ZM294.45 37.8267C294.994 37.8267 295.458 37.6941 295.842 37.429C296.225 37.1638 296.517 36.7827 296.716 36.2855C296.914 35.7884 297.014 35.1918 297.014 34.4957C297.014 33.8092 296.914 33.2079 296.716 32.6918C296.521 32.1757 296.233 31.7756 295.849 31.4915C295.47 31.2027 295.004 31.0582 294.45 31.0582C293.877 31.0582 293.399 31.2074 293.015 31.5057C292.632 31.804 292.343 32.2135 292.149 32.7344C291.955 33.2505 291.858 33.8376 291.858 34.4957C291.858 35.1634 291.955 35.7481 292.149 36.25C292.348 36.7472 292.639 37.1354 293.022 37.4148C293.411 37.6894 293.886 37.8267 294.45 37.8267ZM316.428 25.4545H319.063V34.9574C319.063 35.9991 318.817 36.9152 318.324 37.706C317.837 38.4967 317.15 39.1146 316.265 39.5597C315.379 40 314.345 40.2202 313.161 40.2202C311.972 40.2202 310.935 40 310.05 39.5597C309.165 39.1146 308.478 38.4967 307.99 37.706C307.503 36.9152 307.259 35.9991 307.259 34.9574V25.4545H309.894V34.7372C309.894 35.3433 310.026 35.883 310.292 36.3565C310.561 36.83 310.94 37.2017 311.428 37.4716C311.916 37.7367 312.493 37.8693 313.161 37.8693C313.828 37.8693 314.406 37.7367 314.894 37.4716C315.386 37.2017 315.765 36.83 316.03 36.3565C316.295 35.883 316.428 35.3433 316.428 34.7372V25.4545ZM321.813 44.0909V29.0909H324.342V30.8949H324.491C324.623 30.6297 324.81 30.348 325.052 30.0497C325.293 29.7467 325.62 29.4886 326.032 29.2756C326.444 29.0578 326.969 28.9489 327.609 28.9489C328.451 28.9489 329.211 29.1643 329.888 29.5952C330.57 30.0213 331.11 30.6534 331.508 31.4915C331.91 32.3248 332.112 33.3475 332.112 34.5597C332.112 35.7576 331.915 36.7756 331.522 37.6136C331.129 38.4517 330.594 39.0909 329.917 39.5312C329.24 39.9716 328.473 40.1918 327.616 40.1918C326.991 40.1918 326.472 40.0876 326.06 39.8793C325.648 39.6709 325.317 39.42 325.066 39.1264C324.82 38.8281 324.628 38.5464 324.491 38.2812H324.384V44.0909H321.813ZM324.335 34.5455C324.335 35.2509 324.434 35.8688 324.633 36.3991C324.836 36.9295 325.128 37.3437 325.506 37.642C325.89 37.9356 326.354 38.0824 326.898 38.0824C327.467 38.0824 327.942 37.9309 328.326 37.6278C328.71 37.3201 328.998 36.901 329.192 36.3707C329.391 35.8357 329.491 35.2273 329.491 34.5455C329.491 33.8684 329.394 33.267 329.2 32.7415C329.005 32.2159 328.717 31.804 328.333 31.5057C327.95 31.2074 327.471 31.0582 326.898 31.0582C326.349 31.0582 325.883 31.2027 325.499 31.4915C325.116 31.7803 324.825 32.1851 324.626 32.706C324.432 33.2268 324.335 33.84 324.335 34.5455ZM341.526 40L338.443 29.0909H341.064L342.982 36.7614H343.081L345.041 29.0909H347.634L349.594 36.7188H349.7L351.589 29.0909H354.217L351.128 40H348.45L346.405 32.6278H346.256L344.21 40H341.526ZM356.012 40V29.0909H358.583V40H356.012ZM357.305 27.5426C356.898 27.5426 356.547 27.4077 356.254 27.1378C355.96 26.8632 355.814 26.5341 355.814 26.1506C355.814 25.7623 355.96 25.4332 356.254 25.1634C356.547 24.8887 356.898 24.7514 357.305 24.7514C357.717 24.7514 358.067 24.8887 358.356 25.1634C358.65 25.4332 358.797 25.7623 358.797 26.1506C358.797 26.5341 358.65 26.8632 358.356 27.1378C358.067 27.4077 357.717 27.5426 357.305 27.5426ZM366.675 29.0909V31.0795H360.403V29.0909H366.675ZM361.952 26.4773H364.523V36.7188C364.523 37.0644 364.575 37.3295 364.679 37.5142C364.788 37.6941 364.93 37.8172 365.105 37.8835C365.28 37.9498 365.474 37.983 365.688 37.983C365.848 37.983 365.995 37.9711 366.128 37.9474C366.265 37.9238 366.369 37.9025 366.44 37.8835L366.874 39.8935C366.736 39.9408 366.54 39.9929 366.284 40.0497C366.033 40.1065 365.725 40.1397 365.361 40.1491C364.717 40.1681 364.137 40.071 363.621 39.858C363.105 39.6402 362.695 39.304 362.392 38.8494C362.094 38.3949 361.947 37.8267 361.952 37.1449V26.4773ZM371.63 33.608V40H369.059V25.4545H371.574V30.9446H371.701C371.957 30.3291 372.352 29.8437 372.887 29.4886C373.427 29.1288 374.114 28.9489 374.947 28.9489C375.705 28.9489 376.365 29.1075 376.929 29.4247C377.492 29.742 377.928 30.206 378.235 30.8168C378.548 31.4276 378.704 32.1733 378.704 33.054V40H376.133V33.4517C376.133 32.7178 375.944 32.1473 375.565 31.7401C375.191 31.3281 374.665 31.1222 373.988 31.1222C373.534 31.1222 373.127 31.2216 372.767 31.4205C372.412 31.6146 372.132 31.8963 371.929 32.2656C371.73 32.6349 371.63 33.0824 371.63 33.608ZM396.144 30.0994C396.025 29.7159 395.862 29.3726 395.654 29.0696C395.45 28.7618 395.204 28.4991 394.915 28.2812C394.631 28.0634 394.304 27.9001 393.935 27.7912C393.566 27.6776 393.163 27.6207 392.728 27.6207C391.946 27.6207 391.25 27.8172 390.64 28.2102C390.029 28.6032 389.548 29.1809 389.198 29.9432C388.852 30.7008 388.679 31.6241 388.679 32.7131C388.679 33.8116 388.852 34.742 389.198 35.5043C389.543 36.2666 390.024 36.8466 390.64 37.2443C391.255 37.6373 391.97 37.8338 392.784 37.8338C393.523 37.8338 394.162 37.6918 394.702 37.4077C395.247 37.1236 395.666 36.7211 395.959 36.2003C396.253 35.6747 396.4 35.0592 396.4 34.3537L396.996 34.446H393.047V32.3864H398.949V34.1335C398.949 35.3788 398.684 36.456 398.154 37.3651C397.623 38.2741 396.894 38.9749 395.966 39.4673C395.038 39.955 393.973 40.1989 392.77 40.1989C391.43 40.1989 390.254 39.8982 389.24 39.2969C388.232 38.6908 387.444 37.8314 386.875 36.7188C386.312 35.6013 386.03 34.2756 386.03 32.7415C386.03 31.5672 386.196 30.5185 386.527 29.5952C386.864 28.6719 387.332 27.8883 387.934 27.2443C388.535 26.5956 389.24 26.1032 390.05 25.767C390.86 25.4261 391.74 25.2557 392.692 25.2557C393.497 25.2557 394.248 25.3741 394.944 25.6108C395.64 25.8428 396.257 26.1742 396.797 26.6051C397.342 27.036 397.789 27.5473 398.14 28.1392C398.49 28.7311 398.72 29.3845 398.828 30.0994H396.144ZM406.142 40.2131C405.077 40.2131 404.153 39.9787 403.372 39.5099C402.591 39.0412 401.985 38.3854 401.554 37.5426C401.128 36.6998 400.915 35.715 400.915 34.5881C400.915 33.4612 401.128 32.474 401.554 31.6264C401.985 30.7789 402.591 30.1207 403.372 29.652C404.153 29.1832 405.077 28.9489 406.142 28.9489C407.207 28.9489 408.131 29.1832 408.912 29.652C409.693 30.1207 410.297 30.7789 410.723 31.6264C411.154 32.474 411.369 33.4612 411.369 34.5881C411.369 35.715 411.154 36.6998 410.723 37.5426C410.297 38.3854 409.693 39.0412 408.912 39.5099C408.131 39.9787 407.207 40.2131 406.142 40.2131ZM406.156 38.1534C406.734 38.1534 407.217 37.9948 407.605 37.6776C407.993 37.3556 408.282 36.9247 408.472 36.3849C408.666 35.8452 408.763 35.2438 408.763 34.581C408.763 33.9134 408.666 33.3097 408.472 32.7699C408.282 32.2254 407.993 31.7921 407.605 31.4702C407.217 31.1482 406.734 30.9872 406.156 30.9872C405.564 30.9872 405.072 31.1482 404.679 31.4702C404.291 31.7921 404 32.2254 403.805 32.7699C403.616 33.3097 403.521 33.9134 403.521 34.581C403.521 35.2438 403.616 35.8452 403.805 36.3849C404 36.9247 404.291 37.3556 404.679 37.6776C405.072 37.9948 405.564 38.1534 406.156 38.1534ZM418.31 40.2131C417.245 40.2131 416.321 39.9787 415.54 39.5099C414.759 39.0412 414.153 38.3854 413.722 37.5426C413.296 36.6998 413.083 35.715 413.083 34.5881C413.083 33.4612 413.296 32.474 413.722 31.6264C414.153 30.7789 414.759 30.1207 415.54 29.652C416.321 29.1832 417.245 28.9489 418.31 28.9489C419.375 28.9489 420.299 29.1832 421.08 29.652C421.861 30.1207 422.465 30.7789 422.891 31.6264C423.322 32.474 423.537 33.4612 423.537 34.5881C423.537 35.715 423.322 36.6998 422.891 37.5426C422.465 38.3854 421.861 39.0412 421.08 39.5099C420.299 39.9787 419.375 40.2131 418.31 40.2131ZM418.324 38.1534C418.902 38.1534 419.385 37.9948 419.773 37.6776C420.161 37.3556 420.45 36.9247 420.64 36.3849C420.834 35.8452 420.931 35.2438 420.931 34.581C420.931 33.9134 420.834 33.3097 420.64 32.7699C420.45 32.2254 420.161 31.7921 419.773 31.4702C419.385 31.1482 418.902 30.9872 418.324 30.9872C417.732 30.9872 417.24 31.1482 416.847 31.4702C416.459 31.7921 416.167 32.2254 415.973 32.7699C415.784 33.3097 415.689 33.9134 415.689 34.581C415.689 35.2438 415.784 35.8452 415.973 36.3849C416.167 36.9247 416.459 37.3556 416.847 37.6776C417.24 37.9948 417.732 38.1534 418.324 38.1534ZM430.464 44.3182C429.54 44.3182 428.747 44.1927 428.085 43.9418C427.422 43.6955 426.889 43.3641 426.487 42.9474C426.084 42.5308 425.805 42.0691 425.648 41.5625L427.964 41.0014C428.068 41.2145 428.219 41.4252 428.418 41.6335C428.617 41.8466 428.885 42.0218 429.221 42.1591C429.562 42.3011 429.99 42.3722 430.506 42.3722C431.236 42.3722 431.839 42.1946 432.317 41.8395C432.796 41.4891 433.035 40.9115 433.035 40.1065V38.0398H432.907C432.774 38.3049 432.58 38.5772 432.325 38.8565C432.074 39.1359 431.74 39.3703 431.323 39.5597C430.911 39.7491 430.393 39.8438 429.768 39.8438C428.93 39.8438 428.17 39.6473 427.488 39.2543C426.811 38.8565 426.271 38.2647 425.869 37.4787C425.471 36.688 425.272 35.6984 425.272 34.5099C425.272 33.312 425.471 32.3011 425.869 31.4773C426.271 30.6487 426.813 30.0213 427.495 29.5952C428.177 29.1643 428.937 28.9489 429.775 28.9489C430.414 28.9489 430.94 29.0578 431.352 29.2756C431.768 29.4886 432.1 29.7467 432.346 30.0497C432.592 30.348 432.779 30.6297 432.907 30.8949H433.049V29.0909H435.585V40.1776C435.585 41.1103 435.362 41.8821 434.917 42.4929C434.472 43.1037 433.863 43.5606 433.092 43.8636C432.32 44.1667 431.444 44.3182 430.464 44.3182ZM430.485 37.8267C431.03 37.8267 431.494 37.6941 431.877 37.429C432.261 37.1638 432.552 36.7827 432.751 36.2855C432.95 35.7884 433.049 35.1918 433.049 34.4957C433.049 33.8092 432.95 33.2079 432.751 32.6918C432.557 32.1757 432.268 31.7756 431.884 31.4915C431.505 31.2027 431.039 31.0582 430.485 31.0582C429.912 31.0582 429.434 31.2074 429.05 31.5057C428.667 31.804 428.378 32.2135 428.184 32.7344C427.99 33.2505 427.893 33.8376 427.893 34.4957C427.893 35.1634 427.99 35.7481 428.184 36.25C428.383 36.7472 428.674 37.1354 429.058 37.4148C429.446 37.6894 429.922 37.8267 430.485 37.8267ZM440.79 25.4545V40H438.219V25.4545H440.79ZM448.264 40.2131C447.17 40.2131 446.225 39.9858 445.43 39.5312C444.639 39.072 444.031 38.4233 443.605 37.5852C443.179 36.7424 442.966 35.7505 442.966 34.6094C442.966 33.4872 443.179 32.5024 443.605 31.6548C444.036 30.8026 444.637 30.1397 445.409 29.6662C446.181 29.188 447.087 28.9489 448.129 28.9489C448.801 28.9489 449.436 29.0578 450.032 29.2756C450.634 29.4886 451.164 29.8201 451.623 30.2699C452.087 30.7197 452.452 31.2926 452.717 31.9886C452.982 32.6799 453.115 33.5038 453.115 34.4602V35.2486H444.173V33.5156H450.65C450.645 33.0232 450.539 32.5852 450.331 32.2017C450.122 31.8134 449.831 31.508 449.457 31.2855C449.088 31.063 448.657 30.9517 448.164 30.9517C447.639 30.9517 447.177 31.0795 446.779 31.3352C446.382 31.5862 446.072 31.9176 445.849 32.3295C445.631 32.7367 445.52 33.1842 445.515 33.6719V35.1847C445.515 35.8191 445.631 36.3636 445.863 36.8182C446.095 37.268 446.42 37.6136 446.836 37.8551C447.253 38.0919 447.741 38.2102 448.299 38.2102C448.673 38.2102 449.012 38.1581 449.315 38.054C449.618 37.9451 449.881 37.7865 450.103 37.5781C450.326 37.3698 450.494 37.1117 450.608 36.804L453.008 37.0739C452.857 37.7083 452.568 38.2623 452.142 38.7358C451.72 39.2045 451.181 39.5691 450.522 39.8295C449.864 40.0852 449.111 40.2131 448.264 40.2131Z" fill="#5E5E5E"/>
<path d="M73.856 21.0237C71.5113 19.3122 68.6276 18.2917 65.5002 18.2917C59.606 18.2917 54.5662 21.887 52.4155 26.9956L45.3535 21.4204C49.2686 14.3162 56.8183 9.5 65.5002 9.5C71.1309 9.5 76.2741 11.5394 80.2727 14.902L73.856 21.0237Z" fill="#F44336" stroke="#F36E39"/>
<path d="M88.3004 35.3781L88.3003 35.379C87.6016 40.9612 84.9027 45.9192 80.9459 49.5198L73.8501 43.9179C75.9984 42.3173 77.6867 40.1278 78.6688 37.5754L78.9303 36.8959H78.2022H66V28.1042H88.0729C88.3498 29.5284 88.5 30.9965 88.5 32.5C88.5 33.4694 88.421 34.4296 88.3004 35.3781Z" fill="#2196F3" stroke="#F36E39"/>
<path d="M44.8819 22.3223L52.0441 27.9766C51.5646 29.3964 51.2917 30.9139 51.2917 32.5C51.2917 34.0407 51.5493 35.5166 52.0029 36.9012L44.8304 42.5637C43.3447 39.5221 42.5 36.1119 42.5 32.5C42.5 28.8433 43.3623 25.3918 44.8819 22.3223Z" fill="#FFC107" stroke="#F36E39"/>
<path d="M45.2973 43.469L52.366 37.8884C54.4887 43.0589 59.5611 46.7083 65.4998 46.7083C68.2704 46.7083 70.8266 45.8912 72.9889 44.5121L80.1783 50.188C76.1983 53.5025 71.0864 55.5 65.4998 55.5C56.7739 55.5 49.1949 50.6328 45.2973 43.469Z" fill="#00B060" stroke="#F36E39"/>
<g opacity="0.1">
<mask id="path-7-inside-1_307_60" fill="white">
<path d="M65.4999 55.5104C58.5837 55.5104 52.3648 52.6568 47.968 48.1105C52.2721 52.9407 58.5213 56 65.4999 56C72.414 56 78.6114 53.001 82.9058 48.2465C78.522 52.7191 72.3504 55.5104 65.4999 55.5104Z"/>
</mask>
<path d="M65.4999 55.5104C58.5837 55.5104 52.3648 52.6568 47.968 48.1105C52.2721 52.9407 58.5213 56 65.4999 56C72.414 56 78.6114 53.001 82.9058 48.2465C78.522 52.7191 72.3504 55.5104 65.4999 55.5104Z" fill="black"/>
<path d="M47.968 48.1105L48.6868 47.4153L47.2214 48.7757L47.968 48.1105ZM82.9058 48.2465L83.6479 48.9168L82.1916 47.5465L82.9058 48.2465ZM65.4999 54.5104C58.864 54.5104 52.9018 51.7736 48.6868 47.4153L47.2492 48.8057C51.8278 53.54 58.3034 56.5104 65.4999 56.5104V54.5104ZM47.2214 48.7757C51.7054 53.8079 58.2216 57 65.4999 57V55C58.821 55 52.8388 52.0735 48.7146 47.4452L47.2214 48.7757ZM65.4999 57C72.7103 57 79.1732 53.871 83.6479 48.9168L82.1637 47.5762C78.0497 52.1311 72.1176 55 65.4999 55V57ZM82.1916 47.5465C77.9904 51.8328 72.0739 54.5104 65.4999 54.5104V56.5104C72.6268 56.5104 79.0536 53.6053 83.62 48.9465L82.1916 47.5465Z" fill="#F36E39" mask="url(#path-7-inside-1_307_60)"/>
</g>
<g opacity="0.1">
<mask id="path-9-inside-2_307_60" fill="white">
<path d="M65.5 36.9062V37.3958H78.2022L78.4005 36.9062H65.5Z"/>
</mask>
<path d="M65.5 36.9062V37.3958H78.2022L78.4005 36.9062H65.5Z" fill="black"/>
<path d="M65.5 36.9062V35.9062H64.5V36.9062H65.5ZM65.5 37.3958H64.5V38.3958H65.5V37.3958ZM78.2022 37.3958V38.3958H78.876L79.129 37.7713L78.2022 37.3958ZM78.4005 36.9062L79.3273 37.2817L79.8846 35.9062H78.4005V36.9062ZM64.5 36.9062V37.3958H66.5V36.9062H64.5ZM65.5 38.3958H78.2022V36.3958H65.5V38.3958ZM79.129 37.7713L79.3273 37.2817L77.4737 36.5308L77.2753 37.0203L79.129 37.7713ZM78.4005 35.9062H65.5V37.9062H78.4005V35.9062Z" fill="#F36E39" mask="url(#path-9-inside-2_307_60)"/>
</g>
<mask id="path-11-inside-3_307_60" fill="white">
<path d="M88.9893 32.788C88.9908 32.6915 89.0001 32.5967 89.0001 32.5C89.0001 32.4727 88.9958 32.4463 88.9957 32.4189C88.9944 32.5422 88.9882 32.6642 88.9893 32.788Z"/>
</mask>
<path d="M88.9893 32.788C88.9908 32.6915 89.0001 32.5967 89.0001 32.5C89.0001 32.4727 88.9958 32.4463 88.9957 32.4189C88.9944 32.5422 88.9882 32.6642 88.9893 32.788Z" fill="#E6E6E6"/>
<path d="M88.9893 32.788L87.9893 32.7967L89.9891 32.8041L88.9893 32.788ZM88.9957 32.4189L89.9957 32.4145L87.9958 32.4082L88.9957 32.4189ZM89.9891 32.8041C89.9895 32.7784 89.991 32.7518 89.9939 32.6968C89.9964 32.6492 90.0001 32.5776 90.0001 32.5H88.0001C88.0001 32.5192 87.9992 32.5433 87.9967 32.5914C87.9945 32.6321 87.9905 32.7011 87.9894 32.7719L89.9891 32.8041ZM90.0001 32.5C90.0001 32.4674 89.9989 32.4397 89.9977 32.4198C89.9965 32.401 89.9951 32.3842 89.9947 32.3786C89.994 32.3698 89.9943 32.3728 89.9945 32.3772C89.9949 32.3828 89.9956 32.3963 89.9957 32.4145L87.9957 32.4232C87.9959 32.4552 87.9972 32.4822 87.9984 32.5014C87.9995 32.5192 88.0009 32.5357 88.0012 32.5403C88.0019 32.5482 88.0016 32.5448 88.0013 32.5396C88.0009 32.5332 88.0001 32.519 88.0001 32.5H90.0001ZM87.9958 32.4082C87.9952 32.4625 87.9882 32.6757 87.9893 32.7967L89.9892 32.7793C89.9881 32.6526 89.9936 32.622 89.9957 32.4295L87.9958 32.4082Z" fill="#F36E39" mask="url(#path-11-inside-3_307_60)"/>
<g opacity="0.2">
<mask id="path-13-inside-4_307_60" fill="white">
<path d="M65.5 27.6042V28.0938H88.5801C88.5492 27.9322 88.5156 27.7646 88.4815 27.6042H65.5Z"/>
</mask>
<path d="M65.5 27.6042V28.0938H88.5801C88.5492 27.9322 88.5156 27.7646 88.4815 27.6042H65.5Z" fill="white"/>
<path d="M65.5 27.6042V26.6042H64.5V27.6042H65.5ZM65.5 28.0938H64.5V29.0938H65.5V28.0938ZM88.5801 28.0938V29.0938H89.789L89.5624 27.9063L88.5801 28.0938ZM88.4815 27.6042L89.4597 27.3964L89.2914 26.6042H88.4815V27.6042ZM64.5 27.6042V28.0938H66.5V27.6042H64.5ZM65.5 29.0938H88.5801V27.0938H65.5V29.0938ZM89.5624 27.9063C89.5303 27.7383 89.4953 27.564 89.4597 27.3964L87.5033 27.8119C87.5359 27.9652 87.5682 28.126 87.5978 28.2812L89.5624 27.9063ZM88.4815 26.6042H65.5V28.6042H88.4815V26.6042Z" fill="#F36E39" mask="url(#path-13-inside-4_307_60)"/>
</g>
<path d="M78.6688 37.5754L78.9303 36.8958H78.2022H66V28.1042H88.0729C88.3498 29.5284 88.5 30.9965 88.5 32.5C88.5 33.4693 88.421 34.4296 88.3004 35.378L88.3003 35.379C86.8808 46.72 77.2244 55.5 65.5 55.5C52.7974 55.5 42.5 45.2025 42.5 32.5C42.5 19.7974 52.7974 9.5 65.5 9.5C71.1297 9.5 76.2648 11.5476 80.2634 14.9107L73.8489 21.0304C73.7042 20.9327 73.5587 20.8404 73.4207 20.7527C73.3414 20.7024 73.2645 20.6536 73.1916 20.6063L73.1913 20.606C70.9739 19.1677 68.3502 18.2917 65.5 18.2917C57.653 18.2917 51.2917 24.6529 51.2917 32.5C51.2917 40.347 57.653 46.7083 65.5 46.7083C71.5496 46.7083 76.6238 42.8905 78.6688 37.5754Z" fill="url(#paint0_linear_307_60)" stroke="#F36E39"/>
<g opacity="0.1">
<mask id="path-16-inside-5_307_60" fill="white">
<path d="M72.9192 20.536C70.7756 19.1455 68.2453 18.3021 65.5 18.3021C57.9292 18.3021 51.7917 24.4395 51.7917 32.0105C51.7917 32.0931 51.7928 32.1576 51.7942 32.24C51.9263 24.7833 58.0118 18.7917 65.5 18.7917C68.2453 18.7917 70.7756 19.6351 72.9192 21.0256C73.2473 21.2388 73.5858 21.439 73.8941 21.6784L81.0168 14.8831L73.8941 21.1888C73.5858 20.9494 73.2473 20.7492 72.9192 20.536Z"/>
</mask>
<path d="M72.9192 20.536C70.7756 19.1455 68.2453 18.3021 65.5 18.3021C57.9292 18.3021 51.7917 24.4395 51.7917 32.0105C51.7917 32.0931 51.7928 32.1576 51.7942 32.24C51.9263 24.7833 58.0118 18.7917 65.5 18.7917C68.2453 18.7917 70.7756 19.6351 72.9192 21.0256C73.2473 21.2388 73.5858 21.439 73.8941 21.6784L81.0168 14.8831L73.8941 21.1888C73.5858 20.9494 73.2473 20.7492 72.9192 20.536Z" fill="black"/>
<path d="M72.9192 20.536L73.4641 19.6975L73.4634 19.697L72.9192 20.536ZM51.7942 32.24L50.7944 32.2574L52.7941 32.2577L51.7942 32.24ZM72.9192 21.0256L73.4641 20.1871L73.4634 20.1866L72.9192 21.0256ZM73.8941 21.6784L73.2807 22.4682L73.961 22.9966L74.5843 22.402L73.8941 21.6784ZM81.0168 14.8831L81.7071 15.6066L80.3539 14.1343L81.0168 14.8831ZM73.8941 21.1888L73.2807 21.9786L73.9358 22.4874L74.5569 21.9376L73.8941 21.1888ZM73.4634 19.697C71.1723 18.2109 68.4551 17.3021 65.5 17.3021V19.3021C68.0355 19.3021 70.3789 20.0801 72.375 21.3749L73.4634 19.697ZM65.5 17.3021C57.3769 17.3021 50.7917 23.8872 50.7917 32.0105H52.7917C52.7917 24.9918 58.4814 19.3021 65.5 19.3021V17.3021ZM50.7917 32.0105C50.7917 32.1028 50.793 32.1752 50.7944 32.2574L52.7941 32.2225C52.7926 32.14 52.7917 32.0833 52.7917 32.0105H50.7917ZM52.7941 32.2577C52.9165 25.3465 58.557 19.7917 65.5 19.7917V17.7917C57.4666 17.7917 50.9361 24.2201 50.7944 32.2222L52.7941 32.2577ZM65.5 19.7917C68.0355 19.7917 70.3789 20.5697 72.375 21.8645L73.4634 20.1866C71.1723 18.7005 68.4551 17.7917 65.5 17.7917V19.7917ZM72.3743 21.864C72.75 22.1082 73.0167 22.2632 73.2807 22.4682L74.5074 20.8886C74.1549 20.6148 73.7446 20.3694 73.4641 20.1871L72.3743 21.864ZM74.5843 22.402L81.7071 15.6066L80.3265 14.1595L73.2038 20.9549L74.5843 22.402ZM80.3539 14.1343L73.2312 20.4401L74.5569 21.9376L81.6797 15.6318L80.3539 14.1343ZM74.5074 20.3991C74.1549 20.1253 73.7446 19.8798 73.4641 19.6975L72.3743 21.3745C72.75 21.6186 73.0167 21.7736 73.2807 21.9786L74.5074 20.3991Z" fill="#F36E39" mask="url(#path-16-inside-5_307_60)"/>
</g>
<g opacity="0.2">
<mask id="path-18-inside-6_307_60" fill="white">
<path d="M65.5 9.48958C71.3261 9.48958 76.6291 11.6406 80.7345 15.1523L81.0168 14.883L80.8013 14.6954C76.68 11.1235 71.3819 9 65.5 9C52.5213 9 42 19.5213 42 32.5C42 32.5826 42.0115 32.6623 42.0123 32.7448C42.145 19.8802 52.6039 9.48958 65.5 9.48958Z"/>
</mask>
<path d="M65.5 9.48958C71.3261 9.48958 76.6291 11.6406 80.7345 15.1523L81.0168 14.883L80.8013 14.6954C76.68 11.1235 71.3819 9 65.5 9C52.5213 9 42 19.5213 42 32.5C42 32.5826 42.0115 32.6623 42.0123 32.7448C42.145 19.8802 52.6039 9.48958 65.5 9.48958Z" fill="white"/>
<path d="M80.7345 15.1523L80.0844 15.9122L80.771 16.4995L81.4247 15.8759L80.7345 15.1523ZM81.0168 14.883L81.707 15.6066L82.5008 14.8494L81.6736 14.1289L81.0168 14.883ZM80.8013 14.6954L81.4581 13.9413L81.4563 13.9397L80.8013 14.6954ZM42.0123 32.7448L41.0124 32.7549L43.0123 32.7551L42.0123 32.7448ZM65.5 10.4896C71.0741 10.4896 76.1495 12.5463 80.0844 15.9122L81.3845 14.3924C77.1086 10.7349 71.5781 8.48958 65.5 8.48958V10.4896ZM81.4247 15.8759L81.707 15.6066L80.3266 14.1594L80.0442 14.4287L81.4247 15.8759ZM81.6736 14.1289L81.4581 13.9413L80.1446 15.4495L80.36 15.6371L81.6736 14.1289ZM81.4563 13.9397C77.1594 10.2157 71.6306 8 65.5 8V10C71.1333 10 76.2007 12.0314 80.1464 15.4511L81.4563 13.9397ZM65.5 8C51.969 8 41 18.969 41 32.5H43C43 20.0735 53.0735 10 65.5 10V8ZM41 32.5C41 32.583 41.0058 32.6581 41.0085 32.6955C41.0102 32.7183 41.0111 32.7304 41.0117 32.7419C41.0123 32.7521 41.0124 32.7555 41.0124 32.7549L43.0123 32.7346C43.0115 32.6559 43.0056 32.5824 43.0032 32.5493C43 32.5056 43 32.4996 43 32.5H41ZM43.0123 32.7551C43.1393 20.4374 53.1534 10.4896 65.5 10.4896V8.48958C52.0543 8.48958 41.1507 19.323 41.0124 32.7345L43.0123 32.7551Z" fill="#F36E39" mask="url(#path-18-inside-6_307_60)"/>
</g>
</g>
<defs>
<filter id="filter0_d_307_60" x="0" y="0" width="545" height="72" filterUnits="userSpaceOnUse" color-interpolation-filters="sRGB">
<feFlood flood-opacity="0" result="BackgroundImageFix"/>
<feColorMatrix in="SourceAlpha" type="matrix" values="0 0 0 0 0 0 0 0 0 0 0 0 0 0 0 0 0 0 127 0" result="hardAlpha"/>
<feOffset dy="4"/>
<feGaussianBlur stdDeviation="2"/>
<feComposite in2="hardAlpha" operator="out"/>
<feColorMatrix type="matrix" values="0 0 0 0 0 0 0 0 0 0 0 0 0 0 0 0 0 0 0.25 0"/>
<feBlend mode="normal" in2="BackgroundImageFix" result="effect1_dropShadow_307_60"/>
<feBlend mode="normal" in="SourceGraphic" in2="effect1_dropShadow_307_60" result="shape"/>
</filter>
<linearGradient id="paint0_linear_307_60" x1="42" y1="32.5" x2="89" y2="32.5" gradientUnits="userSpaceOnUse">
<stop stop-color="white" stop-opacity="0.2"/>
<stop offset="1" stop-color="white" stop-opacity="0"/>
</linearGradient>
</defs>
</svg>
