<svg width="52" height="52" viewBox="0 0 52 52" fill="none" xmlns="http://www.w3.org/2000/svg">
<path d="M0.234282 23.7371L0.210854 23.69C0.19914 23.6547 0.175712 23.6195 0.163997 23.5842C0.128855 23.5136 0.105427 23.4548 0.0819987 23.3842C0.0819987 23.3725 0.0702848 23.3489 0.0702848 23.3372C0.0585707 23.3019 0.0468567 23.2548 0.0351426 23.2196C0.0234285 23.1843 0.0234283 23.1608 0.0234283 23.1372C0.0234283 23.1137 0.0117144 23.0784 0.0117144 23.0549C0.0117144 23.0314 0 22.9726 0 22.9255C0 22.9138 0 22.902 0 22.8785C0 22.7609 0.0117142 22.6432 0.0234283 22.5256C0.0234283 22.5021 0.0351425 22.4786 0.0468565 22.4551C0.0585706 22.4315 0.0585707 22.3963 0.0702848 22.361C0.0819989 22.3257 0.0937127 22.2669 0.117141 22.2316C0.117141 22.2198 0.117141 22.2198 0.128855 22.2081C0.140569 22.161 0.163998 22.1257 0.187426 22.0787C0.187426 22.0669 0.19914 22.0669 0.19914 22.0552C0.222568 22.0199 0.245996 21.9846 0.25771 21.9376C0.269424 21.9258 0.269424 21.914 0.281138 21.9023C0.304567 21.867 0.327995 21.8435 0.351423 21.8082L0.386565 21.7611C0.409994 21.7376 0.433422 21.7141 0.445136 21.6906C0.45685 21.667 0.480278 21.6553 0.491992 21.6318L0.550562 21.573C0.573991 21.5494 0.597419 21.5259 0.609133 21.5141C0.620847 21.5024 0.655989 21.4789 0.679418 21.4553C0.702846 21.4436 0.71456 21.4201 0.737988 21.4083C0.831701 21.3377 0.937127 21.2789 1.04255 21.2319L49.3397 0.143462C49.9723 -0.127053 50.6986 -0.00943714 51.214 0.449262C51.9286 0.919723 52.198 1.84888 51.8466 2.6369L30.6675 50.9532C30.6675 50.965 30.6675 50.965 30.6558 50.9767C30.6323 51.0238 30.6206 51.0591 30.5972 51.1061L30.5738 51.1414C30.5504 51.1767 30.5269 51.212 30.5152 51.2473L30.4918 51.2708C30.4683 51.3178 30.4332 51.3531 30.3981 51.3884C30.3629 51.4354 30.3278 51.4707 30.2926 51.506C30.2926 51.506 30.2809 51.506 30.2809 51.5178C30.2458 51.5531 30.2106 51.5766 30.1755 51.6119L30.1404 51.6354C30.1052 51.6589 30.0701 51.6824 30.0349 51.706L29.9998 51.7295C29.9646 51.753 29.9178 51.7765 29.8709 51.8001L29.8241 51.8236L29.7421 51.8589L29.6835 51.8824C29.6484 51.8941 29.6132 51.9059 29.5664 51.9177L29.5195 51.9294C29.4727 51.9412 29.4258 51.953 29.3789 51.9647L29.3321 51.9765C29.2852 51.9882 29.2384 51.9882 29.1915 52H29.1798C29.1329 52 29.0861 52 29.0392 52C29.0158 52 28.9807 52 28.9572 52C28.9338 52 28.8987 52 28.8752 52L28.8167 51.9882C28.7815 51.9882 28.7347 51.9765 28.6995 51.9647L28.6527 51.953C28.6058 51.9412 28.5707 51.9294 28.5355 51.9177L28.4887 51.9059C28.4535 51.8941 28.4067 51.8824 28.3715 51.8589L28.3481 51.8471L28.313 51.8353C28.2778 51.8236 28.2427 51.8001 28.2192 51.7883L28.1607 51.753L28.0904 51.706C28.067 51.6942 28.0435 51.6707 28.0201 51.6589C27.9967 51.6472 27.985 51.6236 27.9615 51.6119C27.9381 51.5883 27.9147 51.5766 27.8913 51.5531C27.8678 51.5295 27.8561 51.5178 27.8444 51.506L27.7741 51.4354L27.7273 51.3766C27.7155 51.3531 27.6921 51.3296 27.6687 51.3061C27.6453 51.2825 27.6218 51.2473 27.6101 51.212C27.5867 51.1767 27.5867 51.1885 27.5867 51.1649C27.4695 50.9767 27.3875 50.765 27.3407 50.5416C27.329 50.4828 27.3173 50.424 27.3173 50.3652L25.3142 26.5951L1.63997 24.6074H1.61654H1.60483C1.55797 24.6074 1.51112 24.5957 1.46426 24.5839L1.41741 24.5721C1.37055 24.5604 1.32369 24.5486 1.28855 24.5369L1.24169 24.5251C1.20655 24.5133 1.1597 24.5016 1.12455 24.478C1.10112 24.4663 1.08941 24.4663 1.06598 24.4545C1.04255 24.4428 1.00741 24.431 0.983984 24.4192L0.937127 24.3957C0.890271 24.3722 0.855129 24.3487 0.808272 24.3251L0.784844 24.3016C0.749702 24.2781 0.71456 24.2546 0.679418 24.2311L0.644275 24.2075C0.609133 24.184 0.573991 24.1487 0.538848 24.1134L0.527134 24.1017C0.45685 24.0311 0.386565 23.9488 0.316281 23.8547L0.292852 23.8194C0.281138 23.8076 0.25771 23.7724 0.234282 23.7371ZM27.0947 23.1843C27.9498 23.2548 28.641 23.937 28.7112 24.8074L30.2341 43.1553L46.9384 5.04802L8.87928 21.667L27.0947 23.1843Z" fill="#F36E39"/>
</svg>
