<svg width="536" height="326" viewBox="0 0 536 326" fill="none" xmlns="http://www.w3.org/2000/svg">
<path fill-rule="evenodd" clip-rule="evenodd" d="M492.28 195.659C479.512 167.536 451.473 149.459 420.578 149.459H270.705C268.017 149.459 265.497 150.837 264.035 153.088C262.574 155.356 262.372 158.212 263.481 160.665C277.391 191.308 315.662 275.644 325.086 296.375C326.38 299.214 329.202 301.029 332.31 301.029H526.031C529.122 301.029 531.995 299.466 533.658 296.862C535.322 294.275 535.574 290.999 534.297 288.194C525.107 267.966 506.795 227.63 492.28 195.659ZM198.465 111.558C197.188 108.719 194.349 106.905 191.241 106.905H46.2064C30.6664 106.905 16.2016 114.801 7.78482 127.854C-0.631978 140.908 -1.84158 157.355 4.59282 171.501C22.5352 211.048 44.1736 258.71 55.5304 283.742C60.3016 294.275 70.8016 301.029 82.36 301.029H272.15C274.838 301.029 277.358 299.651 278.819 297.4C280.281 295.132 280.482 292.293 279.374 289.823C262.641 252.947 209.704 136.322 198.465 111.558Z" fill="#AEC6F8"/>
<path fill-rule="evenodd" clip-rule="evenodd" d="M277.173 64.72C277.173 64.72 341.366 106.754 373.487 144.503C436.605 218.692 443.862 237.357 443.862 237.357C453.942 258.81 433.799 284.246 407.188 271.982L366.162 253.115L186.537 318.434C186.537 318.434 139.178 305.447 112.583 278.03C112.583 278.03 134.49 207.822 183.026 147.611C213.215 110.164 140.858 10.456 160.564 1.53524C168.51 -2.04316 277.173 64.72 277.173 64.72Z" fill="#FFEBE2"/>
<path fill-rule="evenodd" clip-rule="evenodd" d="M266.841 145.293C266.841 145.293 276.786 161.454 303.398 162.765V144.486L266.841 145.293Z" fill="#24245B"/>
<path fill-rule="evenodd" clip-rule="evenodd" d="M186.537 154.23C186.369 153.911 142.084 75.1528 128.997 40.7632C118.766 13.8832 141.714 -4.2776 162.647 1.55199C169.552 3.48399 182.421 30.868 190.636 46.4752C210.897 84.9808 234.165 129.064 234.165 129.064C236.382 133.281 227.546 142.336 214.391 149.274C201.254 156.213 188.771 158.43 186.537 154.23Z" fill="#FFEBE2"/>
<path fill-rule="evenodd" clip-rule="evenodd" d="M290.243 55.1776C290.243 55.1776 238.97 120.698 270.05 148.67C295.266 171.366 345.734 113.742 352.538 98.236L306.623 51.4816L290.243 55.1776Z" fill="#F99382"/>
<path fill-rule="evenodd" clip-rule="evenodd" d="M284.649 64.1992C284.514 66.9376 269.882 89.0464 269.882 89.0464C265.48 84.7792 264.825 71.0368 271.091 61.36C276.198 53.4808 284.968 57.9832 284.649 64.1992Z" fill="#F99382"/>
<path d="M274.502 74.2624C274.989 72.448 272.738 70.3144 271.763 72.0952" stroke="#24245B" stroke-width="8.3333" stroke-miterlimit="12.5" stroke-linecap="round" stroke-linejoin="round"/>
<path fill-rule="evenodd" clip-rule="evenodd" d="M349.934 97.6312C354.016 96.3376 363.626 104.301 349.934 115.053C340.122 122.747 334.058 123.218 331.991 121.403C329.908 119.572 349.934 97.6312 349.934 97.6312Z" fill="#F99382"/>
<path fill-rule="evenodd" clip-rule="evenodd" d="M343.634 199.792C343.634 196.079 340.626 193.055 336.897 193.055H208.595C204.882 193.055 201.858 196.062 201.858 199.792V325.557H343.634V199.792Z" fill="#EFC2E9"/>
<path fill-rule="evenodd" clip-rule="evenodd" d="M365.39 208.444C365.39 204.731 362.382 201.707 358.653 201.707H192.938C189.225 201.707 186.201 204.714 186.201 208.444V325.54H365.39V208.444Z" fill="#006CFF"/>
<mask id="mask0_148_1200" style="mask-type:luminance" maskUnits="userSpaceOnUse" x="186" y="201" width="180" height="125">
<path d="M365.39 208.444C365.39 204.731 362.382 201.707 358.653 201.707H192.938C189.225 201.707 186.201 204.714 186.201 208.444V325.54H365.39V208.444Z" fill="white"/>
</mask>
<g mask="url(#mask0_148_1200)">
<path fill-rule="evenodd" clip-rule="evenodd" d="M308.337 223.581C308.337 223.581 345.599 253.115 365.39 269.999V243.405L308.337 223.581Z" fill="#24245B"/>
</g>
<path fill-rule="evenodd" clip-rule="evenodd" d="M306.69 139.262H293.654L324.482 204.681H337.518L306.69 139.262Z" fill="#24245B"/>
<path fill-rule="evenodd" clip-rule="evenodd" d="M366.179 253.115L308.807 223.816C308.807 223.816 295.552 217.919 303.431 206.68C295.653 202.127 298.71 189.611 305.716 190.3C295.149 183.076 303.801 172.307 310.79 175.583L327.405 183.194L322.331 172.425C322.331 172.425 321.239 167.334 327.405 165.671C333.05 164.142 334.226 182.908 353.008 192.585L418.326 223.934L366.179 253.115Z" fill="#F99382"/>
<mask id="mask1_148_1200" style="mask-type:luminance" maskUnits="userSpaceOnUse" x="298" y="165" width="121" height="89">
<path d="M366.179 253.115L308.807 223.816C308.807 223.816 295.552 217.919 303.431 206.68C295.653 202.127 298.71 189.611 305.716 190.3C295.149 183.076 303.801 172.307 310.79 175.583L327.405 183.194L322.331 172.425C322.331 172.425 321.239 167.334 327.405 165.671C333.05 164.142 334.226 182.908 353.008 192.585L418.326 223.934L366.179 253.115Z" fill="white"/>
</mask>
<g mask="url(#mask1_148_1200)">
<path fill-rule="evenodd" clip-rule="evenodd" d="M354.688 193.408C345.969 201.472 335.754 221.145 335.318 237.357L364.482 259.197L429.414 226.588L364.482 190.669L354.688 193.408Z" fill="#FFEBE2"/>
</g>
<path fill-rule="evenodd" clip-rule="evenodd" d="M206.344 134.02C219.498 127.082 231.981 124.864 234.198 129.081C236.416 133.298 227.546 142.353 214.391 149.291C201.237 156.23 188.754 158.447 186.537 154.23C184.319 150.014 193.19 140.958 206.344 134.02Z" fill="#24245B"/>
<path d="M187.326 153.894L173.651 129.081M233.61 129.87L190.535 46.2904" stroke="#24245B" stroke-width="8.3333" stroke-miterlimit="12.5" stroke-linecap="round" stroke-linejoin="round"/>
<path fill-rule="evenodd" clip-rule="evenodd" d="M190.636 145.192C194.214 141.513 199.742 137.498 206.344 134.003C214.274 129.82 221.951 127.35 227.277 126.998C227.277 126.998 228.906 131.5 232.098 135.834C235.946 141.143 243.875 148.266 253.132 149.459C263.279 150.753 259.214 164.63 242.766 159.254C242.766 159.254 244.161 162.513 246.026 167.704C249.15 176.423 255.82 197.289 246.026 198.498C242.531 198.918 240.011 196.566 238.55 189.426C236.702 180.422 234.635 177.465 234.635 177.465C233.493 183.093 231.678 188.805 229.914 193.072H215.97L218.591 183.664C218.591 183.664 213.904 187.898 206.781 183.664C198.482 178.725 186.268 166.545 197.272 159.674L190.535 145.31L190.552 145.293L190.636 145.192Z" fill="#F99382"/>
<mask id="mask2_148_1200" style="mask-type:luminance" maskUnits="userSpaceOnUse" x="190" y="126" width="69" height="73">
<path d="M190.636 145.192C194.214 141.513 199.742 137.498 206.344 134.003C214.274 129.82 221.951 127.35 227.277 126.998C227.277 126.998 228.906 131.5 232.098 135.834C235.946 141.143 243.875 148.266 253.132 149.459C263.279 150.753 259.214 164.63 242.766 159.254C242.766 159.254 244.161 162.513 246.026 167.704C249.15 176.423 255.82 197.289 246.026 198.498C242.531 198.918 240.011 196.566 238.55 189.426C236.702 180.422 234.635 177.465 234.635 177.465C233.493 183.093 231.678 188.805 229.914 193.072H215.97L218.591 183.664C218.591 183.664 213.904 187.898 206.781 183.664C198.482 178.725 186.268 166.545 197.272 159.674L190.535 145.31L190.552 145.293L190.636 145.192Z" fill="white"/>
</mask>
<g mask="url(#mask2_148_1200)">
<path fill-rule="evenodd" clip-rule="evenodd" d="M228.167 129.081C222.875 127.182 196.55 141.815 193.811 152.265L190.636 145.209L205.655 127.401L223.967 124.914L228.167 125.2V129.081Z" fill="#24245B"/>
</g>
<path fill-rule="evenodd" clip-rule="evenodd" d="M295.233 68.6848C288.899 87.8032 311.848 114.179 329.807 96.3376C339.35 137.968 372.294 121.722 368.363 96.8416C388.574 107.745 398.855 69.7768 369.657 54.3544C386.457 46.0216 364.785 16.9744 335.788 32.6488C313.343 0.594405 277.761 20.2336 288.95 37.7056C260.978 39.4528 252.057 75.3544 295.233 68.6848Z" fill="#24245B"/>
<path d="M277.173 65.7112C277.223 66.7864 275.19 73.4896 272.754 78.412M322.331 107.123C322.331 107.123 330.95 104.284 334.444 113.658M285.052 88.6768C285.052 88.6768 294.578 86.5264 300.172 96.4552" stroke="#24245B" stroke-width="8.3333" stroke-miterlimit="12.5" stroke-linecap="round" stroke-linejoin="round"/>
<path fill-rule="evenodd" clip-rule="evenodd" d="M289.941 92.4736C310.151 92.4736 331.134 108.87 336.796 129.081C342.458 149.291 330.63 165.688 310.437 165.688C290.226 165.688 269.243 149.291 263.582 129.081C257.92 108.87 269.73 92.4736 289.941 92.4736Z" fill="#FFEBE2"/>
<mask id="mask3_148_1200" style="mask-type:luminance" maskUnits="userSpaceOnUse" x="262" y="92" width="77" height="74">
<path d="M289.941 92.4736C310.151 92.4736 331.134 108.87 336.796 129.081C342.458 149.291 330.63 165.688 310.437 165.688C290.226 165.688 269.243 149.291 263.582 129.081C257.92 108.87 269.73 92.4736 289.941 92.4736Z" fill="white"/>
</mask>
<g mask="url(#mask3_148_1200)">
<path fill-rule="evenodd" clip-rule="evenodd" d="M324.734 139.262C324.616 147.561 317.291 167.418 297.568 163.571L285.136 158.985L324.734 139.262Z" fill="#24245B"/>
<path fill-rule="evenodd" clip-rule="evenodd" d="M337.518 122.865C337.518 122.865 311.764 162.093 290.109 160.446H280.902C262.086 146.822 251.368 126.477 244.329 103.058L291.873 74.2456C309.731 88.2064 325.338 104.082 337.518 122.865Z" fill="#F99382"/>
<path d="M284.649 144.486C277.979 142.118 275.073 133.55 278.802 126.981" stroke="#24245B" stroke-width="12.5" stroke-miterlimit="12.5" stroke-linecap="round" stroke-linejoin="round"/>
<path fill-rule="evenodd" clip-rule="evenodd" d="M295.166 99.2944C296.846 100.487 296.745 103.511 294.947 106.048C293.15 108.585 290.31 109.677 288.63 108.484C286.95 107.291 287.051 104.267 288.849 101.73C290.646 99.1936 293.486 98.1016 295.166 99.2944ZM324.246 116.178C325.893 117.422 325.691 120.446 323.81 122.932C321.928 125.418 319.072 126.41 317.426 125.166C315.779 123.923 315.981 120.899 317.862 118.413C319.744 115.926 322.617 114.918 324.246 116.178Z" fill="#24245B"/>
<path d="M308.337 113.003C308.337 113.003 299.466 129.383 295.955 135.902C295.149 137.38 293.351 137.985 291.822 137.296C290.008 136.473 287.942 135.532 287.942 135.532" stroke="#24245B" stroke-width="12.5" stroke-miterlimit="12.5" stroke-linecap="round" stroke-linejoin="round"/>
<path fill-rule="evenodd" clip-rule="evenodd" d="M289.941 92.4736C310.151 92.4736 331.134 108.87 336.796 129.081C342.458 149.291 330.63 165.688 310.437 165.688C290.226 165.688 269.243 149.291 263.582 129.081C257.92 108.87 269.73 92.4736 289.941 92.4736Z" fill="url(#paint0_radial_148_1200)"/>
</g>
<path fill-rule="evenodd" clip-rule="evenodd" d="M289.941 92.4736C310.151 92.4736 331.134 108.87 336.796 129.081C342.458 149.291 330.63 165.688 310.437 165.688C290.226 165.688 269.243 149.291 263.582 129.081C257.92 108.87 269.73 92.4736 289.941 92.4736ZM289.941 94.5736C309.278 94.5736 329.354 110.298 334.763 129.652C337.384 139.043 336.04 147.578 331.605 153.743C327.186 159.858 319.778 163.588 310.437 163.588C291.1 163.588 271.024 147.863 265.614 128.51C262.977 119.118 264.338 110.584 268.773 104.418C273.174 98.3032 280.6 94.5736 289.941 94.5736Z" fill="#24245B"/>
<path d="M305.699 190.317L320.836 196.953M327.405 183.194L339.182 188.586M303.414 206.68L314.452 211.451M217.096 165.285C217.096 165.285 224.656 178.674 218.591 183.647M197.272 159.657L201.858 169.401M228.688 158.027C233.258 167.267 235.643 173.063 234.635 177.448M242.766 159.254C242.766 159.254 239.877 153.306 236.651 149.459" stroke="#24245B" stroke-width="8.3333" stroke-miterlimit="12.5" stroke-linecap="round" stroke-linejoin="round"/>
<path d="M362.08 197.323L418.326 223.816" stroke="#24245B" stroke-width="8.3333" stroke-miterlimit="12.5" stroke-linecap="round" stroke-linejoin="round"/>
<path fill-rule="evenodd" clip-rule="evenodd" d="M316.317 233.879C316.317 233.224 316.048 232.586 315.578 232.115C315.107 231.645 314.469 231.376 313.814 231.376H237.777C237.105 231.376 236.483 231.645 236.013 232.115C235.542 232.586 235.274 233.224 235.274 233.879V252.342C235.274 253.014 235.542 253.636 236.013 254.106C236.483 254.577 237.122 254.846 237.777 254.846H313.814C314.469 254.846 315.107 254.577 315.578 254.106C316.048 253.636 316.317 252.998 316.317 252.342V233.879Z" fill="#EFC2E9"/>
<mask id="mask4_148_1200" style="mask-type:luminance" maskUnits="userSpaceOnUse" x="235" y="231" width="82" height="24">
<path d="M316.317 233.879C316.317 233.224 316.048 232.586 315.578 232.115C315.107 231.645 314.469 231.376 313.814 231.376H237.777C237.105 231.376 236.483 231.645 236.013 232.115C235.542 232.586 235.274 233.224 235.274 233.879V252.342C235.274 253.014 235.542 253.636 236.013 254.106C236.483 254.577 237.122 254.846 237.777 254.846H313.814C314.469 254.846 315.107 254.577 315.578 254.106C316.048 253.636 316.317 252.998 316.317 252.342V233.879Z" fill="white"/>
</mask>
<g mask="url(#mask4_148_1200)">
<path fill-rule="evenodd" clip-rule="evenodd" d="M316.317 234.366C316.317 234.366 283.742 236.03 237.861 256.055L235.274 273.813L322.314 263.615L316.317 234.366Z" fill="#C47CB9"/>
</g>
<defs>
<radialGradient id="paint0_radial_148_1200" cx="0" cy="0" r="1" gradientUnits="userSpaceOnUse" gradientTransform="translate(299.837 137.071) rotate(14.8) scale(40.335)">
<stop stop-color="white" stop-opacity="0.15"/>
<stop offset="1" stop-color="white" stop-opacity="0.4"/>
</radialGradient>
</defs>
</svg>
