<svg width="240" height="240" viewBox="0 0 240 240" fill="none" xmlns="http://www.w3.org/2000/svg">
<circle cx="120" cy="120" r="120" fill="#DDDDF2"/>
<circle cx="120" cy="120" r="100" fill="#D6D6F7"/>
<path d="M166.831 81.4278L170.486 77.8242C171.455 76.8548 172 75.54 172 74.1691C172 72.7982 171.455 71.4834 170.486 70.514C169.517 69.5446 168.202 69 166.831 69C165.46 69 164.145 69.5446 163.176 70.514L155.969 77.7727L141.4 92.3417L108.915 124.774C103.593 121.263 97.1556 119.852 90.8518 120.815C84.548 121.778 78.8262 125.047 74.7952 129.989C70.7641 134.93 68.7107 141.192 69.0329 147.56C69.3551 153.929 72.03 159.952 76.5392 164.461C81.0484 168.97 87.0708 171.645 93.4397 171.967C99.8085 172.289 106.07 170.236 111.011 166.205C115.953 162.174 119.222 156.452 120.185 150.148C121.148 143.844 119.737 137.407 116.226 132.085L145.003 103.256L155.917 114.221C156.397 114.697 156.966 115.075 157.592 115.332C158.218 115.588 158.888 115.719 159.565 115.717C160.241 115.714 160.91 115.579 161.534 115.318C162.158 115.057 162.725 114.675 163.202 114.195C163.678 113.715 164.056 113.146 164.312 112.52C164.569 111.894 164.7 111.224 164.697 110.548C164.695 109.871 164.559 109.202 164.298 108.578C164.037 107.954 163.656 107.387 163.176 106.911L152.262 95.9968L159.572 88.7381L163.176 92.3417C163.652 92.8217 164.219 93.2031 164.843 93.4642C165.467 93.7252 166.136 93.8608 166.813 93.8632C167.489 93.8656 168.159 93.7348 168.785 93.4781C169.411 93.2215 169.98 92.8441 170.46 92.3674C170.94 91.8908 171.322 91.3243 171.583 90.7003C171.844 90.0763 171.979 89.407 171.982 88.7305C171.984 88.0541 171.853 87.3838 171.597 86.758C171.34 86.1321 170.963 85.563 170.486 85.083L166.831 81.4278ZM94.7583 161.686C91.7037 161.686 88.7178 160.78 86.178 159.083C83.6382 157.386 81.6587 154.974 80.4898 152.152C79.3209 149.33 79.015 146.225 79.6109 143.229C80.2068 140.233 81.6778 137.481 83.8377 135.321C85.9976 133.161 88.7494 131.69 91.7453 131.094C94.7412 130.498 97.8465 130.804 100.669 131.973C103.491 133.142 105.903 135.122 107.6 137.661C109.297 140.201 110.202 143.187 110.202 146.242C110.202 150.338 108.575 154.266 105.679 157.162C102.783 160.059 98.8543 161.686 94.7583 161.686Z" fill="#6563FF"/>
</svg>
