<svg width="21" height="30" viewBox="0 0 21 30" fill="none" xmlns="http://www.w3.org/2000/svg">
<path d="M10.7881 29.1073C10.6159 29.1072 10.4465 29.0596 10.2962 28.969C7.34766 27.1978 4.89183 24.6104 3.18265 21.4744C1.47346 18.3385 0.572953 14.7677 0.57422 11.1314C0.57422 10.9827 0.575564 10.8346 0.578252 10.687C0.645448 7.39533 1.78309 4.62335 3.87089 2.67138C5.71745 0.948844 8.17349 0 10.7881 0C13.4027 0 15.8581 0.948844 17.7027 2.67138C19.7925 4.62552 20.9321 7.39533 20.9953 10.687C20.9953 10.8317 21 10.983 21 11.1314C21.0018 14.824 20.0728 18.4479 18.3121 21.6164C16.6031 24.6855 14.1789 27.2201 11.28 28.969C11.1297 29.0596 10.9603 29.1072 10.7881 29.1073ZM10.7881 2.17127C8.65865 2.17127 6.67165 2.93121 5.19399 4.31214C3.54566 5.85084 2.64657 8.07132 2.59415 10.7333C2.59415 10.865 2.59012 10.9982 2.59012 11.1314C2.58912 14.2773 3.34348 17.3701 4.77993 20.1094C6.21639 22.8486 8.28612 25.1412 10.7881 26.7645C13.166 25.216 15.1564 23.0647 16.5858 20.4982C18.1582 17.6674 18.9877 14.4301 18.9861 11.1314C18.9861 10.9982 18.9861 10.865 18.9821 10.7333C18.929 8.07132 18.0299 5.85084 16.3822 4.31214C14.9039 2.93121 12.9176 2.17127 10.7881 2.17127Z" fill="#F36E39"/>
<path d="M10.8146 17.9926C9.56102 17.9926 8.33564 17.5922 7.29336 16.8421C6.25108 16.092 5.43872 15.0259 4.95902 13.7785C4.47931 12.5311 4.3538 11.1586 4.59835 9.83435C4.8429 8.51014 5.44654 7.29379 6.33292 6.33909C7.2193 5.38439 8.34863 4.73423 9.57808 4.47083C10.8075 4.20743 12.0819 4.34262 13.24 4.8593C14.3981 5.37598 15.388 6.25094 16.0844 7.37355C16.7808 8.49615 17.1525 9.81598 17.1525 11.1661C17.1508 12.976 16.4824 14.7113 15.2942 15.991C14.106 17.2708 12.495 17.9907 10.8146 17.9926ZM10.8146 6.51165C9.9597 6.51165 9.12404 6.78469 8.41326 7.29625C7.70248 7.8078 7.14851 8.53488 6.8214 9.38555C6.49429 10.2362 6.40874 11.1723 6.57556 12.0753C6.74239 12.9783 7.15409 13.8078 7.75862 14.4588C8.36314 15.1098 9.13332 15.5531 9.97177 15.7327C10.8102 15.9122 11.6793 15.8199 12.469 15.4675C13.2588 15.115 13.9337 14.5182 14.4086 13.7526C14.8834 12.987 15.1368 12.0869 15.1366 11.1661C15.1347 9.9324 14.6786 8.74986 13.8684 7.87776C13.0582 7.00565 11.96 6.51516 10.8146 6.51383V6.51165Z" fill="#F36E39"/>
</svg>
