<svg width="64" height="63" viewBox="0 0 64 63" fill="none" xmlns="http://www.w3.org/2000/svg">
<path d="M31.5499 37.8C40.2484 37.8 47.2999 29.3382 47.2999 18.9C47.2999 8.46182 40.2484 0 31.5499 0C22.8514 0 15.7999 8.46182 15.7999 18.9C15.7999 29.3382 22.8514 37.8 31.5499 37.8Z" fill="black"/>
<path d="M62.4199 53.8649C59.5849 48.1949 54.2299 43.4699 47.2999 40.6349C45.4099 40.0049 43.2049 40.0049 41.6299 40.9499C38.4799 42.8399 35.3299 43.7849 31.5499 43.7849C27.7699 43.7849 24.6199 42.8399 21.4699 40.9499C19.8949 40.3199 17.6899 40.0049 15.7999 40.9499C8.8699 43.7849 3.5149 48.5099 0.679902 54.1799C-1.5251 58.2749 1.9399 62.9999 6.6649 62.9999H56.4349C61.1599 62.9999 64.6249 58.2749 62.4199 53.8649Z" fill="black"/>
</svg>
