<svg width="80" height="69" viewBox="0 0 80 69" fill="none" xmlns="http://www.w3.org/2000/svg">
<path d="M79.7236 48.8049C79.7236 48.4515 79.7059 48.0947 79.5508 47.7413L70.6862 27.5461C70.0834 26.1695 68.3947 25.2439 66.4844 25.2439H48.7552V31.9756H63.2887L70.6773 48.8049H9.10393L16.4926 31.9756H31.026V25.2439H13.2969C11.3866 25.2439 9.69785 26.1695 9.09506 27.5461L0.230479 47.7413C0.0753492 48.0947 0.0576198 48.4515 0.0576198 48.8049C4.95347e-08 48.8049 0 65.6341 0 65.6341C0 67.4955 1.98123 69 4.43229 69H75.349C77.8 69 79.7812 67.4955 79.7812 65.6341C79.7812 65.6341 79.7812 48.8049 79.7236 48.8049Z" fill="#F36E39"/>
<path d="M57.6199 21.5549C58.7678 21.5549 59.9158 21.2352 60.7535 20.6024C62.4821 19.2897 62.4821 17.1558 60.7535 15.8431L39.8907 0L19.0279 15.8431C17.2993 17.1558 17.2993 19.2897 19.0279 20.6024C19.8656 21.2385 21.0136 21.5549 22.1615 21.5549C23.3095 21.5549 24.4574 21.2385 25.2951 20.6024L35.4584 12.8845V35.3415C35.4584 37.1994 37.4441 38.7073 39.8907 38.7073C42.3373 38.7073 44.323 37.1994 44.323 35.3415V12.8845L54.4862 20.6024C55.3239 21.2385 56.4719 21.5549 57.6199 21.5549Z" fill="#F36E39"/>
</svg>
