<svg width="650" height="488" viewBox="0 0 650 488" fill="none" xmlns="http://www.w3.org/2000/svg">
<path d="M623.661 330.299C618.21 334.067 610.632 336.071 605.139 337.434C588.298 341.613 571.246 344.948 553.982 347.438C537.477 349.802 520.979 351.663 504.29 350.804C506.648 358.443 503.009 367.207 499.465 374.723C482.404 411 467.678 448.329 455.375 486.483H648.705C648.705 486.483 642.156 380.461 623.661 330.299Z" fill="#F36E39"/>
<path d="M623.007 329.181C617.556 332.868 611.095 334.633 604.799 336.18C596.853 338.152 588.866 339.93 580.838 341.516C564.723 344.804 548.445 347.236 532.073 348.8C522.848 349.675 513.574 349.902 504.317 349.482C504.118 349.484 503.921 349.531 503.743 349.62C503.565 349.709 503.409 349.838 503.288 349.996C503.167 350.155 503.084 350.339 503.045 350.534C503.006 350.73 503.012 350.932 503.063 351.124C505.639 359.758 500.835 368.767 497.271 376.393C493.25 384.993 489.361 393.654 485.604 402.377C478.054 419.913 471.041 437.663 464.567 455.626C460.933 465.726 457.462 475.879 454.155 486.088C454.104 486.28 454.098 486.481 454.136 486.676C454.175 486.871 454.257 487.055 454.378 487.213C454.498 487.371 454.653 487.5 454.83 487.59C455.007 487.679 455.203 487.727 455.402 487.73H640.862C643.363 487.73 645.87 487.778 648.358 487.73H648.705C649.049 487.727 649.377 487.588 649.619 487.345C649.861 487.101 649.998 486.772 650 486.429C649.775 482.769 649.496 479.116 649.209 475.457C648.473 466.125 647.628 456.812 646.674 447.517C645.38 434.842 643.865 422.192 642.129 409.566C640.262 396.087 638.102 382.635 635.403 369.292C632.977 357.285 630.163 345.284 626.217 333.672C625.794 332.432 625.358 331.198 624.909 329.972C624.336 328.418 621.835 329.093 622.408 330.653C626.537 341.87 629.427 353.537 631.948 365.21C634.783 378.478 637.025 391.876 638.967 405.3C640.8 417.996 642.374 430.726 643.696 443.462C644.732 453.253 645.641 463.054 646.422 472.867C646.668 475.934 646.895 479.001 647.104 482.067C647.206 483.43 647.151 484.902 647.39 486.251C647.393 486.31 647.393 486.369 647.39 486.429L648.685 485.134H463.245C460.758 485.134 458.216 484.997 455.749 485.134C455.64 485.134 455.531 485.134 455.422 485.134L456.669 486.776C462.634 468.363 469.142 450.136 476.193 432.096C483.203 414.182 490.774 396.496 498.906 379.037C502.941 370.369 508.522 360.283 505.585 350.416L504.338 352.058C521.033 352.896 537.681 351.036 554.186 348.651C570.578 346.297 586.828 343.172 602.938 339.274C610.278 337.495 617.998 335.689 624.336 331.382C625.685 330.483 624.391 328.234 623.007 329.181Z" fill="#F36E39"/>
<path d="M1.31665 145.439V365.837C1.31576 369.518 2.04012 373.163 3.44837 376.564C4.85662 379.965 6.92115 383.055 9.52402 385.658C12.1269 388.261 15.2171 390.326 18.6181 391.734C22.019 393.142 25.6642 393.866 29.3452 393.866H431.632C435.313 393.866 438.959 393.142 442.36 391.734C445.761 390.326 448.851 388.261 451.454 385.658C454.056 383.055 456.121 379.965 457.529 376.564C458.938 373.163 459.662 369.518 459.661 365.837V145.439C459.655 140.522 458.355 135.693 455.892 131.437C453.429 127.181 449.89 123.648 445.63 121.192L244.503 5.03718C240.242 2.57649 235.409 1.28101 230.489 1.28101C225.569 1.28101 220.735 2.57649 216.475 5.03718L15.3343 121.192C11.0763 123.649 7.53954 127.183 5.07907 131.439C2.61861 135.695 1.32104 140.523 1.31665 145.439Z" fill="#F36E39"/>
<path d="M0.0218287 145.439V362.648C-0.0327416 364.673 0.0150209 366.699 0.164935 368.72C0.733033 374.141 2.78651 379.3 6.09913 383.628C9.41175 387.957 13.8549 391.287 18.9392 393.252C24.275 395.297 29.645 395.167 35.1989 395.167H424.313C428.048 395.167 431.919 395.385 435.619 394.888C440.984 394.122 446.035 391.898 450.222 388.457C454.409 385.017 457.57 380.492 459.361 375.377C460.663 371.636 460.956 367.779 460.956 363.868V162.448C460.956 156.833 461.003 151.217 460.956 145.602C460.945 140.838 459.79 136.146 457.59 131.921C455.389 127.696 452.205 124.061 448.308 121.322C446.795 120.265 445.159 119.386 443.537 118.466L422.283 106.2L386.097 85.3133L342.933 60.3922L300.069 35.6416L265.519 15.6747L246.616 4.77135C242.411 2.34535 237.988 0.573545 233.089 0.116965C226.628 -0.482721 220.441 1.26182 214.88 4.4715L197.305 14.6048L163.552 34.0878L120.995 58.6613L77.6403 83.7119L40.7187 105.008L18.2305 117.996C17.0584 118.678 15.8794 119.359 14.7141 120.041C10.2809 122.645 6.59763 126.354 4.02291 130.805C1.4482 135.255 0.0697772 140.297 0.0218287 145.439C0.0218287 147.108 2.59094 147.108 2.61138 145.439C2.65682 140.704 3.93829 136.064 6.32886 131.977C8.71943 127.891 12.1362 124.499 16.2406 122.139C17.7739 121.247 19.314 120.368 20.8541 119.475L44.7053 105.703L82.1039 84.1139L125.268 59.1792L166.966 35.11L199.799 16.1518C205.333 12.9716 210.862 9.78009 216.386 6.57722C223.31 2.59748 231.296 1.40492 238.963 3.94678C241.489 4.88054 243.912 6.0726 246.193 7.50401L266.637 19.3137L301.841 39.6349L344.419 64.2152L387.024 88.8024L422.215 109.117L442.624 120.899C444.834 122.07 446.932 123.438 448.894 124.988C451.917 127.59 454.334 130.822 455.975 134.457C457.616 138.093 458.442 142.043 458.393 146.032V164.976V364.222C458.393 368.815 457.773 373.292 455.736 377.483C453.517 381.993 450.085 385.796 445.825 388.464C441.565 391.131 436.645 392.558 431.619 392.584C428.573 392.584 425.52 392.584 422.474 392.584H35.083C29.1816 392.584 23.5391 392.693 17.9852 390.063C13.4026 387.868 9.53039 384.427 6.81161 380.134C4.09283 375.842 2.63725 370.87 2.61138 365.789C2.61138 364.256 2.61138 362.716 2.61138 361.183V145.439C2.61138 145.095 2.47497 144.766 2.23215 144.523C1.98933 144.28 1.66 144.144 1.31661 144.144C0.973209 144.144 0.643878 144.28 0.40106 144.523C0.158243 144.766 0.0218287 145.095 0.0218287 145.439Z" fill="#F36E39"/>
<path d="M107.134 378.287C110.078 369.04 79.3168 231.023 77.4019 221.503L66.921 169.378C66.6212 167.859 66.335 166.169 67.1323 164.833C67.8137 163.675 69.1767 163.082 70.3965 162.564C128.96 138.24 189.892 120.063 252.21 108.326C280.089 103.079 308.492 99.1265 336.773 101.375C339.499 101.593 342.32 101.914 344.576 103.42C347.233 105.232 348.583 108.388 349.782 111.372C368.554 157.957 385.164 205.334 399.611 253.505" fill="white"/>
<path d="M348.692 223.636C344.531 224.584 340.163 223.85 336.541 221.592C332.958 219.318 330.1 216.067 328.303 212.222C327.621 210.859 327.076 209.442 325.958 208.453C324.439 207.091 322.251 206.872 320.22 206.77C320.916 206.84 321.592 207.043 322.21 207.37C322.517 207.537 322.771 207.786 322.943 208.089C323.115 208.393 323.199 208.739 323.185 209.087C323.096 209.486 322.873 209.843 322.553 210.097C322.233 210.351 321.835 210.488 321.427 210.484C320.604 210.452 319.816 210.142 319.191 209.605C317.784 208.451 316.674 206.977 315.955 205.305C315.502 204.49 315.267 203.573 315.273 202.641C315.43 200.671 317.317 199.356 319.001 198.327C316.902 197.489 316.541 194.422 317.76 192.514C318.98 190.606 321.168 189.591 323.253 188.705C322.7 188.145 322.333 187.429 322.2 186.653C322.067 185.877 322.176 185.08 322.511 184.368C322.846 183.656 323.392 183.064 324.074 182.672C324.756 182.28 325.543 182.107 326.326 182.176C325.584 181.713 325.781 180.473 326.483 179.934C327.241 179.481 328.126 179.284 329.005 179.376L335.172 179.335C338.811 179.335 342.504 179.301 346.027 180.207C346.712 180.434 347.426 180.558 348.147 180.575C348.664 180.526 349.174 180.419 349.666 180.255C351.99 179.614 354.566 179.314 356.74 180.357C357.829 180.952 358.823 181.705 359.691 182.592C361.735 184.48 363.78 186.415 365.04 188.875C365.969 190.896 366.574 193.051 366.832 195.26C367.508 199.545 367.888 203.871 367.97 208.208C368.073 209.848 367.924 211.493 367.528 213.087" fill="white"/>
<path d="M445.63 185.468L244.503 301.596C240.242 304.056 235.409 305.352 230.489 305.352C225.569 305.352 220.735 304.056 216.475 301.596L15.3343 185.468C11.0723 183.009 7.53296 179.471 5.07226 175.21C2.61156 170.949 1.31626 166.115 1.31665 161.194V145.439V365.837C1.31576 369.518 2.04012 373.163 3.44837 376.564C4.85662 379.965 6.92115 383.055 9.52402 385.658C12.1269 388.261 15.2171 390.326 18.6181 391.734C22.019 393.142 25.6642 393.866 29.3452 393.866H431.632C435.313 393.866 438.959 393.142 442.36 391.734C445.761 390.326 448.851 388.261 451.454 385.658C454.056 383.055 456.121 379.965 457.529 376.564C458.938 373.163 459.662 369.518 459.661 365.837V161.194C459.659 166.116 458.362 170.95 455.899 175.211C453.435 179.473 449.894 183.01 445.63 185.468Z" fill="black"/>
<path d="M444.996 184.35L421.779 197.741L367.418 229.129L304.724 265.308L256.613 293.091L245.157 299.735C236.298 304.846 226.131 305.575 217.047 300.417C208.488 295.585 200.01 290.583 191.499 285.67L136.069 253.641L73.613 217.619L26.9874 190.701L16.7654 184.807C13.8533 183.189 11.2378 181.087 9.03085 178.592C4.12433 172.901 2.59785 166.046 2.59785 158.734V145.439C2.59785 145.095 2.46144 144.766 2.21862 144.523C1.97581 144.28 1.64647 144.144 1.30308 144.144C0.959681 144.144 0.63035 144.28 0.387533 144.523C0.144715 144.766 0.0083008 145.095 0.00830078 145.439V337.216V365.155C0.00830078 374.764 4.23336 383.732 12.0293 389.484C17.3856 393.429 23.7572 395.14 30.3402 395.14H415.461C420.763 395.14 426.079 395.174 431.387 395.14C436.44 395.141 441.41 393.856 445.829 391.404C450.247 388.953 453.969 385.417 456.642 381.129C459.995 375.677 460.956 369.646 460.956 363.411V161.194C460.956 159.524 458.387 159.524 458.366 161.194C458.326 165.881 457.074 170.479 454.731 174.539C452.388 178.599 449.034 181.984 444.996 184.364C443.558 185.216 444.86 187.458 446.304 186.599C450.728 183.988 454.401 180.278 456.968 175.829C459.535 171.381 460.909 166.344 460.956 161.208H458.366V349.836C458.366 359.942 459.811 371.486 454.087 380.366C449.037 388.196 440.348 392.557 431.135 392.584H30.4901C24.0162 392.584 17.7945 390.86 12.663 386.751C5.84843 381.299 2.61148 373.231 2.61148 364.631V145.439C2.61148 145.095 2.47507 144.766 2.23225 144.523C1.98943 144.28 1.6601 144.144 1.31671 144.144C0.973311 144.144 0.64398 144.28 0.401162 144.523C0.158344 144.766 0.0219303 145.095 0.0219303 145.439V159.354C0.0219303 166.441 1.61655 173.126 5.97109 178.857C9.3784 183.355 13.8488 186.088 18.5849 188.82L57.0262 211.016L118.221 246.349L178.006 280.865L213.524 301.371L215.759 302.665C219.185 304.624 222.966 305.883 226.883 306.369C230.8 306.854 234.774 306.557 238.574 305.493C242.759 304.294 246.418 301.97 250.159 299.817L290.515 276.565L352.072 241.027L411.311 206.825L444.703 187.526L446.311 186.612C447.749 185.754 446.441 183.512 444.996 184.35Z" fill="black"/>
<path d="M448.478 88.9998C449.943 95.4396 452.478 101.58 454.073 107.985C454.924 111.041 455.367 114.197 455.388 117.369C455.305 119.096 455.077 120.812 454.706 122.5C454.321 124.001 454.03 125.523 453.834 127.059C453.83 127.927 454.088 128.776 454.574 129.495C455.061 130.213 455.753 130.768 456.56 131.087C457.867 131.575 459.289 131.668 460.649 131.353L459.804 131.005C463.041 138.16 466.387 145.411 471.205 151.66C473.249 154.345 475.586 157.235 478.789 158.563C481.992 159.892 485.549 159.545 488.814 158.659C493.209 157.453 497.386 155.367 501.427 153.296C502.177 152.914 501.523 151.858 500.746 152.185C497.087 153.8 493.509 155.592 489.686 156.819C486.606 157.807 483.205 158.454 480.036 157.439C476.868 156.424 474.523 153.527 472.54 150.945C470.446 148.188 468.575 145.269 466.946 142.215C464.813 138.317 462.938 134.29 461.092 130.249C461.007 130.108 460.879 129.998 460.726 129.937C460.574 129.875 460.405 129.865 460.247 129.908C459.106 130.192 457.903 130.074 456.839 129.574C456.194 129.224 455.695 128.653 455.436 127.966C455.284 127.178 455.345 126.364 455.613 125.608C456.24 122.589 456.867 119.475 456.73 116.361C456.471 110.139 454.257 104.094 452.28 98.2336C451.224 95.1057 450.134 91.971 449.35 88.7613C449.207 88.1821 448.335 88.4274 448.464 88.9998H448.478Z" fill="black"/>
<path d="M466.074 107.781C466.074 107.781 466.019 107.876 466.074 107.815V107.781L466.114 107.747C466.114 107.788 466.026 107.808 466.114 107.747L466.203 107.692H466.244H466.339C466.339 107.692 466.217 107.692 466.271 107.692H466.339L466.442 107.726H466.38L466.442 107.767H466.489C466.557 107.808 466.489 107.767 466.455 107.767C466.479 107.792 466.504 107.814 466.53 107.835L466.578 107.89C466.516 107.808 466.578 107.89 466.578 107.931L466.653 108.06V108.108C466.653 108.108 466.605 107.979 466.653 108.04C466.663 108.088 466.677 108.136 466.694 108.183C466.694 108.231 466.694 108.272 466.728 108.319C466.762 108.367 466.728 108.36 466.728 108.387C466.728 108.51 466.728 108.415 466.728 108.387C466.728 108.265 466.728 108.456 466.728 108.483C466.731 108.528 466.731 108.574 466.728 108.619V108.946C466.728 108.946 466.728 109.123 466.728 109.212C466.728 109.301 466.728 109.26 466.728 109.266C466.728 109.273 466.728 109.11 466.728 109.171C466.728 109.232 466.728 109.205 466.728 109.226C466.728 109.246 466.796 109.103 466.728 109.171C466.66 109.239 466.728 109.212 466.728 109.212C466.728 109.212 466.816 109.103 466.837 109.089C466.871 109.089 466.857 109.076 466.837 109.089C466.803 109.089 467 109.028 466.932 109.048C466.864 109.069 467.109 109.048 467.028 109.048C466.946 109.048 467.157 109.048 467.137 109.048C467.116 109.048 467.055 109.014 467.137 109.048C467.218 109.082 467.171 109.048 467.137 109.048C467.246 109.151 467.014 108.967 467.137 109.048L467.096 109.008C467.021 108.933 467.143 109.069 467.137 109.069C467.13 109.069 467.068 108.953 467.062 108.939C467.059 108.924 467.059 108.907 467.062 108.892C467.021 108.817 467.116 109.055 467.062 108.96C466.989 108.737 466.932 108.509 466.891 108.278V108.476C466.855 108.214 466.839 107.95 466.844 107.685C466.844 107.59 466.825 107.495 466.788 107.406C466.751 107.318 466.698 107.238 466.63 107.17C466.562 107.102 466.482 107.048 466.393 107.012C466.305 106.975 466.21 106.956 466.114 106.956C465.923 106.963 465.742 107.042 465.606 107.177C465.471 107.313 465.392 107.494 465.385 107.685C465.359 108.046 465.384 108.409 465.46 108.762C465.522 109.092 465.637 109.41 465.801 109.703C465.999 110.023 466.303 110.264 466.66 110.384C466.886 110.444 467.126 110.427 467.342 110.336C467.558 110.245 467.737 110.084 467.852 109.88C467.991 109.565 468.041 109.219 467.995 108.878C467.993 108.53 467.943 108.183 467.845 107.849C467.752 107.523 467.57 107.23 467.32 107.001C467.069 106.773 466.761 106.618 466.428 106.554C466.238 106.533 466.046 106.552 465.864 106.609C465.682 106.667 465.514 106.762 465.372 106.888C465.234 107.018 465.133 107.18 465.076 107.361C465.02 107.541 465.012 107.733 465.051 107.917C465.082 108.023 465.149 108.115 465.242 108.175C465.335 108.236 465.446 108.26 465.556 108.244C465.664 108.227 465.764 108.173 465.837 108.091C465.91 108.009 465.953 107.904 465.958 107.795L466.074 107.781Z" fill="black"/>
<path d="M473.345 136.512C473.59 136.273 473.822 136.014 474.088 135.782L474.19 135.694C474.19 135.694 474.285 135.619 474.237 135.694L474.306 135.639L474.415 135.564C474.561 135.467 474.714 135.378 474.871 135.299L474.967 135.251L475.042 135.217H475.117L475.219 135.176C475.382 135.121 475.553 135.074 475.723 135.033H475.859C475.859 135.033 476.037 135.033 475.927 135.033C475.818 135.033 475.996 135.033 476.002 135.033H476.111H476.657C476.846 135.031 477.027 134.955 477.161 134.821C477.294 134.687 477.37 134.507 477.372 134.317C477.367 134.129 477.29 133.95 477.157 133.817C477.024 133.684 476.845 133.607 476.657 133.602C476.225 133.575 475.793 133.63 475.382 133.765C474.972 133.887 474.579 134.059 474.21 134.276C473.443 134.69 472.848 135.364 472.534 136.178C472.505 136.281 472.511 136.391 472.551 136.491C472.591 136.59 472.664 136.674 472.757 136.727C472.85 136.781 472.958 136.803 473.064 136.788C473.171 136.774 473.269 136.725 473.345 136.648V136.512Z" fill="black"/>
<path d="M491.213 103.801C487.028 102.8 483.498 99.9171 480.895 96.4961C478.292 93.0752 476.507 89.1159 474.762 85.1975L458.55 91.3852L457.112 89.259C452.697 94.135 446.807 97.4309 440.341 98.6427C437.621 89.4761 438.043 79.6632 441.541 70.7641C445.073 61.9162 451.027 54.2427 458.721 48.6234C460.35 47.3244 462.177 46.2938 464.131 45.5705C465.76 45.0253 467.539 44.8277 469.024 43.9895C469.922 43.4177 470.776 42.7799 471.58 42.0814C478.646 36.582 488.718 37.5838 497.373 39.9007C506.627 42.3895 515.525 46.0538 523.848 50.8041C529.565 54.0683 535.051 57.8913 539.371 62.8592C543.692 67.827 546.793 74.0351 547.188 80.5772C547.774 90.2199 542.656 99.1742 537.709 107.468C536.046 110.248 535.61 113.601 533.79 116.293C531.562 119.577 527.535 120.082 523.875 119.7C519.986 119.234 516.152 118.392 512.427 117.185C509.578 116.32 506.13 115.243 505.292 111.972C504.378 108.394 507.609 104.967 507.5 101.28C507.418 98.7381 505.755 96.5097 503.929 94.7584C502.716 93.5931 501.305 92.4959 499.642 92.2642C497.135 91.9099 494.709 93.668 493.509 95.8828C492.31 98.0975 491.969 100.748 491.724 103.283" fill="black"/>
<path d="M491.356 103.29C482.763 100.96 478.667 92.2913 475.328 84.8498C475.251 84.7225 475.135 84.6236 474.998 84.5683C474.86 84.5129 474.708 84.5041 474.565 84.5431L458.353 90.724L459.123 91.0374L457.685 88.9113C457.632 88.8203 457.559 88.7427 457.472 88.6845C457.384 88.6263 457.285 88.5892 457.18 88.576C457.076 88.5628 456.97 88.5739 456.871 88.6084C456.772 88.6429 456.682 88.6999 456.608 88.775C452.261 93.5464 446.48 96.7752 440.137 97.9747L440.989 98.4586C438.225 89.0536 438.8 78.9819 442.618 69.953C446.07 61.8743 451.592 54.8486 458.625 49.5841C460.398 48.1111 462.413 46.9581 464.581 46.1768C466.782 45.4954 468.84 45.1546 470.714 43.6895C472.31 42.3337 474.088 41.2075 475.996 40.3435C477.932 39.5711 479.971 39.0844 482.047 38.8988C486.263 38.5801 490.504 38.939 494.606 39.9619C499.217 41.0453 503.745 42.4572 508.154 44.187C512.762 45.9533 517.245 48.0296 521.572 50.4019C525.725 52.6033 529.662 55.1882 533.334 58.1228C540.223 63.7926 545.975 71.7521 546.425 80.9314C546.895 90.5809 541.695 99.1128 537.034 107.14C534.922 110.786 534.704 116.163 530.526 118.228C528.812 118.978 526.939 119.291 525.075 119.141C522.566 118.986 520.078 118.586 517.647 117.948C515.466 117.424 513.292 116.817 511.159 116.102C509.51 115.55 507.697 114.807 506.668 113.328C505.51 111.665 505.83 109.703 506.45 107.91C507.132 105.996 508.045 104.162 508.222 102.111C508.31 100.088 507.663 98.1011 506.403 96.5164C505.175 94.7171 503.541 93.2323 501.632 92.1823C497.68 90.281 493.768 93.1432 492.283 96.8094C491.546 98.902 491.11 101.089 490.988 103.304C490.886 104.285 492.426 104.278 492.528 103.304C492.773 100.864 493.025 98.2814 494.3 96.128C495.342 94.3834 497.285 92.857 499.418 93.0682C501.55 93.2795 503.554 95.2966 504.917 96.9662C506.355 98.7652 507.118 100.844 506.587 103.133C505.714 106.827 502.886 110.67 505.612 114.296C506.754 115.655 508.26 116.66 509.953 117.192C512.045 117.943 514.177 118.58 516.338 119.1C520.516 120.163 525.32 121.301 529.586 120.115C531.395 119.642 533 118.592 534.158 117.124C535.521 115.304 536.203 113.069 537.007 110.991C537.958 108.756 539.098 106.606 540.414 104.564C541.62 102.466 542.793 100.339 543.822 98.1519C545.952 93.9671 547.336 89.4424 547.91 84.7816C548.837 75.4524 544.421 66.6684 537.934 60.249C531.078 53.4344 522.158 48.6642 513.36 44.8343C508.818 42.865 504.154 41.1897 499.397 39.8188C495.212 38.5196 490.889 37.7101 486.517 37.4064C482.34 37.2156 478.061 37.7471 474.251 39.5939C473.4 40.0078 472.584 40.491 471.811 41.0386C470.81 41.7201 469.931 42.6264 468.881 43.267C466.905 44.4663 464.445 44.5754 462.36 45.5431C460.314 46.574 458.399 47.846 456.656 49.332C454.927 50.7096 453.286 52.1935 451.742 53.7751C448.611 56.9732 445.912 60.5678 443.715 64.4672C439.006 72.7546 437.051 82.3237 438.134 91.7939C438.423 94.1768 438.92 96.53 439.619 98.8265C439.642 98.9151 439.682 98.9981 439.738 99.0707C439.794 99.1432 439.863 99.2039 439.943 99.249C440.022 99.2942 440.11 99.3229 440.201 99.3334C440.291 99.344 440.383 99.3361 440.471 99.3104C447.045 98.0581 453.036 94.711 457.549 89.7699L456.472 89.6336L457.903 91.7598C457.979 91.8911 458.097 91.9932 458.237 92.05C458.378 92.1068 458.534 92.115 458.68 92.0733L474.933 85.8515L474.169 85.538C477.658 93.2522 482.02 102.247 491.07 104.319C491.206 104.357 491.352 104.339 491.475 104.27C491.599 104.2 491.689 104.084 491.727 103.948C491.765 103.811 491.747 103.665 491.678 103.542C491.608 103.419 491.492 103.328 491.356 103.29Z" fill="black"/>
<path d="M461.038 100.339C461.998 100.564 462.973 100.762 463.947 100.898C464.452 100.973 464.956 101.021 465.46 101.069C466.003 101.14 466.553 101.14 467.096 101.069C467.248 101.021 467.382 100.926 467.476 100.797C467.571 100.668 467.622 100.513 467.622 100.353C467.622 100.193 467.571 100.038 467.476 99.909C467.382 99.7803 467.248 99.6852 467.096 99.6375C466.59 99.5637 466.08 99.5341 465.569 99.549C465.079 99.549 464.581 99.5013 464.084 99.474C463.116 99.4195 462.148 99.3377 461.187 99.215C460.561 99.1333 460.431 100.169 461.038 100.312V100.339Z" fill="black"/>
<path d="M499.976 99.3855C497.686 99.7467 497.155 102.881 497.455 104.755C497.481 105.027 497.562 105.29 497.692 105.53C497.822 105.77 497.998 105.982 498.211 106.152C498.426 106.299 498.68 106.377 498.94 106.377C499.2 106.377 499.455 106.299 499.67 106.152C499.81 106.062 499.929 105.942 500.018 105.8C500.106 105.658 500.163 105.499 500.183 105.333C500.203 105.167 500.186 104.999 500.134 104.84C500.082 104.681 499.995 104.536 499.881 104.415C499.646 104.174 499.34 104.014 499.008 103.959C498.675 103.903 498.334 103.956 498.034 104.108C497.927 104.173 497.838 104.265 497.777 104.374C497.715 104.483 497.683 104.606 497.683 104.732C497.683 104.857 497.715 104.98 497.777 105.089C497.838 105.199 497.927 105.29 498.034 105.355C498.235 105.491 498.473 105.561 498.716 105.553C498.756 105.55 498.797 105.55 498.838 105.553C498.893 105.553 498.886 105.553 498.838 105.553H498.797C498.681 105.389 498.634 105.008 498.879 104.96H499.002C498.716 104.465 498.603 103.89 498.681 103.324C498.722 102.22 499.015 100.598 500.269 100.251C500.828 100.108 500.576 99.3242 500.031 99.4059L499.976 99.3855Z" fill="black"/>
<path d="M541.034 64.0447C537.482 59.006 535.031 53.2752 533.841 47.2258C532.652 41.1765 532.751 34.9444 534.131 28.9358C535.303 23.9816 537.416 19.1432 540.946 15.4565C547.079 9.00303 556.619 6.9382 565.533 7.27893C574.446 7.61966 583.115 10.0593 591.946 11.1701C598.556 12.0083 605.255 12.1037 611.831 13.1736C613.14 13.3916 614.557 13.7119 615.375 14.7682C615.919 15.6456 616.202 16.6594 616.193 17.6917C616.811 25.7092 616.617 33.7688 615.613 41.7473C615.32 44.0302 614.884 46.4834 613.235 48.0917C609.889 51.3627 604.274 49.1411 599.695 50.0884C601.797 52.0847 604.552 53.2515 607.45 53.373C608.022 53.3226 608.595 53.464 609.078 53.7751C609.266 53.9821 609.41 54.2242 609.504 54.4873C609.597 54.7504 609.638 55.0295 609.623 55.3084C609.765 58.4311 608.966 61.5243 607.331 64.1885C605.696 66.8526 603.299 68.965 600.451 70.2528C594.945 72.6175 588.641 71.5612 582.733 70.4572L551.052 64.549C547.304 63.8675 543.017 63.2678 540.033 65.6393" fill="black"/>
<path d="M541.477 63.779C535.277 54.6867 532.689 43.6094 534.22 32.7112C535.017 27.3412 536.796 21.8078 540.23 17.5486C543.52 13.6133 547.96 10.8062 552.926 9.52102C564.429 6.27727 576.225 9.58235 587.68 11.4564C593.991 12.4854 600.362 12.7648 606.714 13.4258C608.342 13.5962 609.971 13.787 611.593 14.0596C612.724 14.2504 614.162 14.4616 614.796 15.552C615.429 16.6423 615.341 18.4141 615.416 19.7021C615.511 21.3171 615.579 22.9322 615.607 24.5541C615.668 27.7842 615.607 31.0279 615.395 34.2581C615.266 37.3603 614.925 40.45 614.373 43.5055C613.869 45.9928 612.676 48.1122 610.073 48.7596C607.777 49.332 605.303 48.9368 602.986 48.9095C601.787 48.8833 600.589 48.9769 599.408 49.1889C599.252 49.2355 599.111 49.3214 598.998 49.4386C598.885 49.5557 598.804 49.6999 598.763 49.8575C598.722 50.015 598.722 50.1805 598.763 50.3379C598.805 50.4953 598.886 50.6394 598.999 50.7563C601.046 52.6912 603.659 53.9188 606.455 54.259C606.952 54.3203 607.954 54.1704 608.37 54.4702C608.785 54.7701 608.663 55.8331 608.656 56.3102C608.638 57.5466 608.455 58.7752 608.111 59.9628C607.399 62.4797 606.026 64.7595 604.133 66.5647C602.24 68.3698 599.898 69.6341 597.35 70.2256C591.272 71.5885 584.791 69.8576 578.815 68.74C572.034 67.4725 565.253 66.2186 558.473 64.9307C555.004 64.2492 551.529 63.4519 548.019 63.043C545.096 62.7023 541.886 62.8726 539.481 64.7262C539.243 64.8746 539.07 65.1078 538.998 65.3787C538.926 65.6495 538.96 65.9376 539.092 66.1846C539.163 66.3059 539.258 66.412 539.37 66.4969C539.482 66.5817 539.609 66.6436 539.746 66.6791C539.882 66.7145 540.023 66.7228 540.163 66.7034C540.302 66.684 540.436 66.6374 540.557 66.5662C542.833 64.8284 545.689 64.8148 548.421 65.1624C551.781 65.5849 555.12 66.3345 558.446 66.941C565.458 68.2221 572.456 69.551 579.462 70.8526C585.711 72.0179 592.41 73.6874 598.727 71.8952C601.317 71.1316 603.681 69.7465 605.614 67.8604C607.546 65.9743 608.988 63.6444 609.814 61.0736C610.271 59.6929 610.531 58.2543 610.584 56.8008C610.639 55.4379 610.686 53.6048 609.337 52.8075C608.65 52.5028 607.9 52.3672 607.15 52.4122C606.31 52.3541 605.48 52.1986 604.676 51.9488C603.052 51.4527 601.563 50.5927 600.321 49.4342L599.906 50.9948C604.547 50.0884 610.639 52.5417 614.216 48.3643C616.09 46.1837 616.349 43.158 616.656 40.4253C617.044 37.018 617.283 33.6448 617.378 30.2443C617.474 26.8438 617.419 23.3206 617.215 19.8656C617.239 18.3678 617.063 16.8734 616.69 15.4225C616.48 14.8266 616.14 14.285 615.694 13.837C615.249 13.3891 614.709 13.0461 614.114 12.8329C612.723 12.3757 611.281 12.0897 609.821 11.9811C608.172 11.763 606.516 11.5859 604.86 11.4359C601.453 11.1293 597.991 10.9248 594.563 10.5773C581.963 9.30976 569.458 4.90071 556.694 6.9042C551.406 7.72877 546.227 9.67776 542.104 13.16C537.722 16.8535 535.051 22.1485 533.613 27.6206C530.725 38.8195 532.363 50.7052 538.172 60.7056C538.908 61.9459 539.712 63.1452 540.571 64.3105C540.966 64.8421 541.866 64.3446 541.477 63.779Z" fill="black"/>
<path d="M506.579 167.866C505.939 165.385 505.441 162.83 504.651 160.37C503.86 157.909 502.743 155.599 501.761 153.221C501.434 152.424 500.112 152.778 500.446 153.582C501.441 155.954 502.606 158.277 503.499 160.69C504.392 163.102 504.978 165.63 505.714 168.084C505.751 168.192 505.828 168.282 505.929 168.335C506.031 168.388 506.148 168.401 506.259 168.371C506.369 168.34 506.463 168.269 506.523 168.171C506.582 168.074 506.603 167.957 506.579 167.845V167.866Z" fill="black"/>
<path d="M543.944 142.645C541.443 138.651 538.956 134.637 536.796 130.453C534.966 126.851 533.372 123.134 532.025 119.325C531.569 118.057 531.112 116.79 530.662 115.516C530.234 114.012 529.71 112.537 529.095 111.1C528.72 110.343 527.657 110.902 527.8 111.645C528.156 113.01 528.611 114.347 529.163 115.645C529.581 116.817 530.006 117.982 530.438 119.141C531.18 121.097 531.957 123.039 532.802 124.947C534.433 128.61 536.3 132.163 538.39 135.585C539.923 138.126 541.525 140.621 543.16 143.081C543.481 143.571 544.271 143.122 543.958 142.617L543.944 142.645Z" fill="black"/>
<path d="M535.29 57.1963C536.653 58.9681 538.016 60.7126 539.379 62.4435C540.646 64.0177 541.948 65.66 543.672 66.7572C544.469 67.2683 545.232 66.1507 544.646 65.4965C543.188 63.8814 541.743 62.2595 540.258 60.6717C538.893 59.1562 537.356 57.8046 535.678 56.6443C534.792 56.0651 534.009 57.4552 534.854 58.0549C538.52 60.6744 541.924 63.6411 545.021 66.9139C545.743 67.6772 546.902 66.5187 546.173 65.7554C542.977 62.3929 539.462 59.3484 535.678 56.6647L534.901 58.0549C536.508 59.1773 537.975 60.4883 539.27 61.9597C540.714 63.5066 542.125 65.0808 543.556 66.6277L544.53 65.367C542.881 64.3448 541.709 62.7229 540.442 61.2782C538.997 59.7041 537.552 58.1367 536.067 56.6034C535.706 56.2354 535.01 56.7397 535.338 57.169L535.29 57.1963Z" fill="#F36E39"/>
<path d="M503.765 187.737L496.357 176.833C510.731 163.748 526.566 152.365 543.549 142.91C546.602 141.207 550.97 139.782 553.144 142.529C554.207 143.857 554.248 145.704 554.745 147.333C556.612 153.412 564.02 155.286 569.914 157.684C595.626 168.124 612.703 195.281 618.346 221.585C625.126 253.212 629.536 285.554 630.674 317.889C631.123 330.619 614.877 335.055 605.139 337.468C588.298 341.624 571.246 344.948 553.982 347.437C536.666 349.918 519.364 351.846 501.836 350.667C498.634 350.449 495.247 349.27 493.502 346.579C490.776 342.395 492.017 335.403 491.669 330.639C491.233 324.683 490.436 318.761 489.441 312.874C487.396 300.853 484.582 289.022 482.217 277.049C480.895 270.33 479.716 263.543 479.634 256.701C479.559 249.559 480.677 242.451 482.108 235.453C485.59 218.416 493.059 201.475 503.738 187.75" fill="white"/>
<path d="M504.154 187.505C501.748 183.825 499.384 180.111 496.93 176.459L496.828 177.27C504.308 170.5 512.181 164.179 520.407 158.339C524.495 155.436 528.666 152.658 532.918 150.004C535.044 148.678 537.189 147.383 539.351 146.12C541.332 144.884 543.38 143.757 545.484 142.747C547.147 142.004 549.294 141.289 551.107 141.916C553.362 142.692 553.43 145.241 553.962 147.19C554.909 150.645 557.642 153.017 560.708 154.638C564.082 156.417 567.775 157.487 571.257 159.027C574.991 160.687 578.562 162.693 581.922 165.017C595.64 174.476 605.773 188.725 612.097 203.997C615.505 212.174 617.474 220.645 619.225 229.299C621.37 239.939 623.232 250.627 624.813 261.362C626.39 272.17 627.637 283.021 628.555 293.916C629.009 299.317 629.379 304.726 629.665 310.141C629.809 312.792 629.979 315.457 630.02 318.107C630.056 319.705 629.786 321.294 629.222 322.789C626.919 328.834 620.173 332.016 614.482 334.033C611.566 335.062 608.574 335.88 605.576 336.623C600.578 337.877 595.556 339.049 590.509 340.139C579.896 342.442 569.22 344.414 558.48 346.054C547.638 347.71 536.741 349.148 525.77 349.857C520.318 350.211 514.866 350.368 509.415 350.259C506.743 350.211 504.045 350.157 501.38 349.898C499.236 349.758 497.179 348.993 495.465 347.696C492.262 345.046 492.351 340.2 492.392 336.446C492.392 334.497 492.501 332.548 492.392 330.605C492.215 327.88 491.922 325.195 491.594 322.503C490.272 311.729 488.037 301.098 485.782 290.474C483.526 279.85 480.821 269.131 480.439 258.261C480.305 252.805 480.716 247.349 481.666 241.975C482.468 236.984 483.548 232.043 484.903 227.173C487.567 217.718 491.402 208.632 496.317 200.126C498.707 195.999 501.373 192.037 504.297 188.269C504.903 187.492 503.813 186.388 503.2 187.171C490.77 203.186 483.233 222.43 480.085 242.37C479.17 247.75 478.791 253.208 478.953 258.664C479.261 264.098 479.967 269.503 481.066 274.835C483.172 285.915 485.836 296.887 487.881 307.974C488.923 313.596 489.836 319.245 490.463 324.929C490.729 327.355 491.015 329.794 491.049 332.234C491.083 334.367 490.968 336.5 491.049 338.633C491.145 342.456 491.731 346.654 495.029 349.08C498.784 351.853 504.038 351.533 508.461 351.642C519.623 351.815 530.783 351.175 541.852 349.727C552.987 348.364 564.072 346.667 575.108 344.637C585.652 342.683 596.133 340.412 606.55 337.822C612.786 336.241 619.341 334.36 624.595 330.503C627.106 328.763 629.094 326.372 630.347 323.586C631.976 319.688 631.287 315.273 631.09 311.177C630.558 300.001 629.65 288.855 628.364 277.738C627.11 266.752 625.534 255.813 623.635 244.918C622.685 239.439 621.661 233.988 620.561 228.563C619.621 223.909 618.701 219.241 617.392 214.675C612.731 198.45 604.158 182.919 591.878 171.225C585.858 165.409 578.838 160.725 571.155 157.398C567.612 155.892 563.829 154.822 560.497 152.853C558.857 151.951 557.455 150.671 556.408 149.119C555.284 147.326 555.298 145.248 554.493 143.34C552.831 139.415 548.36 139.973 545.096 141.364C542.986 142.353 540.938 143.471 538.963 144.71C536.691 146.032 534.44 147.394 532.21 148.798C523.552 154.21 515.234 160.148 507.302 166.578C503.409 169.731 499.615 173.002 495.922 176.391C495.82 176.495 495.754 176.63 495.735 176.775C495.715 176.92 495.742 177.067 495.813 177.195C498.293 180.841 500.869 184.418 503.404 188.023C503.738 188.493 504.508 188.064 504.188 187.567L504.154 187.505Z" fill="black"/>
<path d="M513.094 297.793C512.29 299.156 511.493 300.471 510.682 301.807C503.833 313.112 497.169 325.78 486.988 334.217C451.449 363.683 407.55 331.437 386.486 300.301C370.062 276.02 354.314 252.21 345.55 223.868C344.794 221.415 344.133 218.587 345.503 216.419C346.299 215.334 347.334 214.445 348.528 213.823C353.724 210.625 359.144 207.807 364.747 205.393C365.674 204.991 366.751 204.603 367.671 205.025C368.302 205.399 368.811 205.949 369.136 206.606C377.869 220.686 389.072 233.074 402.207 243.174C418.692 255.835 438.038 264.735 453.167 278.998C453.753 279.543 454.373 280.211 454.339 281.042C454.305 281.874 453.133 282.467 452.69 281.799L460.39 266.807" fill="white"/>
<path d="M368.734 206.838C376.121 219.738 386.193 231.112 397.621 240.577C409.206 250.2 422.467 257.457 434.944 265.832C438.42 268.163 441.841 270.603 445.132 273.172C446.791 274.467 448.408 275.807 449.984 277.192C450.798 277.901 451.595 278.626 452.376 279.366C452.754 279.668 453.083 280.027 453.351 280.429C453.446 280.586 453.589 280.838 453.494 281.029C453.398 281.22 453.303 281.227 453.262 281.179L453.392 282.174C455.958 277.177 458.53 272.179 461.106 267.182C461.59 266.241 460.165 265.403 459.681 266.35C457.115 271.348 454.548 276.345 451.981 281.343C451.895 281.5 451.861 281.68 451.885 281.858C451.908 282.035 451.987 282.201 452.11 282.331C453.071 283.435 454.836 282.59 455.116 281.302C455.49 279.489 453.385 278.051 452.233 277.008C449.351 274.412 446.318 271.979 443.204 269.662C436.825 264.892 430.086 260.708 423.366 256.462C416.647 252.217 409.914 247.944 403.563 243.174C397.273 238.388 391.396 233.081 385.995 227.309C379.94 220.798 374.436 213.796 369.538 206.375C369.475 206.268 369.373 206.191 369.254 206.16C369.134 206.128 369.007 206.146 368.901 206.208C368.794 206.27 368.716 206.372 368.685 206.492C368.654 206.611 368.671 206.739 368.734 206.845V206.838Z" fill="black"/>
<path d="M513.591 299.088C504.508 313.644 494.885 329.127 479.886 338.285C473.544 342.21 466.359 344.567 458.925 345.161C451.906 345.593 444.872 344.639 438.222 342.354C424.02 337.645 411.549 328.309 401.246 317.63C396.14 312.302 391.505 306.543 387.392 300.417C382.431 293.084 377.497 285.724 372.795 278.221C363.5 263.413 355.077 247.965 349.284 231.439C348.562 229.367 347.88 227.282 347.24 225.183C346.926 224.175 345.339 224.604 345.652 225.619C350.961 242.785 359.091 258.882 368.406 274.194C373.054 281.826 377.947 289.288 382.955 296.682C387.324 303.17 391.746 309.528 396.966 315.368C407.025 326.667 419.291 336.534 433.363 342.34C440.092 345.183 447.289 346.752 454.591 346.967C461.917 347.09 469.175 345.53 475.804 342.408C483.45 338.817 489.999 333.249 495.615 327C501.388 320.412 506.491 313.265 510.845 305.664C512.045 303.62 513.21 301.575 514.382 299.531C514.444 299.424 514.462 299.297 514.43 299.178C514.399 299.058 514.322 298.956 514.215 298.894C514.162 298.863 514.104 298.843 514.043 298.834C513.983 298.826 513.921 298.83 513.862 298.845C513.742 298.876 513.64 298.954 513.578 299.061L513.591 299.088Z" fill="black"/>
<path d="M525.361 178.973C519.371 182.476 512.577 184.377 506.416 187.573C489.959 196.105 479.607 212.788 470.06 228.672L453.514 256.231C451.402 259.747 449.214 263.584 449.589 267.672C449.93 271.38 452.315 274.548 454.843 277.295C466.271 289.707 481.582 297.861 498.259 300.417C504.597 301.364 511.738 301.255 516.577 297.05C518.792 295.129 520.291 292.532 521.742 289.99L548.053 244.073" fill="white"/>
<path d="M525.122 178.599C521.034 180.854 516.665 182.408 512.359 184.159C508.471 185.671 504.742 187.561 501.224 189.802C494.695 194.109 489.175 199.69 484.351 205.782C479.355 212.072 475.069 218.88 470.912 225.742C465.903 234.022 460.942 242.322 455.961 250.615C454.686 252.742 453.385 254.861 452.131 257.001C450.948 258.906 449.999 260.947 449.303 263.079C448.083 267.236 449.146 271.202 451.613 274.664C454.045 277.91 456.839 280.869 459.941 283.482C469.137 291.567 480.173 297.276 492.085 300.11C499.329 301.827 508.127 303.224 514.907 299.285C518.56 297.159 520.686 293.534 522.71 289.956C525.181 285.572 527.655 281.193 530.131 276.818C535.033 268.154 539.949 259.502 544.878 250.861L548.571 244.373C548.651 244.237 548.673 244.074 548.633 243.922C548.592 243.769 548.493 243.638 548.357 243.559C548.22 243.479 548.058 243.457 547.905 243.498C547.752 243.538 547.622 243.637 547.542 243.774C542.686 252.196 537.825 260.619 532.959 269.042C530.529 273.244 528.089 277.449 525.64 281.656L521.954 287.966C520.884 289.813 519.855 291.708 518.621 293.418C516.398 296.633 512.992 298.838 509.149 299.551C505.374 300.321 501.421 300.015 497.646 299.401C489.909 298.136 482.425 295.64 475.478 292.007C468.453 288.354 462.057 283.601 456.533 277.928C453.807 275.114 450.741 271.795 450.352 267.706C449.923 263.222 452.663 259.161 454.864 255.501L469.856 230.546C473.87 223.854 477.89 217.162 482.449 210.825C486.933 204.596 491.99 198.702 498.027 193.904C501.077 191.479 504.373 189.383 507.861 187.648C511.786 185.686 515.916 184.186 519.902 182.353C521.848 181.471 523.743 180.482 525.579 179.389C525.679 179.33 525.752 179.234 525.781 179.122C525.811 179.009 525.794 178.89 525.736 178.789C525.677 178.689 525.581 178.616 525.468 178.587C525.356 178.557 525.236 178.574 525.136 178.633L525.122 178.599Z" fill="black"/>
<path d="M347.302 224.093C345.792 224.152 344.28 224.074 342.784 223.861C341.384 223.576 340.03 223.103 338.756 222.457C336.168 221.135 333.883 219.29 332.044 217.04C330.202 214.759 328.633 212.271 327.369 209.625C326.824 208.528 326.463 207.247 325.134 206.947C323.448 206.629 321.743 206.42 320.03 206.32C319.171 206.239 318.96 207.717 319.825 207.847C320.691 207.976 321.501 208.079 322.34 208.181L323.662 208.344C324.127 208.328 324.591 208.406 325.025 208.576C325.481 208.89 325.754 209.939 325.999 210.416C326.299 211.009 326.612 211.602 326.94 212.181C328.347 214.784 330.088 217.192 332.119 219.343C334.088 221.404 336.468 223.029 339.104 224.113C341.543 225.088 344.821 225.824 347.404 224.952C347.504 224.92 347.589 224.855 347.645 224.767C347.701 224.679 347.725 224.574 347.711 224.47C347.697 224.366 347.647 224.271 347.57 224.201C347.492 224.131 347.392 224.09 347.288 224.086L347.302 224.093Z" fill="black"/>
<path d="M320.384 198.238C323.162 197.782 325.995 197.782 328.773 198.238C329.502 198.375 329.809 197.257 329.08 197.134C326.119 196.572 323.072 196.654 320.146 197.373C319.566 197.523 319.825 198.32 320.384 198.245V198.238Z" fill="black"/>
<path d="M324.759 189.229C327.444 188.664 330.238 188.95 332.753 190.047C333.386 190.327 333.932 189.366 333.298 189.114C330.53 187.919 327.449 187.658 324.521 188.371C323.962 188.507 324.2 189.345 324.759 189.229Z" fill="black"/>
<path d="M330.66 179.893L338.504 180.255C340.916 180.364 343.41 180.323 345.741 181.011C348.072 181.699 349.83 183.287 351.492 184.929C353.153 186.638 354.652 188.498 355.97 190.483C356.073 190.664 356.243 190.796 356.444 190.851C356.645 190.906 356.859 190.879 357.04 190.776C357.22 190.673 357.353 190.503 357.408 190.302C357.463 190.101 357.436 189.887 357.333 189.706C356.097 187.559 354.574 185.59 352.808 183.853C351.077 182.108 349.148 180.391 346.77 179.634C344.392 178.878 341.836 178.953 339.376 178.953H330.694C330.562 178.953 330.436 179.005 330.342 179.099C330.249 179.192 330.197 179.318 330.197 179.45C330.197 179.582 330.249 179.709 330.342 179.802C330.436 179.895 330.562 179.948 330.694 179.948L330.66 179.893Z" fill="black"/>
<path d="M356.685 180.752C361.292 182.428 364.181 186.824 365.626 191.315C366.455 194.095 366.987 196.955 367.214 199.847C367.371 201.339 367.5 202.831 367.657 204.324C367.814 205.816 367.8 207.492 368.338 208.815C368.386 208.985 368.494 209.133 368.642 209.23C368.79 209.328 368.968 209.369 369.143 209.346C369.319 209.323 369.48 209.237 369.598 209.104C369.715 208.972 369.781 208.801 369.783 208.624C369.743 207.77 369.638 206.92 369.469 206.082C369.354 205.23 369.265 204.378 369.176 203.526C369.013 201.925 368.87 200.324 368.679 198.756C368.422 195.806 367.8 192.898 366.825 190.102C365.06 185.536 361.844 181.243 356.937 179.921C356.881 179.905 356.822 179.9 356.764 179.908C356.706 179.915 356.65 179.933 356.599 179.962C356.548 179.991 356.503 180.029 356.467 180.075C356.431 180.121 356.404 180.174 356.389 180.231C356.373 180.287 356.369 180.346 356.376 180.404C356.383 180.462 356.401 180.518 356.43 180.569C356.459 180.62 356.498 180.665 356.544 180.701C356.59 180.737 356.642 180.764 356.699 180.779L356.685 180.752Z" fill="black"/>
<path d="M460.22 207.418C470.925 201.557 481.638 195.676 492.875 190.865C494.439 190.142 496.048 189.523 497.693 189.011C498.442 188.786 499.216 188.657 499.997 188.63C500.832 188.665 501.664 188.765 502.484 188.929C503.383 189.045 503.779 187.567 502.954 187.192C500.228 185.992 497.216 187.076 494.654 188.2C491.73 189.488 488.855 190.892 485.999 192.323C480.307 195.185 474.683 198.172 469.126 201.284C465.987 203.038 462.855 204.803 459.729 206.579C459.618 206.644 459.537 206.751 459.505 206.876C459.472 207 459.49 207.133 459.555 207.244C459.62 207.355 459.727 207.436 459.852 207.468C459.976 207.501 460.109 207.483 460.22 207.418Z" fill="black"/>
<path d="M215.67 151.558L180.118 256.735C179.839 257.559 179.782 258.443 179.953 259.296C180.123 260.15 180.516 260.943 181.091 261.597C181.665 262.25 182.402 262.741 183.227 263.019C184.052 263.297 184.935 263.353 185.788 263.182L294.652 241.375C295.503 241.2 296.293 240.805 296.943 240.228C297.594 239.652 298.081 238.915 298.357 238.091C298.633 237.267 298.688 236.386 298.516 235.534C298.344 234.682 297.952 233.891 297.378 233.238L224.093 149.875C223.518 149.222 222.782 148.731 221.957 148.452C221.133 148.174 220.25 148.117 219.396 148.287C218.543 148.458 217.749 148.85 217.095 149.424C216.441 149.998 215.95 150.734 215.67 151.558Z" fill="black"/>
<path d="M214.423 151.211L212.113 158.025L206.253 175.362L198.47 198.388L190.334 222.444L183.417 242.888L179.328 254.936C178.837 256.081 178.571 257.309 178.544 258.555C178.63 260.081 179.263 261.525 180.329 262.62C181.395 263.716 182.82 264.39 184.344 264.517C185.047 264.553 185.751 264.489 186.436 264.326C189.652 263.69 192.864 263.048 196.072 262.398L215.534 258.5L240.067 253.593L264.674 248.667L284.437 244.714L294.55 242.67C297.562 242.063 299.885 239.719 299.947 236.536C299.988 234.492 298.931 232.959 297.664 231.514L289.868 222.655L276 206.886L259.304 187.976L243.024 169.46L230.506 155.218C228.686 153.173 226.894 151.047 225.054 149.01C224.325 148.184 223.39 147.567 222.345 147.219C221.299 146.872 220.181 146.808 219.102 147.033C218.024 147.258 217.024 147.764 216.205 148.5C215.386 149.236 214.776 150.176 214.437 151.224C213.871 152.798 216.372 153.473 216.938 151.906C217.119 151.415 217.403 150.968 217.769 150.595C218.136 150.222 218.578 149.931 219.066 149.742C219.554 149.552 220.076 149.469 220.599 149.496C221.121 149.524 221.632 149.662 222.097 149.902C222.592 150.194 223.031 150.572 223.391 151.02C224.114 151.829 224.832 152.644 225.545 153.466L235.453 164.738L250.33 181.658L266.998 200.617L282.324 218.048L293.159 230.376L295.885 233.504C296.996 234.758 297.78 236.23 297.051 237.954C296.369 239.589 294.884 239.998 293.337 240.332L289.118 241.177L272.913 244.421L250.084 248.994L225.334 253.948L203.391 258.336L188.719 261.274L185.666 261.88C185.022 262.025 184.35 261.996 183.721 261.795C183.092 261.594 182.529 261.229 182.088 260.737C181.648 260.245 181.347 259.644 181.216 258.997C181.085 258.35 181.13 257.68 181.345 257.055C182.136 254.568 183.015 252.108 183.853 249.641L189.7 232.352L197.4 209.564L205.428 185.822L212.243 165.699L216.331 153.528L216.883 151.906C217.456 150.318 214.955 149.636 214.423 151.211Z" fill="black"/>
<path d="M229.402 220.631C225.682 214.542 223.1 207.827 221.783 200.814C221.279 198.122 220.965 195.322 221.654 192.671C222.342 190.02 224.223 187.533 226.853 186.797C227.429 186.614 228.036 186.55 228.638 186.606C229.239 186.662 229.823 186.838 230.356 187.124C231.346 187.822 232.119 188.786 232.584 189.904C236.959 198.531 237.525 208.692 236.032 218.246C235.957 219.003 235.744 219.739 235.406 220.42C234.926 221.178 234.167 221.716 233.293 221.917C232.419 222.119 231.501 221.968 230.738 221.497" fill="#F36E39"/>
<path d="M229.811 220.393C227.08 215.853 224.977 210.963 223.562 205.857C222.792 203.237 222.261 200.552 221.974 197.836C221.749 195.26 221.974 192.589 223.337 190.34C224.523 188.459 226.792 186.776 229.136 187.349C230.404 187.662 231.18 188.712 231.732 189.775C232.341 190.917 232.874 192.099 233.327 193.311C235.101 198.111 236.01 203.187 236.012 208.304C236.042 211.214 235.852 214.123 235.446 217.006C235.276 218.232 235.228 219.868 234.158 220.686C233.721 221.013 233.196 221.202 232.651 221.228C232.105 221.253 231.564 221.114 231.099 220.829C230.274 220.318 229.524 221.613 230.342 222.124C231.246 222.67 232.324 222.854 233.359 222.638C234.393 222.422 235.307 221.822 235.917 220.958C236.68 219.8 236.768 218.294 236.946 216.958C237.143 215.466 237.3 213.967 237.389 212.467C237.829 206.578 237.161 200.658 235.419 195.015C234.977 193.649 234.458 192.309 233.865 191.001C233.371 189.758 232.701 188.592 231.876 187.539C230.104 185.495 227.105 185.543 224.931 186.892C219.814 190.061 220.291 196.76 221.361 201.85C222.78 208.576 225.356 215.004 228.972 220.849C229.043 220.942 229.145 221.005 229.259 221.028C229.373 221.05 229.492 221.03 229.592 220.972C229.692 220.913 229.768 220.82 229.805 220.71C229.841 220.599 229.836 220.479 229.79 220.372L229.811 220.393Z" fill="#F36E39"/>
<path d="M237.041 229.231C233.259 227.807 232.189 234.56 233.279 236.877C233.753 237.89 234.559 238.709 235.563 239.199C236.568 239.689 237.71 239.819 238.799 239.569C244.319 237.961 240.878 230.71 236.755 229.667" fill="#F36E39"/>
<path d="M237.157 228.788C232.673 227.01 231.31 234.608 232.782 237.422C233.121 238.078 233.589 238.659 234.157 239.13C234.725 239.601 235.382 239.953 236.09 240.165C236.797 240.377 237.539 240.444 238.273 240.363C239.007 240.281 239.716 240.053 240.36 239.692C242.336 238.506 242.772 236.175 242.084 234.104C241.314 231.78 239.406 229.572 236.987 228.931C236.792 228.877 236.583 228.903 236.406 229.002C236.23 229.102 236.101 229.268 236.046 229.463C235.992 229.658 236.018 229.867 236.117 230.043C236.217 230.22 236.383 230.349 236.578 230.403C237.398 230.667 238.153 231.098 238.797 231.669C239.442 232.241 239.96 232.94 240.319 233.722C241.001 235.037 241.307 236.809 240.224 237.94C238.581 239.658 235.787 239.085 234.397 237.368C233.395 236.128 233.402 234.254 233.716 232.659C234.029 231.064 234.963 229.047 236.912 229.674C237.484 229.858 237.689 228.993 237.15 228.788H237.157Z" fill="#F36E39"/>
<path d="M148.867 364.978C159.602 357.482 170.387 350.045 181.223 342.667C192.058 335.289 202.988 327.984 214.014 320.752C220.188 316.704 226.397 312.71 232.571 308.669C233.211 308.247 232.618 307.218 231.964 307.633C220.89 314.618 209.98 321.869 199.097 329.147C188.214 336.425 177.29 343.86 166.503 351.376C160.447 355.597 154.418 359.854 148.417 364.147C147.926 364.501 148.417 365.312 148.894 364.965L148.867 364.978Z" fill="#F36E39"/>
<path d="M140.887 367.922V368.883C140.887 368.948 140.9 369.013 140.925 369.073C140.95 369.133 140.986 369.187 141.033 369.233C141.079 369.278 141.134 369.314 141.194 369.339C141.255 369.363 141.319 369.375 141.384 369.374C141.501 369.37 141.612 369.324 141.698 369.244C141.788 369.151 141.84 369.027 141.841 368.897V367.936C141.849 367.867 141.842 367.798 141.822 367.731C141.801 367.665 141.766 367.604 141.72 367.552C141.674 367.501 141.618 367.459 141.554 367.431C141.491 367.402 141.423 367.388 141.353 367.388C141.284 367.388 141.216 367.402 141.152 367.431C141.089 367.459 141.033 367.501 140.987 367.552C140.941 367.604 140.906 367.665 140.885 367.731C140.865 367.798 140.858 367.867 140.866 367.936L140.887 367.922Z" fill="#F36E39"/>
<path d="M133.52 371.459C133.52 371.779 133.486 372.1 133.486 372.42V373.388C133.488 373.519 133.541 373.645 133.634 373.738C133.727 373.83 133.852 373.883 133.984 373.885C134.116 373.883 134.242 373.831 134.336 373.738C134.43 373.645 134.485 373.52 134.488 373.388V372.42C134.488 372.1 134.488 371.779 134.454 371.459C134.462 371.394 134.456 371.328 134.436 371.265C134.417 371.203 134.384 371.145 134.341 371.096C134.297 371.047 134.244 371.007 134.184 370.981C134.124 370.954 134.06 370.94 133.994 370.94C133.928 370.94 133.864 370.954 133.804 370.981C133.744 371.007 133.691 371.047 133.647 371.096C133.604 371.145 133.571 371.203 133.552 371.265C133.532 371.328 133.526 371.394 133.534 371.459H133.52Z" fill="#F36E39"/>
<path d="M126.406 376.004C125.707 376.28 125.13 376.798 124.78 377.463C124.429 378.128 124.329 378.897 124.498 379.63C124.517 379.7 124.549 379.766 124.594 379.823C124.639 379.881 124.694 379.929 124.758 379.964C124.821 380 124.891 380.022 124.964 380.03C125.036 380.039 125.109 380.032 125.179 380.011C125.32 379.972 125.44 379.878 125.513 379.75C125.586 379.623 125.605 379.472 125.568 379.33C125.568 379.255 125.568 379.18 125.527 379.105C125.527 379.241 125.486 379.03 125.527 379.105C125.527 378.969 125.527 379.037 125.527 379.003C125.506 378.86 125.506 378.716 125.527 378.574C125.527 378.655 125.527 378.642 125.527 378.574V378.471L125.588 378.253C125.588 378.192 125.629 378.124 125.656 378.062C125.683 378.001 125.609 378.158 125.656 378.062C125.704 377.967 125.656 377.987 125.704 377.947C125.765 377.825 125.834 377.706 125.908 377.592L125.983 377.497C125.949 377.531 125.942 377.551 125.983 377.497C126.025 377.444 126.071 377.394 126.12 377.347L126.283 377.19H126.324H126.372C126.493 377.104 126.624 377.031 126.76 376.972C126.865 376.911 126.944 376.813 126.981 376.697C127.019 376.582 127.013 376.457 126.965 376.345C126.919 376.234 126.834 376.143 126.726 376.091C126.618 376.038 126.494 376.027 126.379 376.059L126.406 376.004Z" fill="#F36E39"/>
<path d="M501.728 370.771C503.772 372.229 506.001 373.578 508.543 373.776C509.599 373.894 510.669 373.755 511.66 373.372C512.652 372.989 513.537 372.372 514.24 371.575C514.93 370.673 515.372 369.607 515.521 368.481C515.607 367.931 515.653 367.375 515.657 366.818C515.633 366.503 515.633 366.186 515.657 365.871C515.752 365.36 516.073 365.496 516.454 365.626C517.479 366.069 518.576 366.321 519.691 366.368C520.827 366.355 521.939 366.042 522.915 365.462C523.983 364.799 524.823 363.824 525.319 362.669C525.815 361.513 525.944 360.233 525.688 359.002L524.468 359.683C525.385 360.576 526.589 361.115 527.866 361.202C529.143 361.29 530.41 360.92 531.44 360.16C532.574 359.231 533.306 357.901 533.484 356.446C533.804 354.661 534.111 352.358 533.484 350.613C533.437 350.472 533.341 350.351 533.215 350.272C533.088 350.194 532.938 350.162 532.79 350.182C532.642 350.202 532.506 350.273 532.405 350.383C532.304 350.493 532.245 350.634 532.237 350.783C532.087 352.249 532.326 353.727 532.155 355.206C532.012 356.467 531.76 357.932 530.758 358.804C530.019 359.437 529.07 359.772 528.098 359.743C527.125 359.714 526.198 359.323 525.497 358.647C525.382 358.545 525.238 358.48 525.085 358.463C524.932 358.446 524.777 358.477 524.642 358.552C524.507 358.627 524.399 358.742 524.332 358.881C524.266 359.02 524.244 359.177 524.271 359.329C524.395 360.015 524.365 360.72 524.184 361.393C524.003 362.067 523.674 362.691 523.223 363.223C522.771 363.754 522.207 364.178 521.572 364.465C520.937 364.752 520.245 364.895 519.548 364.883C518.91 364.88 518.278 364.762 517.681 364.535C517.151 364.275 516.583 364.1 515.998 364.017C514.737 363.963 514.253 364.944 514.294 366.062C514.342 367.486 514.355 368.924 513.613 370.205C513.276 370.779 512.822 371.275 512.281 371.661C511.74 372.047 511.123 372.315 510.471 372.447C507.452 373.169 504.577 371.527 502.178 369.878C501.673 369.53 501.217 370.341 501.701 370.696L501.728 370.771Z" fill="white"/>
<path d="M495.99 392.216C497.713 394.234 500.092 395.58 502.709 396.018C505.325 396.457 508.013 395.96 510.3 394.615C511.595 393.811 512.624 392.673 513.885 391.835C515.411 390.826 517.013 390.819 518.771 391.058C521.585 391.439 524.434 391.63 526.369 389.17C528.189 386.853 528.468 383.609 528.516 380.768L527.432 381.395C528.885 382.062 530.469 382.394 532.068 382.366C533.666 382.337 535.238 381.95 536.666 381.231C538.13 380.503 539.396 379.429 540.353 378.103C541.286 376.822 542.043 375.159 543.494 374.369C544.271 373.946 545.191 373.933 546.002 373.585C546.73 373.251 547.356 372.729 547.815 372.072C548.292 371.438 548.667 370.709 549.116 370.075C549.674 369.308 550.347 368.632 551.113 368.072C553.838 366.009 555.904 363.199 557.062 359.983C558.363 356.247 558.829 352.272 558.425 348.337C558.425 348.185 558.365 348.039 558.257 347.932C558.15 347.825 558.004 347.764 557.853 347.764C557.701 347.764 557.555 347.825 557.448 347.932C557.341 348.039 557.28 348.185 557.28 348.337C557.28 354.715 556.462 361.707 551.277 366.109C549.995 367.207 548.68 368.106 547.74 369.551C547.375 370.182 546.975 370.792 546.54 371.377C545.958 372.04 545.153 372.469 544.278 372.583C542.845 372.932 541.59 373.792 540.748 375.002C539.821 376.229 539.112 377.599 537.968 378.641C536.649 379.808 535.023 380.571 533.283 380.838C531.542 381.105 529.762 380.865 528.155 380.147C528.044 380.087 527.92 380.055 527.795 380.056C527.669 380.057 527.545 380.09 527.436 380.153C527.327 380.215 527.235 380.304 527.17 380.412C527.105 380.519 527.068 380.642 527.064 380.768C527.023 383.085 526.853 385.654 525.633 387.691C525.068 388.674 524.149 389.405 523.064 389.736C521.599 390.158 520.018 389.804 518.532 389.633C517.159 389.403 515.75 389.534 514.444 390.015C513.235 390.629 512.127 391.424 511.159 392.373C510.157 393.278 508.984 393.975 507.71 394.423C506.436 394.871 505.085 395.061 503.737 394.982C502.388 394.902 501.069 394.555 499.856 393.961C498.643 393.367 497.56 392.538 496.671 391.521C496.269 391.051 495.622 391.719 495.99 392.203V392.216Z" fill="white"/>
<path d="M556.892 405.546C552.516 404.863 548.046 405.922 544.442 408.496C541.116 410.909 537.893 415.359 539.876 419.597C540.816 421.642 542.854 423.148 545.144 422.964L544.51 421.853C543.845 423.17 543.549 424.643 543.653 426.115C543.758 427.587 544.259 429.004 545.103 430.214C546.858 432.63 549.388 434.371 552.272 435.148C557.574 436.736 564.238 435.346 566.323 429.656C566.839 428.365 566.996 426.958 566.776 425.585C566.557 424.213 565.969 422.925 565.076 421.86L564.886 423.08C567.046 421.901 569.022 420.197 569.949 417.86C570.411 416.76 570.569 415.556 570.404 414.375C570.24 413.194 569.76 412.079 569.015 411.147C568.62 410.697 568.15 410.329 567.741 409.9C567.301 409.395 566.981 408.796 566.807 408.149C566.614 407.609 566.31 407.116 565.915 406.702C565.519 406.287 565.041 405.961 564.511 405.743C562.051 404.687 559.393 405.743 557.287 407.106C556.701 407.481 557.076 408.598 557.798 408.299C559.686 407.515 561.887 406.254 563.932 407.154C565.076 407.672 565.233 408.592 565.69 409.641C566.137 410.46 566.742 411.182 567.468 411.767C568.178 412.486 568.654 413.401 568.835 414.394C569.016 415.388 568.894 416.412 568.484 417.335C567.68 419.325 565.921 420.742 564.088 421.73C563.988 421.791 563.903 421.874 563.839 421.973C563.775 422.071 563.734 422.183 563.719 422.299C563.704 422.416 563.715 422.534 563.752 422.645C563.789 422.757 563.85 422.859 563.932 422.943C564.569 423.721 565 424.647 565.186 425.635C565.372 426.624 565.306 427.643 564.995 428.599C564.699 429.639 564.181 430.602 563.474 431.42C562.768 432.238 561.891 432.892 560.906 433.336C556.538 435.38 550.548 433.922 547.277 430.514C545.273 428.47 544.346 425.247 545.737 422.589C545.799 422.477 545.831 422.351 545.83 422.223C545.829 422.095 545.795 421.969 545.732 421.858C545.668 421.747 545.577 421.654 545.466 421.589C545.356 421.523 545.231 421.488 545.103 421.485C542.874 421.682 541.014 419.781 540.701 417.662C540.298 415.154 541.777 412.674 543.467 410.956C545.167 409.262 547.235 407.982 549.511 407.219C551.786 406.455 554.207 406.228 556.585 406.554C557.267 406.649 557.539 405.648 556.865 405.539L556.892 405.546Z" fill="white"/>
<path d="M525.77 398.145C518.792 399.794 513.674 406.642 514.41 413.818C514.777 417.403 516.373 420.749 518.928 423.291C519.533 423.881 520.19 424.417 520.89 424.892C521.319 425.133 521.723 425.416 522.097 425.737C522.295 425.978 522.443 426.255 522.533 426.553C522.623 426.852 522.653 427.165 522.621 427.475C522.649 429.623 522.838 431.767 523.187 433.887C524.55 441.472 529.436 449.002 537.334 450.924C539.419 451.421 541.6 451.271 543.685 451.755C545.771 452.239 547.27 453.684 548.987 454.87C552.347 457.193 556.585 457.595 560.497 456.682C565.172 455.619 569.22 452.771 572.941 449.868C576.164 447.346 579.721 443.734 578.781 439.271L578.426 440.15C582.532 437.919 585.65 434.227 587.163 429.805C587.91 427.491 588.227 425.059 588.096 422.63C587.975 421.111 588.161 419.584 588.641 418.139C589.132 416.824 589.841 415.597 590.338 414.282C593.923 404.864 586.876 393.661 578.454 389.524C573.465 387.071 567.305 386.907 562.562 390.035L563.495 390.158C558.228 384.706 548.394 384.999 543.508 390.839L544.81 391.18C544.627 390.478 544.268 389.835 543.767 389.31C543.267 388.785 542.64 388.397 541.948 388.182C540.328 387.694 538.584 387.84 537.068 388.591C535.219 389.474 533.425 390.471 531.698 391.575C529.79 392.7 527.882 393.831 525.988 394.983C525.907 395.03 525.836 395.093 525.779 395.168C525.723 395.243 525.681 395.328 525.658 395.419C525.634 395.51 525.628 395.604 525.641 395.697C525.654 395.79 525.685 395.88 525.732 395.961C525.78 396.042 525.843 396.112 525.917 396.169C525.992 396.226 526.077 396.267 526.168 396.291C526.259 396.315 526.354 396.32 526.447 396.307C526.54 396.295 526.629 396.264 526.71 396.216C529.838 394.478 532.905 392.632 536.012 390.867C537.375 390.103 538.908 389.286 540.517 389.436C541.15 389.454 541.761 389.672 542.263 390.059C542.765 390.446 543.131 390.981 543.311 391.589C543.349 391.718 543.42 391.835 543.516 391.928C543.613 392.022 543.732 392.089 543.862 392.123C543.992 392.157 544.129 392.158 544.259 392.124C544.389 392.09 544.508 392.023 544.605 391.93C548.953 386.744 557.689 386.376 562.405 391.248C562.526 391.367 562.683 391.443 562.851 391.465C563.02 391.488 563.191 391.454 563.339 391.371C567.271 388.775 572.327 388.645 576.627 390.396C580.927 392.148 584.546 395.685 586.897 399.671C589.248 403.658 590.509 408.571 589.105 413.096C588.348 415.522 586.836 417.594 586.57 420.176C586.318 422.616 586.747 425.015 586.215 427.447C585.687 429.846 584.648 432.102 583.168 434.063C581.689 436.023 579.804 437.641 577.643 438.807C577.496 438.895 577.381 439.029 577.317 439.187C577.253 439.346 577.243 439.521 577.288 439.687C578.072 443.421 574.685 446.501 572.055 448.607C568.92 451.087 565.526 453.493 561.703 454.74C558.153 455.899 554.03 456.028 550.704 454.134C549.035 453.186 547.672 451.762 545.934 450.931C544.196 450.099 542.132 449.977 540.162 449.813C532.387 449.132 527.058 442.883 525.109 435.686C524.587 433.729 524.26 431.725 524.134 429.703C524.018 427.972 524.386 425.839 522.901 424.585C522.301 424.081 521.579 423.727 520.959 423.222C520.264 422.681 519.623 422.074 519.044 421.41C517.925 420.112 517.05 418.623 516.461 417.014C515.795 415.239 515.515 413.343 515.639 411.451C515.764 409.559 516.29 407.715 517.183 406.043C518.11 404.339 519.373 402.841 520.895 401.641C522.418 400.44 524.169 399.561 526.042 399.058C526.152 399.013 526.241 398.93 526.293 398.824C526.346 398.718 526.357 398.597 526.326 398.483C526.295 398.369 526.224 398.27 526.125 398.205C526.026 398.141 525.907 398.114 525.79 398.131L525.77 398.145Z" fill="white"/>
<path d="M504.488 398.295C502.548 399.072 500.791 400.242 499.326 401.731C497.861 403.221 496.721 404.997 495.976 406.949C494.02 411.781 494.293 417.212 495.295 422.241C496.16 426.63 497.618 431.189 500.808 434.467C501.612 435.291 502.593 435.898 503.404 436.702C504.426 437.731 504.236 438.998 504.086 440.32C503.896 442.392 503.983 444.48 504.344 446.528C505.094 450.618 506.793 454.476 509.305 457.789C511.816 461.103 515.07 463.782 518.805 465.609C520.731 466.521 522.767 467.176 524.863 467.558C526.135 467.717 527.379 468.045 528.564 468.533C529.653 469.126 530.653 469.869 531.535 470.741C534.942 473.787 539.194 475.511 543.801 475.095C546.059 474.825 548.246 474.131 550.248 473.051C551.365 472.499 552.592 471.954 553.846 472.37C555.1 472.785 556.136 473.453 557.362 473.814C562.132 475.177 567.298 473.814 571.428 471.279C573.469 469.982 575.365 468.47 577.084 466.768C577.97 465.909 578.781 464.955 579.714 464.151C580.738 463.365 581.934 462.833 583.203 462.597C587.334 461.549 590.901 458.947 593.159 455.333C594.263 453.598 595.028 451.669 595.415 449.65C595.611 448.626 595.703 447.585 595.688 446.542C595.688 445.445 595.252 443.939 596.192 443.135C596.976 442.453 598.025 442.058 598.863 441.431C599.662 440.848 600.401 440.189 601.071 439.462C602.412 437.985 603.507 436.303 604.315 434.48C605.95 430.66 606.81 426.553 606.843 422.398C606.911 419.958 606.427 417.341 607.088 414.963C607.517 413.766 608.085 412.622 608.779 411.556C609.362 410.529 609.763 409.408 609.964 408.244C610.693 403.61 608.71 398.608 606.707 394.506C604.83 390.528 602.117 387.002 598.754 384.168C597.012 382.742 595.075 381.571 593.003 380.692C591.762 380.175 590.488 379.725 589.282 379.125C588.135 378.543 587.042 377.858 586.018 377.081C584.097 375.526 581.974 374.24 579.707 373.258C577.533 372.415 575.225 371.969 572.893 371.943C570.55 371.916 568.222 372.317 566.024 373.128L566.855 373.346C564.845 371.382 562.379 369.948 559.677 369.173C556.976 368.399 554.124 368.308 551.379 368.91C550.343 369.128 550.786 370.716 551.822 370.498C554.284 369.998 556.832 370.109 559.241 370.822C561.65 371.534 563.848 372.827 565.642 374.587C565.748 374.696 565.883 374.775 566.03 374.813C566.178 374.852 566.334 374.849 566.48 374.805C570.909 373.161 575.807 373.333 580.109 375.282C582.331 376.311 584.198 377.892 586.161 379.282C588.123 380.672 590.495 381.476 592.757 382.485C600.683 386.008 605.705 394.199 607.845 402.343C608.465 404.728 608.813 407.358 607.845 409.716C607.395 410.679 606.888 411.614 606.325 412.517C605.725 413.603 605.339 414.794 605.187 416.026C604.908 418.323 605.228 420.653 605.146 422.964C605.079 424.974 604.832 426.974 604.41 428.94C603.586 432.654 602.025 436.327 599.224 438.985C598.551 439.625 597.811 440.192 597.017 440.675C596.124 441.22 595.081 441.649 594.509 442.576C594.026 443.531 593.858 444.614 594.032 445.67C594.233 448.208 593.761 450.754 592.666 453.052C591.57 455.35 589.888 457.319 587.789 458.761C586.109 459.888 584.236 460.696 582.263 461.146C581.166 461.404 580.129 461.867 579.203 462.509C578.269 463.275 577.394 464.111 576.586 465.01C573.179 468.417 569.179 471.463 564.368 472.424C562.076 472.908 559.699 472.793 557.464 472.09C556.347 471.722 555.352 471.027 554.214 470.727C553.043 470.461 551.818 470.585 550.725 471.082C549.669 471.504 548.68 472.097 547.638 472.526C546.602 472.949 545.516 473.24 544.408 473.392C542.328 473.668 540.214 473.485 538.213 472.853C536.084 472.143 534.139 470.97 532.516 469.419C531.719 468.652 530.847 467.967 529.913 467.374C528.803 466.777 527.6 466.369 526.356 466.168C524.325 465.838 522.335 465.292 520.42 464.54C518.568 463.746 516.827 462.716 515.241 461.473C512.125 459.017 509.616 455.876 507.909 452.294C506.135 448.652 505.357 444.606 505.653 440.566C505.843 439.469 505.811 438.345 505.558 437.261C505.171 436.317 504.512 435.51 503.663 434.944C501.897 433.613 500.432 431.925 499.363 429.989C497.121 425.901 496.085 420.851 495.867 416.224C495.642 411.454 496.658 406.52 499.806 402.813C501.126 401.218 502.818 399.973 504.733 399.187C505.271 398.969 505.046 398.097 504.488 398.301V398.295Z" fill="white"/>
<path d="M614.592 336.95C615.349 338.605 616.489 340.057 617.918 341.185C619.347 342.313 621.024 343.085 622.81 343.437C623.553 343.573 623.866 342.429 623.123 342.299C621.463 342.02 619.894 341.344 618.551 340.328C617.208 339.313 616.13 337.988 615.409 336.466C615.144 335.9 614.333 336.391 614.578 336.95H614.592Z" fill="white"/>
<path d="M598.727 342.19C598.605 343.536 598.873 344.89 599.499 346.088C600.125 347.287 601.082 348.28 602.257 348.95C602.897 349.311 603.62 349.502 604.035 350.149C604.422 350.857 604.737 351.601 604.976 352.371C605.511 353.851 606.331 355.212 607.388 356.378C608.342 357.389 609.606 358.053 610.979 358.266C611.712 358.34 612.453 358.273 613.16 358.068C613.551 357.927 613.964 357.855 614.38 357.857C614.946 357.918 615.123 358.3 615.375 358.749C616.07 359.986 617.082 361.016 618.305 361.734C619.529 362.453 620.921 362.833 622.339 362.838C623.256 362.819 624.172 362.913 625.065 363.118C625.92 363.46 626.745 363.872 627.532 364.351C628.895 365.032 630.531 365.23 631.703 364.112C632.384 363.431 631.376 362.477 630.66 363.077C629.529 364.031 627.934 362.865 626.939 362.313C625.695 361.678 624.316 361.351 622.919 361.359C621.49 361.399 620.078 361.053 618.83 360.358C617.624 359.594 617.106 358.538 616.315 357.421C615.525 356.303 614.325 356.262 613.078 356.576C612.401 356.8 611.68 356.855 610.977 356.736C610.273 356.618 609.61 356.328 609.044 355.894C607.913 354.938 607.037 353.715 606.495 352.337C605.957 351.158 605.596 349.611 604.587 348.759C604.063 348.39 603.495 348.085 602.897 347.853C602.243 347.51 601.658 347.048 601.173 346.49C600.157 345.29 599.613 343.762 599.64 342.19C599.64 341.597 598.795 341.624 598.74 342.19H598.727Z" fill="white"/>
<path d="M578.317 345.55C577.525 348.053 577.377 350.716 577.888 353.291C578.399 355.867 579.552 358.272 581.241 360.283C582.097 361.295 583.085 362.189 584.178 362.94C585.432 363.813 586.481 364.603 587.081 366.062C587.458 367.249 587.934 368.403 588.505 369.51C589.161 370.547 590.191 371.291 591.381 371.588C592.635 371.929 594.018 371.847 595.211 372.392C596.574 373.026 596.928 374.737 597.725 375.902C598.492 377.013 599.472 377.96 600.608 378.689C601.744 379.418 603.013 379.914 604.342 380.147C604.981 380.26 605.629 380.308 606.278 380.29C607.061 380.29 607.838 380.066 608.622 380.079C610.251 380.079 611.123 381.49 612.152 382.553C614.08 384.597 616.636 385.756 619.212 386.703C620.677 387.248 622.169 387.718 623.635 388.257C625.131 388.838 626.594 389.502 628.016 390.247C630.422 391.446 634.027 393.007 636.044 390.376C636.453 389.845 635.642 389.013 635.11 389.442C632.875 391.146 630.163 389.586 628.01 388.475C625.611 387.327 623.136 386.348 620.602 385.545C618.115 384.672 615.559 383.664 613.617 381.81C612.704 380.938 611.968 379.875 610.891 379.173C609.59 378.321 608.227 378.58 606.802 378.703C605.499 378.814 604.188 378.626 602.968 378.153C601.748 377.681 600.652 376.937 599.763 375.977C598.809 374.927 598.4 373.619 597.623 372.481C596.917 371.506 595.858 370.846 594.672 370.641C593.48 370.382 592.158 370.409 591.047 369.871C589.936 369.333 589.432 368.14 589.003 367.022C588.667 365.903 588.154 364.845 587.483 363.888C586.645 362.838 585.439 362.218 584.376 361.434C582.064 359.642 580.341 357.201 579.427 354.423C578.512 351.645 578.449 348.657 579.244 345.843C579.262 345.727 579.236 345.609 579.173 345.511C579.109 345.413 579.012 345.342 578.9 345.311C578.787 345.28 578.667 345.291 578.562 345.343C578.457 345.394 578.375 345.482 578.331 345.59L578.317 345.55Z" fill="white"/>
<path d="M559.823 349.904C559.591 354.572 559.666 359.39 561.622 363.724C563.321 367.476 566.219 370.556 569.86 372.481C570.501 372.808 571.06 371.861 570.426 371.513C566.98 369.649 564.227 366.724 562.576 363.172C560.688 359.043 560.606 354.361 560.77 349.904C560.77 349.298 559.857 349.298 559.823 349.904Z" fill="white"/>
<path d="M610.693 404.237C611.859 406.132 614.38 407.338 616.479 407.808C617.655 408.072 618.866 408.137 620.063 407.999C621.74 407.808 623.164 407.495 624.745 408.306C627.178 409.553 629.468 410.65 632.2 411.072C634.839 411.475 637.532 411.357 640.126 410.725C640.254 410.649 640.354 410.532 640.41 410.394C640.466 410.255 640.475 410.102 640.435 409.958C640.396 409.814 640.31 409.687 640.191 409.597C640.073 409.506 639.927 409.457 639.778 409.457C637.272 410.083 634.664 410.181 632.118 409.743C630.89 409.53 629.685 409.199 628.52 408.755C627.28 408.278 626.176 407.576 624.97 407.031C622.564 405.955 620.159 407.12 617.658 406.834C616.467 406.692 615.312 406.334 614.251 405.777C613.253 405.167 612.313 404.466 611.443 403.685C611.061 403.385 610.421 403.76 610.721 404.237H610.693Z" fill="white"/>
<path d="M639.962 484.466C641.618 481.528 643.875 478.974 646.586 476.97C646.718 476.877 646.814 476.741 646.855 476.585C646.896 476.429 646.88 476.263 646.811 476.118C646.726 475.977 646.59 475.875 646.431 475.833C646.272 475.791 646.103 475.812 645.959 475.893C643.106 478.046 640.783 480.822 639.165 484.009C638.899 484.52 639.656 484.977 639.942 484.466H639.962Z" fill="white"/>
<path d="M620.084 484.534C621.038 484.479 621.447 483.696 621.651 482.837C621.931 481.583 622.04 480.459 622.776 479.348C623.543 478.231 624.646 477.386 625.924 476.935C626.507 476.755 627.042 476.447 627.49 476.033C627.938 475.619 628.288 475.11 628.513 474.544C628.998 473.309 629.722 472.183 630.645 471.23C631.568 470.278 632.671 469.519 633.89 468.996C635.001 468.547 636.405 468.54 636.766 467.17C636.936 466.55 636.827 465.875 636.95 465.242C637.099 464.521 637.366 463.83 637.74 463.197C639.512 460.165 642.886 458.952 645.918 457.589C646.599 457.282 646.191 456.321 645.557 456.28L644.875 456.233C644.133 456.192 643.949 457.425 644.698 457.548L645.38 457.657V456.294C642.749 457.268 640.01 458.475 638.013 460.505C637.102 461.421 636.388 462.514 635.914 463.715C635.683 464.31 635.534 464.934 635.471 465.569C635.471 465.875 635.471 466.175 635.424 466.482C635.383 467.088 634.981 467.163 634.463 467.293C632.114 467.981 630.063 469.434 628.636 471.422C628.272 471.929 627.955 472.467 627.689 473.031C627.469 473.694 627.164 474.326 626.783 474.912C626.317 475.34 625.76 475.657 625.154 475.838C624.574 476.073 624.028 476.385 623.532 476.765C622.489 477.565 621.678 478.628 621.181 479.845C620.926 480.457 620.761 481.102 620.69 481.76C620.649 482.183 620.69 483.518 620.091 483.6C619.491 483.682 619.477 484.568 620.091 484.527L620.084 484.534Z" fill="white"/>
<path d="M601.003 483.089C602.134 478.251 602.788 473.276 605.773 469.112C607.232 467.068 609.181 465.473 610.605 463.381C611.695 461.752 612.506 459.974 613.617 458.338C614.099 457.525 614.766 456.838 615.564 456.332C616.363 455.827 617.269 455.517 618.21 455.428C620.166 455.272 622.36 455.108 623.042 452.907C623.369 451.837 623.171 450.706 623.375 449.616C623.463 449.193 623.638 448.793 623.887 448.442C624.137 448.09 624.457 447.793 624.827 447.571C626.353 446.576 628.187 446.208 629.733 445.22C631.907 443.857 632.78 441.309 634.626 439.598C636.56 437.794 639.029 436.667 641.659 436.388C642.484 436.307 642.504 435.026 641.659 435.08C639.371 435.231 637.159 435.963 635.233 437.206C634.273 437.832 633.404 438.586 632.65 439.448C631.866 440.348 631.287 441.377 630.606 442.344C629.318 444.123 627.335 444.689 625.427 445.554C623.75 446.311 622.244 447.442 621.917 449.357C621.726 450.433 622.006 451.783 621.495 452.764C620.983 453.745 619.614 453.827 618.598 453.909C617.638 453.927 616.69 454.138 615.812 454.529C614.934 454.92 614.144 455.483 613.487 456.185C612.124 457.664 611.259 459.504 610.291 461.235C609.031 463.477 607.272 465.201 605.657 467.177C602.087 471.538 600.71 477.46 600.097 482.953C600.042 483.491 600.921 483.634 601.044 483.082L601.003 483.089Z" fill="white"/>
<path d="M580.423 485.229C580.961 480.704 581.309 475.975 583.605 471.913C584.147 470.951 584.804 470.058 585.561 469.255C586.338 468.438 587.183 467.743 587.606 466.666C588.028 465.589 588.11 464.247 588.505 463.075C588.935 461.861 589.576 460.732 590.4 459.742C590.951 459.061 590.011 458.066 589.405 458.754C588.582 459.691 587.924 460.76 587.456 461.916C587.067 463.085 586.767 464.28 586.556 465.494C586.209 466.918 585.193 467.661 584.28 468.717C583.547 469.57 582.911 470.503 582.386 471.497C580.184 475.647 579.66 480.609 579.51 485.229C579.51 485.829 580.348 485.794 580.416 485.229H580.423Z" fill="white"/>
<path d="M603.906 438.985C605.092 437.622 606.291 436.307 607.463 434.957C608.635 433.608 609.583 432.368 610.734 431.155C611.749 429.988 613.136 429.208 614.66 428.947C616.077 428.729 617.522 428.701 618.803 427.972C621.072 426.684 621.958 424.061 623.573 422.166C624.515 421.082 625.676 420.211 626.98 419.611C628.221 419.045 629.706 418.929 630.763 418.043C631.976 417.028 632.48 415.454 633.747 414.466C635.015 413.478 636.596 413.103 638.225 412.837C639.083 412.694 638.742 411.542 638.034 411.474C635.308 411.113 632.473 412.987 631.001 415.147C630.657 415.835 630.196 416.458 629.638 416.987C628.978 417.36 628.266 417.633 627.526 417.798C626.194 418.257 624.955 418.949 623.866 419.842C622.824 420.748 621.931 421.813 621.222 422.998C620.582 424.168 619.794 425.251 618.878 426.221C617.747 427.264 616.316 427.4 614.85 427.584C613.368 427.748 611.967 428.345 610.823 429.301C609.518 430.537 608.323 431.885 607.252 433.329C605.889 434.971 604.581 436.654 603.245 438.317C602.884 438.773 603.497 439.421 603.927 438.998L603.906 438.985Z" fill="white"/>
<path d="M459.852 473.235C460.473 473.364 461.06 473.622 461.576 473.991C462.091 474.361 462.523 474.835 462.844 475.382C463.165 475.929 463.368 476.537 463.44 477.168C463.511 477.798 463.45 478.436 463.259 479.041C463.232 479.148 463.233 479.261 463.262 479.367C463.292 479.474 463.348 479.571 463.427 479.649C463.505 479.727 463.603 479.783 463.71 479.811C463.817 479.84 463.929 479.84 464.036 479.811C464.502 479.639 465.005 479.593 465.495 479.678C465.984 479.763 466.443 479.976 466.823 480.295C467.166 480.621 467.423 481.027 467.571 481.476C467.718 481.926 467.752 482.405 467.668 482.871L468.704 482.278C468.704 482.278 468.704 482.278 468.704 482.237C468.726 482.158 468.732 482.074 468.722 481.992C468.712 481.91 468.685 481.831 468.644 481.759C468.604 481.688 468.549 481.625 468.484 481.574C468.419 481.523 468.344 481.486 468.265 481.464C468.185 481.442 468.102 481.436 468.02 481.446C467.938 481.456 467.859 481.483 467.787 481.523C467.715 481.564 467.652 481.619 467.601 481.684C467.55 481.749 467.513 481.824 467.491 481.903C467.407 482.16 467.401 482.435 467.474 482.695C467.547 482.954 467.695 483.186 467.9 483.362C467.984 483.449 468.091 483.513 468.208 483.545C468.325 483.578 468.449 483.579 468.566 483.547C468.684 483.516 468.791 483.454 468.876 483.367C468.961 483.281 469.022 483.173 469.052 483.055C469.176 482.362 469.114 481.648 468.874 480.986C468.633 480.323 468.222 479.737 467.682 479.284C467.142 478.832 466.492 478.53 465.798 478.41C465.104 478.29 464.39 478.354 463.729 478.598L464.499 479.375C465.447 476.363 463.307 472.799 460.145 472.363C459.579 472.288 459.32 473.126 459.9 473.235H459.852Z" fill="white"/>
<path d="M467.702 461.309C469.05 461.355 470.35 461.819 471.422 462.637C472.495 463.455 473.286 464.587 473.685 465.875C474.084 467.23 474.186 468.655 473.985 470.053C473.899 470.509 473.993 470.981 474.247 471.369C474.501 471.758 474.896 472.033 475.348 472.138C476.438 472.465 477.57 472.322 478.66 472.731C479.842 473.193 480.899 473.926 481.747 474.871C482.673 475.903 483.393 477.104 483.866 478.407C484.089 478.997 484.276 479.6 484.425 480.213C484.507 480.54 484.582 480.895 484.65 481.201C484.65 481.372 484.793 482.019 484.807 481.999L485.297 481.801H485.154L485.638 482.005L485.72 482.373L485.038 482.871H485.154C485.992 482.762 486.04 481.46 485.154 481.508H485.059C484.912 481.51 484.769 481.559 484.652 481.649C484.536 481.739 484.451 481.864 484.411 482.005C484.336 482.185 484.323 482.385 484.376 482.573C484.429 482.761 484.544 482.925 484.703 483.038C484.862 483.151 485.054 483.207 485.249 483.197C485.444 483.186 485.629 483.11 485.774 482.98C486.578 482.298 485.986 480.799 485.774 479.982C485.24 477.511 484.008 475.245 482.224 473.453C481.383 472.664 480.407 472.034 479.341 471.593C478.261 471.25 477.141 471.044 476.009 470.979C475.764 470.979 475.389 470.904 475.246 470.673C475.103 470.441 475.246 469.916 475.246 469.651C475.317 468.944 475.317 468.231 475.246 467.524C475.11 466.291 474.723 465.099 474.108 464.022C473.472 462.884 472.538 461.94 471.408 461.291C470.277 460.641 468.992 460.311 467.688 460.335C467.558 460.335 467.433 460.387 467.341 460.479C467.249 460.571 467.198 460.695 467.198 460.826C467.198 460.956 467.249 461.081 467.341 461.173C467.433 461.265 467.558 461.316 467.688 461.316L467.702 461.309Z" fill="white"/>
<path d="M474.878 441.649C477.89 440.021 481.011 442.787 482.442 445.268C483.308 446.794 483.921 448.437 484.691 450.038C485.408 451.52 486.325 452.895 487.417 454.127C489.918 456.975 492.753 459.579 495.424 462.257C498.096 464.935 500.917 467.633 503.602 470.366C506.082 472.867 508.788 475.954 508.372 479.736C508.297 480.459 509.53 480.629 509.646 479.913C510.205 476.465 508.515 473.487 506.355 470.938C503.745 467.851 500.631 465.126 497.728 462.325C494.825 459.524 491.594 456.676 488.732 453.65C487.384 452.207 486.271 450.56 485.434 448.771C484.722 447.07 483.874 445.429 482.899 443.864C481.086 441.227 477.447 439.094 474.353 440.825C474.238 440.892 474.154 441.003 474.12 441.133C474.086 441.263 474.105 441.401 474.173 441.516C474.241 441.632 474.352 441.716 474.481 441.75C474.611 441.784 474.749 441.765 474.865 441.697L474.878 441.649Z" fill="white"/>
<path d="M481.386 420.197C485.474 420.79 489.304 423.911 490.245 428.02C490.279 428.141 490.351 428.247 490.45 428.323C490.55 428.4 490.671 428.441 490.797 428.443C491.58 428.324 492.38 428.396 493.13 428.652C493.88 428.909 494.556 429.342 495.103 429.915C495.901 430.767 496.364 432.593 497.87 432.198C498.026 432.154 498.157 432.051 498.237 431.91C498.316 431.77 498.336 431.603 498.293 431.448C498.249 431.293 498.146 431.161 498.005 431.081C497.865 431.002 497.699 430.982 497.543 431.025C497.141 431.134 496.473 429.703 496.248 429.417C495.8 428.871 495.258 428.409 494.647 428.054C493.439 427.353 492.025 427.093 490.647 427.318L491.328 427.72C490.671 425.519 489.398 423.551 487.659 422.049C485.921 420.547 483.789 419.573 481.515 419.243C480.977 419.168 480.834 420.122 481.386 420.197Z" fill="white"/>
<path d="M528.325 470.823C529.799 471.969 530.822 473.597 531.215 475.422C531.528 476.867 530.969 478.734 532.693 479.382C533.375 479.627 534.111 479.586 534.738 479.866C535.013 480.02 535.244 480.244 535.405 480.516C535.567 480.787 535.654 481.096 535.658 481.412C535.883 482.775 535.821 484.138 537.021 485.051C537.539 485.447 538.193 484.588 537.702 484.152C536.7 483.232 537.055 481.501 536.619 480.315C536.067 478.809 534.806 478.7 533.429 478.407C533.106 478.381 532.805 478.236 532.584 477.998C532.325 477.63 532.434 476.99 532.407 476.56C532.349 475.725 532.167 474.903 531.869 474.121C531.262 472.521 530.213 471.126 528.843 470.1C528.427 469.794 527.875 470.502 528.284 470.823H528.325Z" fill="white"/>
<path d="M553.301 473.699C554.316 473.446 555.025 475.389 555.345 476.07C555.836 477.088 556.274 478.121 556.66 479.171C557.384 481.326 557.96 483.527 558.385 485.76C558.535 486.442 559.686 486.306 559.618 485.597C559.278 482.893 558.526 480.257 557.39 477.781C556.883 476.534 556.277 475.331 555.577 474.182C555.039 473.324 554.112 472.465 553.028 472.819C552.916 472.85 552.821 472.924 552.763 473.025C552.706 473.126 552.691 473.246 552.722 473.358C552.752 473.47 552.826 473.565 552.927 473.623C553.028 473.68 553.148 473.695 553.26 473.664L553.301 473.699Z" fill="white"/>
<path d="M489.434 402.779C490.167 402.937 490.862 403.238 491.478 403.665C491.766 403.865 492.033 404.093 492.276 404.346C492.535 404.598 492.764 404.879 492.957 405.184C493.036 405.311 493.161 405.403 493.305 405.441C493.449 405.479 493.603 405.46 493.734 405.389C493.862 405.311 493.955 405.186 493.993 405.042C494.031 404.897 494.011 404.743 493.938 404.612C492.94 403.19 491.427 402.213 489.72 401.886C489.597 401.857 489.468 401.876 489.359 401.939C489.25 402.002 489.169 402.106 489.134 402.227C489.101 402.349 489.117 402.479 489.18 402.589C489.242 402.699 489.346 402.779 489.468 402.813L489.434 402.779Z" fill="white"/>
<path d="M513.776 180.077C522.866 173.637 532.134 167.45 541.647 161.678C544.373 160.011 547.129 158.37 549.914 156.758C550.034 156.682 550.128 156.57 550.182 156.438C550.236 156.306 550.247 156.16 550.213 156.022C550.1 155.268 549.754 154.568 549.225 154.018L548.428 155.061C549.062 155.442 549.689 155.831 550.336 156.199C550.481 156.243 550.636 156.237 550.778 156.182C550.919 156.128 551.038 156.028 551.116 155.898C551.194 155.768 551.227 155.616 551.209 155.466C551.191 155.316 551.124 155.175 551.018 155.068C550.391 154.666 549.75 154.298 549.116 153.916C548.978 153.858 548.824 153.848 548.679 153.886C548.534 153.924 548.406 154.01 548.314 154.129C548.222 154.247 548.172 154.393 548.172 154.543C548.172 154.693 548.221 154.839 548.312 154.959C548.681 155.346 548.919 155.839 548.994 156.369L549.293 155.626C539.698 161.292 530.322 167.304 521.163 173.665C518.525 175.498 515.929 177.379 513.346 179.294C512.89 179.634 513.346 180.411 513.803 180.07L513.776 180.077Z" fill="#F36E39"/>
<path d="M555.815 155.265C555.941 155.251 556.058 155.19 556.142 155.095C556.227 155.001 556.274 154.878 556.274 154.751C556.274 154.624 556.227 154.501 556.142 154.406C556.058 154.311 555.941 154.251 555.815 154.236C555.689 154.251 555.572 154.311 555.488 154.406C555.403 154.501 555.356 154.624 555.356 154.751C555.356 154.878 555.403 155.001 555.488 155.095C555.572 155.19 555.689 155.251 555.815 155.265Z" fill="#F36E39"/>
<path d="M549.144 245.9C551.869 265.192 554.316 284.511 556.428 303.878C556.719 306.572 557.005 309.266 557.287 311.96C557.416 313.201 557.607 314.455 557.635 315.702C557.635 316.683 557.573 317.862 556.708 318.489C556.629 318.537 556.562 318.602 556.511 318.679C556.461 318.756 556.428 318.844 556.416 318.935C556.403 319.026 556.412 319.119 556.44 319.207C556.468 319.295 556.515 319.376 556.578 319.443C557.941 320.956 557.798 323.198 557.812 325.106C557.831 327.508 557.997 329.907 558.309 332.288C558.856 336.907 560.028 341.43 561.791 345.734C562.057 346.347 563.079 345.911 562.868 345.284C561.208 340.606 560.057 335.762 559.434 330.837C559.175 328.472 559.127 326.108 559.072 323.736C559.032 321.869 558.786 319.988 557.478 318.564L557.355 319.518C558.786 318.482 558.97 316.744 558.848 315.088C558.67 312.69 558.357 310.318 558.098 307.899C557.553 302.842 556.983 297.793 556.387 292.75C555.206 282.723 553.932 272.711 552.564 262.711C551.779 257.01 550.954 251.315 550.091 245.627C550.002 245.027 549.096 245.286 549.178 245.879L549.144 245.9Z" fill="#F36E39"/>
<path d="M449.344 290.876C450.009 288.38 451.204 286.056 452.846 284.061C452.944 283.961 452.998 283.827 452.998 283.687C452.998 283.547 452.944 283.412 452.846 283.312C452.747 283.213 452.612 283.157 452.471 283.157C452.331 283.157 452.196 283.213 452.097 283.312C450.36 285.449 449.13 287.951 448.499 290.631C448.468 290.743 448.483 290.862 448.54 290.963C448.598 291.064 448.693 291.138 448.805 291.169C448.917 291.2 449.037 291.185 449.138 291.127C449.239 291.07 449.313 290.974 449.344 290.862V290.876Z" fill="#F36E39"/>
<path d="M445.371 287.633C445.873 285.835 446.774 284.174 448.008 282.774C448.424 282.31 447.736 281.615 447.327 282.092C445.937 283.583 444.973 285.418 444.533 287.408C444.502 287.52 444.517 287.639 444.575 287.74C444.632 287.841 444.727 287.915 444.839 287.946C444.951 287.977 445.071 287.962 445.172 287.904C445.273 287.847 445.347 287.751 445.378 287.639L445.371 287.633Z" fill="#F36E39"/>
</svg>
