<svg width="537" height="64" viewBox="0 0 537 64" fill="none" xmlns="http://www.w3.org/2000/svg">
<path d="M0 5C0 2.23858 2.23858 0 5 0H532C534.761 0 537 2.23858 537 5V59C537 61.7614 534.761 64 532 64H4.99999C2.23856 64 0 61.7614 0 59V5Z" fill="white"/>
<path d="M124.173 25.4545H126.787V35.6818C126.782 36.6193 126.583 37.4266 126.19 38.1037C125.797 38.776 125.248 39.2945 124.543 39.6591C123.842 40.0189 123.025 40.1989 122.092 40.1989C121.24 40.1989 120.473 40.0473 119.791 39.7443C119.114 39.4366 118.577 38.982 118.179 38.3807C117.781 37.7794 117.582 37.0312 117.582 36.1364H120.203C120.208 36.5294 120.293 36.8679 120.459 37.152C120.629 37.4361 120.864 37.6539 121.162 37.8054C121.46 37.9569 121.804 38.0327 122.192 38.0327C122.613 38.0327 122.971 37.9451 123.264 37.7699C123.558 37.59 123.78 37.3248 123.932 36.9744C124.088 36.6241 124.169 36.1932 124.173 35.6818V25.4545ZM134.29 40.2131C133.225 40.2131 132.302 39.9787 131.521 39.5099C130.739 39.0412 130.133 38.3854 129.702 37.5426C129.276 36.6998 129.063 35.715 129.063 34.5881C129.063 33.4612 129.276 32.474 129.702 31.6264C130.133 30.7789 130.739 30.1207 131.521 29.652C132.302 29.1832 133.225 28.9489 134.29 28.9489C135.356 28.9489 136.279 29.1832 137.06 29.652C137.842 30.1207 138.445 30.7789 138.871 31.6264C139.302 32.474 139.518 33.4612 139.518 34.5881C139.518 35.715 139.302 36.6998 138.871 37.5426C138.445 38.3854 137.842 39.0412 137.06 39.5099C136.279 39.9787 135.356 40.2131 134.29 40.2131ZM134.305 38.1534C134.882 38.1534 135.365 37.9948 135.754 37.6776C136.142 37.3556 136.431 36.9247 136.62 36.3849C136.814 35.8452 136.911 35.2438 136.911 34.581C136.911 33.9134 136.814 33.3097 136.62 32.7699C136.431 32.2254 136.142 31.7921 135.754 31.4702C135.365 31.1482 134.882 30.9872 134.305 30.9872C133.713 30.9872 133.22 31.1482 132.827 31.4702C132.439 31.7921 132.148 32.2254 131.954 32.7699C131.764 33.3097 131.67 33.9134 131.67 34.581C131.67 35.2438 131.764 35.8452 131.954 36.3849C132.148 36.9247 132.439 37.3556 132.827 37.6776C133.22 37.9948 133.713 38.1534 134.305 38.1534ZM141.7 40V29.0909H144.271V40H141.7ZM142.993 27.5426C142.585 27.5426 142.235 27.4077 141.941 27.1378C141.648 26.8632 141.501 26.5341 141.501 26.1506C141.501 25.7623 141.648 25.4332 141.941 25.1634C142.235 24.8887 142.585 24.7514 142.993 24.7514C143.404 24.7514 143.755 24.8887 144.044 25.1634C144.337 25.4332 144.484 25.7623 144.484 26.1506C144.484 26.5341 144.337 26.8632 144.044 27.1378C143.755 27.4077 143.404 27.5426 142.993 27.5426ZM149.486 33.608V40H146.915V29.0909H149.372V30.9446H149.5C149.751 30.3338 150.151 29.8485 150.7 29.4886C151.254 29.1288 151.938 28.9489 152.753 28.9489C153.506 28.9489 154.161 29.1098 154.72 29.4318C155.284 29.7538 155.719 30.2202 156.027 30.831C156.339 31.4418 156.493 32.1828 156.489 33.054V40H153.918V33.4517C153.918 32.7225 153.728 32.152 153.349 31.7401C152.975 31.3281 152.457 31.1222 151.794 31.1222C151.344 31.1222 150.944 31.2216 150.594 31.4205C150.248 31.6146 149.976 31.8963 149.777 32.2656C149.583 32.6349 149.486 33.0824 149.486 33.608ZM173.346 25.4545H175.981V34.9574C175.981 35.9991 175.735 36.9152 175.242 37.706C174.754 38.4967 174.068 39.1146 173.183 39.5597C172.297 40 171.263 40.2202 170.079 40.2202C168.89 40.2202 167.853 40 166.968 39.5597C166.083 39.1146 165.396 38.4967 164.908 37.706C164.421 36.9152 164.177 35.9991 164.177 34.9574V25.4545H166.812V34.7372C166.812 35.3433 166.944 35.883 167.21 36.3565C167.479 36.83 167.858 37.2017 168.346 37.4716C168.834 37.7367 169.411 37.8693 170.079 37.8693C170.746 37.8693 171.324 37.7367 171.812 37.4716C172.304 37.2017 172.683 36.83 172.948 36.3565C173.213 35.883 173.346 35.3433 173.346 34.7372V25.4545ZM186.75 29.4531C186.683 28.8329 186.404 28.3499 185.912 28.0043C185.424 27.6586 184.789 27.4858 184.008 27.4858C183.459 27.4858 182.988 27.5687 182.595 27.7344C182.202 27.9001 181.901 28.125 181.693 28.4091C181.484 28.6932 181.378 29.0175 181.373 29.3821C181.373 29.6851 181.442 29.9479 181.579 30.1705C181.721 30.393 181.913 30.5824 182.154 30.7386C182.396 30.8902 182.663 31.018 182.957 31.1222C183.251 31.2263 183.547 31.3139 183.845 31.3849L185.208 31.7259C185.758 31.8537 186.286 32.0265 186.792 32.2443C187.304 32.4621 187.761 32.7367 188.163 33.0682C188.57 33.3996 188.892 33.7997 189.129 34.2685C189.366 34.7372 189.484 35.2865 189.484 35.9162C189.484 36.7685 189.266 37.5189 188.831 38.1676C188.395 38.8116 187.765 39.3158 186.941 39.6804C186.122 40.0402 185.13 40.2202 183.966 40.2202C182.834 40.2202 181.851 40.045 181.018 39.6946C180.19 39.3442 179.541 38.8329 179.072 38.1605C178.608 37.4882 178.357 36.669 178.319 35.7031H180.912C180.949 36.2098 181.106 36.6312 181.38 36.9673C181.655 37.3035 182.012 37.5545 182.453 37.7202C182.898 37.8859 183.395 37.9688 183.944 37.9688C184.517 37.9688 185.019 37.8835 185.45 37.7131C185.886 37.5379 186.226 37.2964 186.473 36.9886C186.719 36.6761 186.844 36.3116 186.849 35.8949C186.844 35.5161 186.733 35.2036 186.515 34.9574C186.297 34.7064 185.992 34.4981 185.599 34.3324C185.211 34.1619 184.756 34.0104 184.235 33.8778L182.581 33.4517C181.383 33.1439 180.436 32.6776 179.74 32.0526C179.048 31.4228 178.703 30.5871 178.703 29.5455C178.703 28.6884 178.935 27.938 179.399 27.294C179.868 26.6501 180.504 26.1506 181.309 25.7955C182.114 25.4356 183.026 25.2557 184.044 25.2557C185.076 25.2557 185.98 25.4356 186.757 25.7955C187.538 26.1506 188.151 26.6454 188.596 27.2798C189.041 27.9096 189.271 28.634 189.285 29.4531H186.75ZM196.794 40V25.4545H199.365V30.8949H199.472C199.604 30.6297 199.791 30.348 200.033 30.0497C200.274 29.7467 200.601 29.4886 201.013 29.2756C201.425 29.0578 201.95 28.9489 202.589 28.9489C203.432 28.9489 204.192 29.1643 204.869 29.5952C205.551 30.0213 206.091 30.6534 206.489 31.4915C206.891 32.3248 207.092 33.3475 207.092 34.5597C207.092 35.7576 206.896 36.7756 206.503 37.6136C206.11 38.4517 205.575 39.0909 204.898 39.5312C204.221 39.9716 203.454 40.1918 202.597 40.1918C201.972 40.1918 201.453 40.0876 201.041 39.8793C200.629 39.6709 200.298 39.42 200.047 39.1264C199.801 38.8281 199.609 38.5464 199.472 38.2812H199.322V40H196.794ZM199.315 34.5455C199.315 35.2509 199.415 35.8688 199.614 36.3991C199.817 36.9295 200.108 37.3437 200.487 37.642C200.871 37.9356 201.335 38.0824 201.879 38.0824C202.447 38.0824 202.923 37.9309 203.307 37.6278C203.69 37.3201 203.979 36.901 204.173 36.3707C204.372 35.8357 204.472 35.2273 204.472 34.5455C204.472 33.8684 204.375 33.267 204.18 32.7415C203.986 32.2159 203.697 31.804 203.314 31.5057C202.93 31.2074 202.452 31.0582 201.879 31.0582C201.33 31.0582 200.864 31.2027 200.48 31.4915C200.097 31.7803 199.805 32.1851 199.607 32.706C199.412 33.2268 199.315 33.84 199.315 34.5455ZM210.505 44.0909C210.155 44.0909 209.83 44.0625 209.532 44.0057C209.238 43.9536 209.004 43.892 208.829 43.821L209.425 41.8182C209.799 41.9271 210.133 41.9792 210.427 41.9744C210.72 41.9697 210.978 41.8774 211.201 41.6974C211.428 41.5223 211.62 41.2287 211.776 40.8168L211.996 40.2273L208.04 29.0909H210.768L213.282 37.3295H213.396L215.917 29.0909H218.651L214.283 41.321C214.08 41.8987 213.81 42.3935 213.474 42.8054C213.138 43.2221 212.726 43.5393 212.238 43.7571C211.755 43.9796 211.177 44.0909 210.505 44.0909ZM233.41 29.4531C233.344 28.8329 233.064 28.3499 232.572 28.0043C232.084 27.6586 231.45 27.4858 230.668 27.4858C230.119 27.4858 229.648 27.5687 229.255 27.7344C228.862 27.9001 228.561 28.125 228.353 28.4091C228.145 28.6932 228.038 29.0175 228.033 29.3821C228.033 29.6851 228.102 29.9479 228.239 30.1705C228.381 30.393 228.573 30.5824 228.815 30.7386C229.056 30.8902 229.324 31.018 229.617 31.1222C229.911 31.2263 230.207 31.3139 230.505 31.3849L231.869 31.7259C232.418 31.8537 232.946 32.0265 233.452 32.2443C233.964 32.4621 234.421 32.7367 234.823 33.0682C235.23 33.3996 235.552 33.7997 235.789 34.2685C236.026 34.7372 236.144 35.2865 236.144 35.9162C236.144 36.7685 235.926 37.5189 235.491 38.1676C235.055 38.8116 234.425 39.3158 233.602 39.6804C232.782 40.0402 231.79 40.2202 230.626 40.2202C229.494 40.2202 228.512 40.045 227.678 39.6946C226.85 39.3442 226.201 38.8329 225.732 38.1605C225.268 37.4882 225.017 36.669 224.979 35.7031H227.572C227.61 36.2098 227.766 36.6312 228.04 36.9673C228.315 37.3035 228.673 37.5545 229.113 37.7202C229.558 37.8859 230.055 37.9688 230.604 37.9688C231.177 37.9688 231.679 37.8835 232.11 37.7131C232.546 37.5379 232.887 37.2964 233.133 36.9886C233.379 36.6761 233.504 36.3116 233.509 35.8949C233.504 35.5161 233.393 35.2036 233.175 34.9574C232.958 34.7064 232.652 34.4981 232.259 34.3324C231.871 34.1619 231.416 34.0104 230.896 33.8778L229.241 33.4517C228.043 33.1439 227.096 32.6776 226.4 32.0526C225.709 31.4228 225.363 30.5871 225.363 29.5455C225.363 28.6884 225.595 27.938 226.059 27.294C226.528 26.6501 227.165 26.1506 227.969 25.7955C228.774 25.4356 229.686 25.2557 230.704 25.2557C231.736 25.2557 232.64 25.4356 233.417 25.7955C234.198 26.1506 234.811 26.6454 235.256 27.2798C235.701 27.9096 235.931 28.634 235.945 29.4531H233.41ZM238.38 40V29.0909H240.951V40H238.38ZM239.672 27.5426C239.265 27.5426 238.915 27.4077 238.621 27.1378C238.328 26.8632 238.181 26.5341 238.181 26.1506C238.181 25.7623 238.328 25.4332 238.621 25.1634C238.915 24.8887 239.265 24.7514 239.672 24.7514C240.084 24.7514 240.435 24.8887 240.723 25.1634C241.017 25.4332 241.164 25.7623 241.164 26.1506C241.164 26.5341 241.017 26.8632 240.723 27.1378C240.435 27.4077 240.084 27.5426 239.672 27.5426ZM248.339 44.3182C247.415 44.3182 246.622 44.1927 245.96 43.9418C245.297 43.6955 244.764 43.3641 244.362 42.9474C243.959 42.5308 243.68 42.0691 243.523 41.5625L245.839 41.0014C245.943 41.2145 246.094 41.4252 246.293 41.6335C246.492 41.8466 246.76 42.0218 247.096 42.1591C247.437 42.3011 247.865 42.3722 248.381 42.3722C249.111 42.3722 249.714 42.1946 250.192 41.8395C250.671 41.4891 250.91 40.9115 250.91 40.1065V38.0398H250.782C250.649 38.3049 250.455 38.5772 250.2 38.8565C249.949 39.1359 249.615 39.3703 249.198 39.5597C248.786 39.7491 248.268 39.8438 247.643 39.8438C246.805 39.8438 246.045 39.6473 245.363 39.2543C244.686 38.8565 244.146 38.2647 243.744 37.4787C243.346 36.688 243.147 35.6984 243.147 34.5099C243.147 33.312 243.346 32.3011 243.744 31.4773C244.146 30.6487 244.688 30.0213 245.37 29.5952C246.052 29.1643 246.812 28.9489 247.65 28.9489C248.289 28.9489 248.815 29.0578 249.227 29.2756C249.643 29.4886 249.975 29.7467 250.221 30.0497C250.467 30.348 250.654 30.6297 250.782 30.8949H250.924V29.0909H253.46V40.1776C253.46 41.1103 253.237 41.8821 252.792 42.4929C252.347 43.1037 251.738 43.5606 250.967 43.8636C250.195 44.1667 249.319 44.3182 248.339 44.3182ZM248.36 37.8267C248.905 37.8267 249.369 37.6941 249.752 37.429C250.136 37.1638 250.427 36.7827 250.626 36.2855C250.825 35.7884 250.924 35.1918 250.924 34.4957C250.924 33.8092 250.825 33.2079 250.626 32.6918C250.432 32.1757 250.143 31.7756 249.759 31.4915C249.38 31.2027 248.914 31.0582 248.36 31.0582C247.787 31.0582 247.309 31.2074 246.925 31.5057C246.542 31.804 246.253 32.2135 246.059 32.7344C245.865 33.2505 245.768 33.8376 245.768 34.4957C245.768 35.1634 245.865 35.7481 246.059 36.25C246.258 36.7472 246.549 37.1354 246.933 37.4148C247.321 37.6894 247.797 37.8267 248.36 37.8267ZM258.665 33.608V40H256.094V29.0909H258.552V30.9446H258.68C258.931 30.3338 259.331 29.8485 259.88 29.4886C260.434 29.1288 261.118 28.9489 261.933 28.9489C262.685 28.9489 263.341 29.1098 263.9 29.4318C264.463 29.7538 264.899 30.2202 265.207 30.831C265.519 31.4418 265.673 32.1828 265.668 33.054V40H263.097V33.4517C263.097 32.7225 262.908 32.152 262.529 31.7401C262.155 31.3281 261.637 31.1222 260.974 31.1222C260.524 31.1222 260.124 31.2216 259.773 31.4205C259.428 31.6146 259.156 31.8963 258.957 32.2656C258.763 32.6349 258.665 33.0824 258.665 33.608ZM268.282 40V29.0909H270.853V40H268.282ZM269.575 27.5426C269.167 27.5426 268.817 27.4077 268.523 27.1378C268.23 26.8632 268.083 26.5341 268.083 26.1506C268.083 25.7623 268.23 25.4332 268.523 25.1634C268.817 24.8887 269.167 24.7514 269.575 24.7514C269.987 24.7514 270.337 24.8887 270.626 25.1634C270.919 25.4332 271.066 25.7623 271.066 26.1506C271.066 26.5341 270.919 26.8632 270.626 27.1378C270.337 27.4077 269.987 27.5426 269.575 27.5426ZM276.068 33.608V40H273.497V29.0909H275.954V30.9446H276.082C276.333 30.3338 276.733 29.8485 277.282 29.4886C277.836 29.1288 278.52 28.9489 279.335 28.9489C280.088 28.9489 280.743 29.1098 281.302 29.4318C281.866 29.7538 282.301 30.2202 282.609 30.831C282.922 31.4418 283.075 32.1828 283.071 33.054V40H280.5V33.4517C280.5 32.7225 280.31 32.152 279.931 31.7401C279.557 31.3281 279.039 31.1222 278.376 31.1222C277.926 31.1222 277.526 31.2216 277.176 31.4205C276.83 31.6146 276.558 31.8963 276.359 32.2656C276.165 32.6349 276.068 33.0824 276.068 33.608ZM290.429 44.3182C289.505 44.3182 288.712 44.1927 288.049 43.9418C287.386 43.6955 286.854 43.3641 286.451 42.9474C286.049 42.5308 285.77 42.0691 285.613 41.5625L287.929 41.0014C288.033 41.2145 288.184 41.4252 288.383 41.6335C288.582 41.8466 288.85 42.0218 289.186 42.1591C289.527 42.3011 289.955 42.3722 290.471 42.3722C291.2 42.3722 291.804 42.1946 292.282 41.8395C292.761 41.4891 293 40.9115 293 40.1065V38.0398H292.872C292.739 38.3049 292.545 38.5772 292.289 38.8565C292.038 39.1359 291.705 39.3703 291.288 39.5597C290.876 39.7491 290.358 39.8438 289.733 39.8438C288.895 39.8438 288.135 39.6473 287.453 39.2543C286.776 38.8565 286.236 38.2647 285.833 37.4787C285.436 36.688 285.237 35.6984 285.237 34.5099C285.237 33.312 285.436 32.3011 285.833 31.4773C286.236 30.6487 286.778 30.0213 287.46 29.5952C288.142 29.1643 288.902 28.9489 289.74 28.9489C290.379 28.9489 290.904 29.0578 291.316 29.2756C291.733 29.4886 292.065 29.7467 292.311 30.0497C292.557 30.348 292.744 30.6297 292.872 30.8949H293.014V29.0909H295.549V40.1776C295.549 41.1103 295.327 41.8821 294.882 42.4929C294.437 43.1037 293.828 43.5606 293.056 43.8636C292.285 44.1667 291.409 44.3182 290.429 44.3182ZM290.45 37.8267C290.994 37.8267 291.458 37.6941 291.842 37.429C292.225 37.1638 292.517 36.7827 292.716 36.2855C292.914 35.7884 293.014 35.1918 293.014 34.4957C293.014 33.8092 292.914 33.2079 292.716 32.6918C292.521 32.1757 292.233 31.7756 291.849 31.4915C291.47 31.2027 291.004 31.0582 290.45 31.0582C289.877 31.0582 289.399 31.2074 289.015 31.5057C288.632 31.804 288.343 32.2135 288.149 32.7344C287.955 33.2505 287.858 33.8376 287.858 34.4957C287.858 35.1634 287.955 35.7481 288.149 36.25C288.348 36.7472 288.639 37.1354 289.022 37.4148C289.411 37.6894 289.886 37.8267 290.45 37.8267ZM312.428 25.4545H315.063V34.9574C315.063 35.9991 314.817 36.9152 314.324 37.706C313.837 38.4967 313.15 39.1146 312.265 39.5597C311.379 40 310.345 40.2202 309.161 40.2202C307.972 40.2202 306.935 40 306.05 39.5597C305.165 39.1146 304.478 38.4967 303.99 37.706C303.503 36.9152 303.259 35.9991 303.259 34.9574V25.4545H305.894V34.7372C305.894 35.3433 306.026 35.883 306.292 36.3565C306.561 36.83 306.94 37.2017 307.428 37.4716C307.916 37.7367 308.493 37.8693 309.161 37.8693C309.828 37.8693 310.406 37.7367 310.894 37.4716C311.386 37.2017 311.765 36.83 312.03 36.3565C312.295 35.883 312.428 35.3433 312.428 34.7372V25.4545ZM317.813 44.0909V29.0909H320.342V30.8949H320.491C320.623 30.6297 320.81 30.348 321.052 30.0497C321.293 29.7467 321.62 29.4886 322.032 29.2756C322.444 29.0578 322.969 28.9489 323.609 28.9489C324.451 28.9489 325.211 29.1643 325.888 29.5952C326.57 30.0213 327.11 30.6534 327.508 31.4915C327.91 32.3248 328.112 33.3475 328.112 34.5597C328.112 35.7576 327.915 36.7756 327.522 37.6136C327.129 38.4517 326.594 39.0909 325.917 39.5312C325.24 39.9716 324.473 40.1918 323.616 40.1918C322.991 40.1918 322.472 40.0876 322.06 39.8793C321.648 39.6709 321.317 39.42 321.066 39.1264C320.82 38.8281 320.628 38.5464 320.491 38.2812H320.384V44.0909H317.813ZM320.335 34.5455C320.335 35.2509 320.434 35.8688 320.633 36.3991C320.836 36.9295 321.128 37.3437 321.506 37.642C321.89 37.9356 322.354 38.0824 322.898 38.0824C323.467 38.0824 323.942 37.9309 324.326 37.6278C324.71 37.3201 324.998 36.901 325.192 36.3707C325.391 35.8357 325.491 35.2273 325.491 34.5455C325.491 33.8684 325.394 33.267 325.2 32.7415C325.005 32.2159 324.717 31.804 324.333 31.5057C323.95 31.2074 323.471 31.0582 322.898 31.0582C322.349 31.0582 321.883 31.2027 321.499 31.4915C321.116 31.7803 320.825 32.1851 320.626 32.706C320.432 33.2268 320.335 33.84 320.335 34.5455ZM337.526 40L334.443 29.0909H337.064L338.982 36.7614H339.081L341.041 29.0909H343.634L345.594 36.7188H345.7L347.589 29.0909H350.217L347.128 40H344.45L342.405 32.6278H342.256L340.21 40H337.526ZM352.012 40V29.0909H354.583V40H352.012ZM353.305 27.5426C352.898 27.5426 352.547 27.4077 352.254 27.1378C351.96 26.8632 351.814 26.5341 351.814 26.1506C351.814 25.7623 351.96 25.4332 352.254 25.1634C352.547 24.8887 352.898 24.7514 353.305 24.7514C353.717 24.7514 354.067 24.8887 354.356 25.1634C354.65 25.4332 354.797 25.7623 354.797 26.1506C354.797 26.5341 354.65 26.8632 354.356 27.1378C354.067 27.4077 353.717 27.5426 353.305 27.5426ZM362.675 29.0909V31.0795H356.403V29.0909H362.675ZM357.952 26.4773H360.523V36.7188C360.523 37.0644 360.575 37.3295 360.679 37.5142C360.788 37.6941 360.93 37.8172 361.105 37.8835C361.28 37.9498 361.474 37.983 361.688 37.983C361.848 37.983 361.995 37.9711 362.128 37.9474C362.265 37.9238 362.369 37.9025 362.44 37.8835L362.874 39.8935C362.736 39.9408 362.54 39.9929 362.284 40.0497C362.033 40.1065 361.725 40.1397 361.361 40.1491C360.717 40.1681 360.137 40.071 359.621 39.858C359.105 39.6402 358.695 39.304 358.392 38.8494C358.094 38.3949 357.947 37.8267 357.952 37.1449V26.4773ZM367.63 33.608V40H365.059V25.4545H367.574V30.9446H367.701C367.957 30.3291 368.352 29.8437 368.887 29.4886C369.427 29.1288 370.114 28.9489 370.947 28.9489C371.705 28.9489 372.365 29.1075 372.929 29.4247C373.492 29.742 373.928 30.206 374.235 30.8168C374.548 31.4276 374.704 32.1733 374.704 33.054V40H372.133V33.4517C372.133 32.7178 371.944 32.1473 371.565 31.7401C371.191 31.3281 370.665 31.1222 369.988 31.1222C369.534 31.1222 369.127 31.2216 368.767 31.4205C368.412 31.6146 368.132 31.8963 367.929 32.2656C367.73 32.6349 367.63 33.0824 367.63 33.608ZM392.144 30.0994C392.025 29.7159 391.862 29.3726 391.654 29.0696C391.45 28.7618 391.204 28.4991 390.915 28.2812C390.631 28.0634 390.304 27.9001 389.935 27.7912C389.566 27.6776 389.163 27.6207 388.728 27.6207C387.946 27.6207 387.25 27.8172 386.64 28.2102C386.029 28.6032 385.548 29.1809 385.198 29.9432C384.852 30.7008 384.679 31.6241 384.679 32.7131C384.679 33.8116 384.852 34.742 385.198 35.5043C385.543 36.2666 386.024 36.8466 386.64 37.2443C387.255 37.6373 387.97 37.8338 388.784 37.8338C389.523 37.8338 390.162 37.6918 390.702 37.4077C391.247 37.1236 391.666 36.7211 391.959 36.2003C392.253 35.6747 392.4 35.0592 392.4 34.3537L392.996 34.446H389.047V32.3864H394.949V34.1335C394.949 35.3788 394.684 36.456 394.154 37.3651C393.623 38.2741 392.894 38.9749 391.966 39.4673C391.038 39.955 389.973 40.1989 388.77 40.1989C387.43 40.1989 386.254 39.8982 385.24 39.2969C384.232 38.6908 383.444 37.8314 382.875 36.7188C382.312 35.6013 382.03 34.2756 382.03 32.7415C382.03 31.5672 382.196 30.5185 382.527 29.5952C382.864 28.6719 383.332 27.8883 383.934 27.2443C384.535 26.5956 385.24 26.1032 386.05 25.767C386.86 25.4261 387.74 25.2557 388.692 25.2557C389.497 25.2557 390.248 25.3741 390.944 25.6108C391.64 25.8428 392.257 26.1742 392.797 26.6051C393.342 27.036 393.789 27.5473 394.14 28.1392C394.49 28.7311 394.72 29.3845 394.828 30.0994H392.144ZM402.142 40.2131C401.077 40.2131 400.153 39.9787 399.372 39.5099C398.591 39.0412 397.985 38.3854 397.554 37.5426C397.128 36.6998 396.915 35.715 396.915 34.5881C396.915 33.4612 397.128 32.474 397.554 31.6264C397.985 30.7789 398.591 30.1207 399.372 29.652C400.153 29.1832 401.077 28.9489 402.142 28.9489C403.207 28.9489 404.131 29.1832 404.912 29.652C405.693 30.1207 406.297 30.7789 406.723 31.6264C407.154 32.474 407.369 33.4612 407.369 34.5881C407.369 35.715 407.154 36.6998 406.723 37.5426C406.297 38.3854 405.693 39.0412 404.912 39.5099C404.131 39.9787 403.207 40.2131 402.142 40.2131ZM402.156 38.1534C402.734 38.1534 403.217 37.9948 403.605 37.6776C403.993 37.3556 404.282 36.9247 404.472 36.3849C404.666 35.8452 404.763 35.2438 404.763 34.581C404.763 33.9134 404.666 33.3097 404.472 32.7699C404.282 32.2254 403.993 31.7921 403.605 31.4702C403.217 31.1482 402.734 30.9872 402.156 30.9872C401.564 30.9872 401.072 31.1482 400.679 31.4702C400.291 31.7921 400 32.2254 399.805 32.7699C399.616 33.3097 399.521 33.9134 399.521 34.581C399.521 35.2438 399.616 35.8452 399.805 36.3849C400 36.9247 400.291 37.3556 400.679 37.6776C401.072 37.9948 401.564 38.1534 402.156 38.1534ZM414.31 40.2131C413.245 40.2131 412.321 39.9787 411.54 39.5099C410.759 39.0412 410.153 38.3854 409.722 37.5426C409.296 36.6998 409.083 35.715 409.083 34.5881C409.083 33.4612 409.296 32.474 409.722 31.6264C410.153 30.7789 410.759 30.1207 411.54 29.652C412.321 29.1832 413.245 28.9489 414.31 28.9489C415.375 28.9489 416.299 29.1832 417.08 29.652C417.861 30.1207 418.465 30.7789 418.891 31.6264C419.322 32.474 419.537 33.4612 419.537 34.5881C419.537 35.715 419.322 36.6998 418.891 37.5426C418.465 38.3854 417.861 39.0412 417.08 39.5099C416.299 39.9787 415.375 40.2131 414.31 40.2131ZM414.324 38.1534C414.902 38.1534 415.385 37.9948 415.773 37.6776C416.161 37.3556 416.45 36.9247 416.64 36.3849C416.834 35.8452 416.931 35.2438 416.931 34.581C416.931 33.9134 416.834 33.3097 416.64 32.7699C416.45 32.2254 416.161 31.7921 415.773 31.4702C415.385 31.1482 414.902 30.9872 414.324 30.9872C413.732 30.9872 413.24 31.1482 412.847 31.4702C412.459 31.7921 412.167 32.2254 411.973 32.7699C411.784 33.3097 411.689 33.9134 411.689 34.581C411.689 35.2438 411.784 35.8452 411.973 36.3849C412.167 36.9247 412.459 37.3556 412.847 37.6776C413.24 37.9948 413.732 38.1534 414.324 38.1534ZM426.464 44.3182C425.54 44.3182 424.747 44.1927 424.085 43.9418C423.422 43.6955 422.889 43.3641 422.487 42.9474C422.084 42.5308 421.805 42.0691 421.648 41.5625L423.964 41.0014C424.068 41.2145 424.219 41.4252 424.418 41.6335C424.617 41.8466 424.885 42.0218 425.221 42.1591C425.562 42.3011 425.99 42.3722 426.506 42.3722C427.236 42.3722 427.839 42.1946 428.317 41.8395C428.796 41.4891 429.035 40.9115 429.035 40.1065V38.0398H428.907C428.774 38.3049 428.58 38.5772 428.325 38.8565C428.074 39.1359 427.74 39.3703 427.323 39.5597C426.911 39.7491 426.393 39.8438 425.768 39.8438C424.93 39.8438 424.17 39.6473 423.488 39.2543C422.811 38.8565 422.271 38.2647 421.869 37.4787C421.471 36.688 421.272 35.6984 421.272 34.5099C421.272 33.312 421.471 32.3011 421.869 31.4773C422.271 30.6487 422.813 30.0213 423.495 29.5952C424.177 29.1643 424.937 28.9489 425.775 28.9489C426.414 28.9489 426.94 29.0578 427.352 29.2756C427.768 29.4886 428.1 29.7467 428.346 30.0497C428.592 30.348 428.779 30.6297 428.907 30.8949H429.049V29.0909H431.585V40.1776C431.585 41.1103 431.362 41.8821 430.917 42.4929C430.472 43.1037 429.863 43.5606 429.092 43.8636C428.32 44.1667 427.444 44.3182 426.464 44.3182ZM426.485 37.8267C427.03 37.8267 427.494 37.6941 427.877 37.429C428.261 37.1638 428.552 36.7827 428.751 36.2855C428.95 35.7884 429.049 35.1918 429.049 34.4957C429.049 33.8092 428.95 33.2079 428.751 32.6918C428.557 32.1757 428.268 31.7756 427.884 31.4915C427.505 31.2027 427.039 31.0582 426.485 31.0582C425.912 31.0582 425.434 31.2074 425.05 31.5057C424.667 31.804 424.378 32.2135 424.184 32.7344C423.99 33.2505 423.893 33.8376 423.893 34.4957C423.893 35.1634 423.99 35.7481 424.184 36.25C424.383 36.7472 424.674 37.1354 425.058 37.4148C425.446 37.6894 425.922 37.8267 426.485 37.8267ZM436.79 25.4545V40H434.219V25.4545H436.79ZM444.264 40.2131C443.17 40.2131 442.225 39.9858 441.43 39.5312C440.639 39.072 440.031 38.4233 439.605 37.5852C439.179 36.7424 438.966 35.7505 438.966 34.6094C438.966 33.4872 439.179 32.5024 439.605 31.6548C440.036 30.8026 440.637 30.1397 441.409 29.6662C442.181 29.188 443.087 28.9489 444.129 28.9489C444.801 28.9489 445.436 29.0578 446.032 29.2756C446.634 29.4886 447.164 29.8201 447.623 30.2699C448.087 30.7197 448.452 31.2926 448.717 31.9886C448.982 32.6799 449.115 33.5038 449.115 34.4602V35.2486H440.173V33.5156H446.65C446.645 33.0232 446.539 32.5852 446.331 32.2017C446.122 31.8134 445.831 31.508 445.457 31.2855C445.088 31.063 444.657 30.9517 444.164 30.9517C443.639 30.9517 443.177 31.0795 442.779 31.3352C442.382 31.5862 442.072 31.9176 441.849 32.3295C441.631 32.7367 441.52 33.1842 441.515 33.6719V35.1847C441.515 35.8191 441.631 36.3636 441.863 36.8182C442.095 37.268 442.42 37.6136 442.836 37.8551C443.253 38.0919 443.741 38.2102 444.299 38.2102C444.673 38.2102 445.012 38.1581 445.315 38.054C445.618 37.9451 445.881 37.7865 446.103 37.5781C446.326 37.3698 446.494 37.1117 446.608 36.804L449.008 37.0739C448.857 37.7083 448.568 38.2623 448.142 38.7358C447.72 39.2045 447.181 39.5691 446.522 39.8295C445.864 40.0852 445.111 40.2131 444.264 40.2131Z" fill="#5E5E5E"/>
<path d="M61.5002 18.7917C64.6663 18.7917 67.5735 19.8757 69.8942 21.6784L77.017 14.883C72.8757 11.2324 67.4548 9 61.5002 9C52.477 9 44.652 14.0915 40.7141 21.5526L48.6344 27.8055C50.553 22.5504 55.5811 18.7917 61.5002 18.7917Z" fill="#F44336"/>
<path d="M84.7964 35.4411C84.9188 34.4783 85 33.4961 85 32.5C85 30.82 84.8165 29.1842 84.4815 27.6042H61.5V37.3958H74.2022C73.1746 40.0665 71.345 42.3264 69.0161 43.8964L76.9659 50.1726C81.18 46.4736 84.0639 41.2936 84.7964 35.4411Z" fill="#2196F3"/>
<path d="M47.7917 32.5C47.7917 30.8482 48.0989 29.2719 48.6342 27.8054L40.7139 21.5526C38.9877 24.8234 38 28.5445 38 32.5C38 36.4113 38.9695 40.0912 40.6598 43.3354L48.5902 37.0745C48.0824 35.642 47.7917 34.1067 47.7917 32.5Z" fill="#FFC107"/>
<path d="M61.4999 46.2083C55.5357 46.2083 50.4753 42.3926 48.5901 37.0746L40.6597 43.3354C44.5784 50.8564 52.4324 56 61.4999 56C67.4292 56 72.8362 53.7972 76.9657 50.1726L69.016 43.8964C66.8681 45.3445 64.2971 46.2083 61.4999 46.2083Z" fill="#00B060"/>
<path opacity="0.1" d="M61.4999 55.5104C54.5837 55.5104 48.3648 52.6568 43.968 48.1105C48.2721 52.9407 54.5213 56 61.4999 56C68.4139 56 74.6114 53.0011 78.9058 48.2465C74.522 52.7191 68.3504 55.5104 61.4999 55.5104Z" fill="black"/>
<path opacity="0.1" d="M61.5 36.9062V37.3958H74.2022L74.4005 36.9062H61.5Z" fill="black"/>
<path d="M84.9893 32.788C84.9908 32.6915 85.0001 32.5967 85.0001 32.5C85.0001 32.4727 84.9958 32.4463 84.9957 32.4189C84.9944 32.5422 84.9882 32.6642 84.9893 32.788Z" fill="#E6E6E6"/>
<path opacity="0.2" d="M61.5 27.6042V28.0937H84.5801C84.5492 27.9321 84.5156 27.7646 84.4815 27.6042H61.5Z" fill="white"/>
<path d="M84.4815 27.6042H61.5V37.3958H74.2022C72.2268 42.5298 67.3303 46.2083 61.5 46.2083C53.9291 46.2083 47.7917 40.0709 47.7917 32.5C47.7917 24.929 53.9291 18.7917 61.5 18.7917C64.2453 18.7917 66.7756 19.6351 68.9192 21.0255C69.2473 21.2387 69.5858 21.439 69.894 21.6784L77.0168 14.883L76.8561 14.7594C72.7348 11.1876 67.3819 9 61.5 9C48.5213 9 38 19.5213 38 32.5C38 45.4786 48.5213 56 61.5 56C73.4804 56 83.3461 47.0284 84.7964 35.4411C84.9188 34.4783 85 33.4961 85 32.5C85 30.82 84.8165 29.1842 84.4815 27.6042Z" fill="url(#paint0_linear_237_187)"/>
<path opacity="0.1" d="M68.9192 20.536C66.7756 19.1455 64.2453 18.3021 61.5 18.3021C53.9291 18.3021 47.7917 24.4395 47.7917 32.0105C47.7917 32.0931 47.7928 32.1576 47.7942 32.24C47.9263 24.7833 54.0117 18.7917 61.5 18.7917C64.2453 18.7917 66.7756 19.6351 68.9192 21.0256C69.2473 21.2388 69.5858 21.439 69.894 21.6784L77.0168 14.8831L69.894 21.1888C69.5858 20.9494 69.2473 20.7492 68.9192 20.536Z" fill="black"/>
<path opacity="0.2" d="M61.5 9.48958C67.3261 9.48958 72.6291 11.6406 76.7345 15.1523L77.0168 14.883L76.8013 14.6954C72.68 11.1235 67.3819 9 61.5 9C48.5213 9 38 19.5213 38 32.5C38 32.5826 38.0115 32.6623 38.0123 32.7448C38.145 19.8802 48.6039 9.48958 61.5 9.48958Z" fill="white"/>
<defs>
<linearGradient id="paint0_linear_237_187" x1="38" y1="32.5" x2="85" y2="32.5" gradientUnits="userSpaceOnUse">
<stop stop-color="white" stop-opacity="0.2"/>
<stop offset="1" stop-color="white" stop-opacity="0"/>
</linearGradient>
</defs>
</svg>
