<svg width="73" height="73" viewBox="0 0 73 73" fill="none" xmlns="http://www.w3.org/2000/svg">
<path d="M15.5767 41.0623H50.1875C51.3975 41.0623 52.558 40.5817 53.4137 39.726C54.2693 38.8704 54.75 37.7099 54.75 36.4998C54.75 35.2898 54.2693 34.1293 53.4137 33.2737C52.558 32.418 51.3975 31.9373 50.1875 31.9373H15.5767L21.4758 26.0382C22.3274 25.1818 22.8047 24.0227 22.8031 22.815C22.8014 21.6072 22.3209 20.4495 21.4669 19.5955C20.6129 18.7415 19.4551 18.261 18.2474 18.2593C17.0396 18.2576 15.8805 18.7349 15.0242 19.5865L1.33665 33.274C0.912895 33.6976 0.57674 34.2004 0.347393 34.7539C0.118046 35.3074 0 35.9007 0 36.4998C0 37.099 0.118046 37.6922 0.347393 38.2457C0.57674 38.7992 0.912895 39.3021 1.33665 39.7257L15.0242 53.4132C15.4474 53.8388 15.9504 54.1766 16.5044 54.4075C17.0584 54.6383 17.6525 54.7575 18.2526 54.7584C18.8528 54.7592 19.4472 54.6416 20.0019 54.4123C20.5565 54.183 21.0604 53.8466 21.4848 53.4222C21.9092 52.9978 22.2457 52.4939 22.475 51.9392C22.7043 51.3846 22.8218 50.7901 22.821 50.19C22.8202 49.5898 22.7009 48.9957 22.4701 48.4417C22.2393 47.8877 21.9014 47.3847 21.4758 46.9615L15.5767 41.0623Z" fill="black"/>
<path d="M68.4375 7.33433e-07H31.9375C31.3382 -0.000339131 30.7448 0.117441 30.1911 0.346608C29.6374 0.575775 29.1343 0.911833 28.7106 1.33557C28.2868 1.7593 27.9508 2.2624 27.7216 2.81611C27.4924 3.36981 27.3747 3.96325 27.375 4.5625V13.6875C27.375 14.8976 27.8557 16.058 28.7113 16.9137C29.567 17.7693 30.7275 18.25 31.9375 18.25C33.1476 18.25 34.308 17.7693 35.1637 16.9137C36.0193 16.058 36.5 14.8976 36.5 13.6875V9.125H63.875V63.875H36.5V59.3125C36.5 58.1025 36.0193 56.942 35.1637 56.0863C34.308 55.2307 33.1476 54.75 31.9375 54.75C30.7275 54.75 29.567 55.2307 28.7113 56.0863C27.8557 56.942 27.375 58.1025 27.375 59.3125V68.4375C27.3747 69.0368 27.4924 69.6302 27.7216 70.1839C27.9508 70.7376 28.2868 71.2407 28.7106 71.6644C29.1343 72.0882 29.6374 72.4242 30.1911 72.6534C30.7448 72.8826 31.3382 73.0004 31.9375 73H68.4375C69.0368 73.0004 69.6302 72.8826 70.1839 72.6534C70.7376 72.4242 71.2407 72.0882 71.6644 71.6644C72.0882 71.2407 72.4242 70.7376 72.6534 70.1839C72.8826 69.6302 73.0003 69.0368 73 68.4375V4.5625C73.0003 3.96325 72.8826 3.36981 72.6534 2.81611C72.4242 2.2624 72.0882 1.7593 71.6644 1.33557C71.2407 0.911833 70.7376 0.575775 70.1839 0.346608C69.6302 0.117441 69.0368 -0.000339131 68.4375 7.33433e-07Z" fill="black"/>
</svg>
