<svg width="48" height="55" viewBox="0 0 48 55" fill="none" xmlns="http://www.w3.org/2000/svg">
<path d="M24 55C27.7843 55 30.8539 51.9224 30.8539 48.125H17.1461C17.1461 51.9224 20.2157 55 24 55ZM47.0774 38.9179C45.0074 36.6878 41.1342 33.333 41.1342 22.3438C41.1342 13.9971 35.2971 7.31543 27.4264 5.67617V3.4375C27.4264 1.53936 25.8921 0 24 0C22.1079 0 20.5736 1.53936 20.5736 3.4375V5.67617C12.7029 7.31543 6.86577 13.9971 6.86577 22.3438C6.86577 33.333 2.99256 36.6878 0.922571 38.9179C0.279716 39.6107 -0.00528305 40.439 7.40771e-05 41.25C0.0118598 43.0117 1.39078 44.6875 3.43935 44.6875H44.5607C46.6092 44.6875 47.9892 43.0117 47.9999 41.25C48.0053 40.439 47.7203 39.6097 47.0774 38.9179Z" fill="#F36E39"/>
</svg>
