<svg width="65" height="86" viewBox="0 0 65 86" fill="none" xmlns="http://www.w3.org/2000/svg">
<path d="M64.0745 23.4708C63.8729 22.9781 63.6266 22.5078 63.2906 22.1047L44.5229 1.56771C44.0974 1.0974 43.5823 0.761458 43.0224 0.470312C42.3729 0.134375 41.6562 0 40.8948 0H5.08385C2.30677 0 0 2.37396 0 5.3526V80.4234C0 83.4245 2.30677 86 5.08385 86H59.5281C62.3052 86 64.5 83.4245 64.5 80.4234V25.7552C64.5 24.949 64.388 24.1651 64.0745 23.4708ZM10.75 25.576C10.75 25.2401 11.1531 25.1057 11.5115 25.1057H27.3677C27.726 25.1057 27.9948 25.2401 27.9948 25.576V27.9948C27.9948 28.3083 27.7484 28.6891 27.3677 28.6891H11.5115C11.1531 28.6891 10.75 28.3083 10.75 27.9948V25.576ZM10.75 54.2427C10.75 53.9068 11.1531 53.7724 11.5115 53.7724H38.8792C39.2375 53.7724 39.4167 53.9068 39.4167 54.2427V56.6615C39.4167 56.975 39.2599 57.3557 38.8792 57.3557H11.5115C11.1531 57.3557 10.75 56.975 10.75 56.6615V54.2427ZM46.5833 70.9948C46.5833 71.3083 46.4266 71.6891 46.0458 71.6891H11.5115C11.1531 71.6891 10.75 71.3083 10.75 70.9948V68.576C10.75 68.2401 11.1531 68.1057 11.5115 68.1057H46.0458C46.4042 68.1057 46.5833 68.2401 46.5833 68.576V70.9948ZM53.75 42.3281C53.75 42.6417 53.5932 43.0224 53.2125 43.0224H11.5115C11.1531 43.0224 10.75 42.6417 10.75 42.3281V39.9094C10.75 39.5734 11.1531 39.4391 11.5115 39.4391H53.2125C53.5708 39.4391 53.75 39.5734 53.75 39.9094V42.3281ZM43.2464 25.3297C41.9922 25.3297 40.7604 24.1651 40.7604 22.799V8.01771L56.7063 25.3297H43.2464Z" fill="black"/>
</svg>
