<svg width="28" height="28" viewBox="0 0 28 28" fill="none" xmlns="http://www.w3.org/2000/svg">
<path d="M27.3166 24.0173L21.3934 18.094C22.6172 16.2495 23.3336 14.041 23.3336 11.6668C23.3336 5.23372 18.0999 0 11.6668 0C5.23372 0 0 5.23372 0 11.6668C0 18.0999 5.23372 23.3336 11.6668 23.3336C14.041 23.3336 16.2495 22.6172 18.094 21.3934L24.0173 27.3166C24.9273 28.2278 26.4066 28.2278 27.3166 27.3166C28.2278 26.4054 28.2278 24.9284 27.3166 24.0173ZM3.50004 11.6668C3.50004 7.16341 7.16341 3.50004 11.6668 3.50004C16.1702 3.50004 19.8335 7.16341 19.8335 11.6668C19.8335 16.1702 16.1702 19.8335 11.6668 19.8335C7.16341 19.8335 3.50004 16.1702 3.50004 11.6668Z" fill="#5E5E5E"/>
</svg>
