<svg width="29" height="32" viewBox="0 0 29 32" fill="none" xmlns="http://www.w3.org/2000/svg">
<path d="M27.6961 18.6299L26.1436 17.7243C24.4618 16.6893 24.4618 14.2312 26.1436 13.1962L27.6961 12.2906C28.9898 11.5144 29.378 9.96189 28.6017 8.79753L27.308 6.59818C26.5317 5.30444 24.9793 4.91632 23.8149 5.69256L22.2624 6.59818C20.5806 7.63316 18.3812 6.33943 18.3812 4.39882V2.58759C18.3812 1.16448 17.2168 0.00012207 15.7937 0.00012207H13.2063C11.7832 0.00012207 10.6188 1.16448 10.6188 2.58759V4.26945C10.6188 6.21005 8.41944 7.50379 6.73759 6.4688L5.1851 5.69256C3.89137 4.91632 2.33888 5.43381 1.69202 6.59818L0.39828 8.79753C-0.248588 10.0913 0.139532 11.6437 1.30389 12.42L2.85638 13.3256C4.53823 14.2312 4.53823 16.8187 2.85638 17.7243L1.30389 18.6299C0.0101588 19.4062 -0.377962 20.9586 0.39828 22.123L1.69202 24.3224C2.46826 25.6161 4.02074 26.0042 5.1851 25.228L6.73759 24.4517C8.41944 23.4167 10.6188 24.7105 10.6188 26.6511V28.4623C10.6188 29.8854 11.7832 31.0498 13.2063 31.0498H15.7937C17.2168 31.0498 18.3812 29.8854 18.3812 28.4623V26.7805C18.3812 24.8399 20.5806 23.5461 22.2624 24.5811L23.8149 25.4867C25.1086 26.263 26.6611 25.7455 27.308 24.5811L28.6017 22.3818C29.2486 20.9586 28.8605 19.4062 27.6961 18.6299ZM14.5 20.6999C11.6538 20.6999 9.32506 18.3712 9.32506 15.525C9.32506 12.6787 11.6538 10.35 14.5 10.35C17.3462 10.35 19.6749 12.6787 19.6749 15.525C19.6749 18.3712 17.3462 20.6999 14.5 20.6999Z" fill="#F36E39"/>
</svg>
